MelliferaMaster-Regular.sfdir
StartChar: ExclamationMrk
Encoding: 758 33 754
GlifName: E_xclamationM_rk
Width: 557
VWidth: 0
Flags: W
LayerCount: 2
Fore
SplineSet
326 389 m 257
 375 1455 l 257
 332 1480 l 257
 287 1461 227 1431 176 1398 c 257
 223 371 l 257
 252 350 l 257
 285 360 301 371 326 389 c 257
390 123 m 257
 390 195 357 236 291 236 c 256
 216 236 152 162 152 72 c 256
 152 0 181 -40 252 -40 c 256
 330 -40 390 31 390 123 c 257
  PathStart: -1
EndSplineSet
Validated: 9
EndChar
StartChar: QuotMrk
Encoding: 3976 34 3955
GlifName: Q_uotM_rk
Width: 870
VWidth: 0
Flags: W
LayerCount: 2
Fore
SplineSet
668 834 m 257
 711 1459 l 257
 668 1480 l 257
 639 1474 547 1443 518 1426 c 257
 571 813 l 257
 602 813 647 823 668 834 c 257
309 834 m 257
 352 1459 l 257
 309 1480 l 257
 281 1474 190 1443 160 1426 c 257
 213 813 l 257
 244 813 289 823 309 834 c 257
EndSplineSet
EndChar
StartChar: NumSgn
Encoding: 3949 35 3931
GlifName: N_umS_gn
Width: 961
VWidth: 0
Flags: W
LayerCount: 2
Fore
SplineSet
982 936 m 257
 957 961 l 257
 224 961 l 257
 214 934 199 899 193 870 c 257
 218 846 l 257
 951 846 l 257
 961 868 976 907 982 936 c 257
  PathStart: -1
580 170 m 257
 894 1270 l 257
 867 1292 l 257
 836 1280 806 1272 777 1251 c 257
 462 147 l 257
 488 127 l 257
 523 139 556 152 580 170 c 257
279 170 m 257
 595 1270 l 257
 566 1292 l 257
 537 1280 507 1272 478 1251 c 257
 163 147 l 257
 189 127 l 257
 224 139 255 152 279 170 c 257
873 563 m 257
 851 590 l 257
 117 590 l 257
 105 563 93 526 87 500 c 257
 109 475 l 257
 845 475 l 257
 855 498 867 537 873 563 c 257
  PathStart: -1
EndSplineSet
EndChar
StartChar: DollarSgn
Encoding: 719 36 715
GlifName: D_ollarS_gn
Width: 961
VWidth: 0
Flags: W
LayerCount: 2
Fore
SplineSet
522 -143 m 257
 522 1362 l 257
 496 1384 l 257
 457 1374 469 1378 432 1356 c 257
 432 -152 l 257
 459 -174 l 257
 492 -166 498 -164 522 -143 c 257
  PathStart: -1
442 -10 m 256
 719 -10 862 199 862 377 c 256
 862 780 225 696 225 958 c 256
 225 1034 281 1116 451 1116 c 256
 528 1116 612 1079 688 991 c 257
 727 983 l 257
 762 1014 827 1106 811 1124 c 257
 758 1178 639 1214 512 1214 c 256
 197 1214 98 1036 98 911 c 256
 98 535 727 655 727 324 c 256
 727 197 608 111 489 111 c 256
 346 111 219 178 145 336 c 257
 102 340 l 257
 82 266 84 109 102 96 c 257
 223 20 309 -10 442 -10 c 256
  PathStart: -1
EndSplineSet
EndChar
StartChar: PercentSgn
Encoding: 3963 37 3943
GlifName: P_ercentS_gn
Width: 1413
VWidth: 0
Flags: W
LayerCount: 2
Fore
SplineSet
1337 309 m 257
 1337 496 1231 646 1071 646 c 256
 918 646 778 494 778 309 c 256
 778 125 889 -30 1044 -30 c 256
 1200 -30 1337 125 1337 309 c 257
  PathStart: -1
358 17 m 257
 1217 1204 l 257
 1188 1237 l 257
 1147 1227 1092 1210 1055 1188 c 257
 199 1 l 257
 223 -34 l 257
 256 -24 334 -1 358 17 c 257
637 897 m 257
 637 1083 528 1234 369 1234 c 256
 215 1234 76 1081 76 897 c 256
 76 713 186 558 342 558 c 256
 500 558 637 713 637 897 c 257
  PathStart: -1
1194 289 m 257
 1194 133 1137 51 1071 51 c 256
 985 51 924 139 924 332 c 256
 924 489 985 565 1044 565 c 256
 1122 565 1194 477 1194 289 c 257
  PathStart: -1
492 877 m 257
 492 721 434 639 369 639 c 256
 283 639 221 727 221 920 c 256
 221 1077 283 1153 342 1153 c 256
 420 1153 492 1067 492 877 c 257
  PathStart: -1
EndSplineSet
EndChar
StartChar: Ampersand
Encoding: 18 38 15
GlifName: A_mpersand
Width: 1366
VWidth: 0
Flags: W
LayerCount: 2
Fore
SplineSet
1346 748 m 257
 1323 784 l 257
 879 784 l 257
 852 774 819 750 805 733 c 257
 827 705 l 257
 905 705 987 614 987 502 c 256
 987 334 811 84 528 84 c 256
 381 84 242 186 242 373 c 256
 242 528 328 659 618 842 c 257
 776 940 868 1065 868 1204 c 256
 868 1333 811 1450 641 1450 c 256
 473 1450 317 1288 317 1073 c 256
 317 618 985 -30 1081 -30 c 256
 1110 -30 1194 -6 1309 45 c 257
 1300 88 l 257
 1223 70 1167 84 1116 127 c 257
 868 326 444 807 444 1130 c 256
 444 1235 492 1343 588 1343 c 256
 682 1343 729 1264 729 1171 c 256
 729 1083 689 980 503 876 c 256
 235 726 80 532 80 352 c 256
 80 102 250 -30 498 -30 c 256
 838 -30 1108 311 1108 543 c 256
 1108 621 1104 653 1075 700 c 257
 1120 698 1198 682 1247 659 c 257
 1280 682 1313 707 1346 748 c 257
  PathStart: -1
EndSplineSet
EndChar
StartChar: Apos
Encoding: 19 39 16
GlifName: A_pos
Width: 512
VWidth: 0
Flags: W
LayerCount: 2
Fore
SplineSet
309 834 m 257
 352 1459 l 257
 309 1480 l 257
 281 1474 190 1443 160 1426 c 257
 213 813 l 257
 244 813 289 823 309 834 c 257
EndSplineSet
Validated: 9
EndChar
StartChar: LftParen
Encoding: 1264 40 1252
GlifName: L_ftP_aren
Width: 649
VWidth: 0
Flags: W
LayerCount: 2
Fore
SplineSet
578 -315 m 257
 610 -270 l 257
 406 -102 291 262 291 651 c 256
 291 1079 436 1410 610 1555 c 257
 578 1600 l 257
 303 1457 121 1061 121 623 c 256
 121 199 276 -176 578 -315 c 257
EndSplineSet
Validated: 9
EndChar
StartChar: RtParen
Encoding: 4020 41 3999
GlifName: R_tP_aren
Width: 649
VWidth: 0
Flags: W
LayerCount: 2
Fore
SplineSet
530 664 m 257
 530 1087 373 1463 72 1600 c 257
 41 1555 l 257
 246 1390 360 1022 360 635 c 256
 360 207 213 -125 41 -270 c 257
 72 -315 l 257
 346 -172 530 225 530 664 c 257
  PathStart: -1
EndSplineSet
Validated: 9
EndChar
StartChar: Asterisk
Encoding: 20 42 17
GlifName: A_sterisk
Width: 915
VWidth: 0
Flags: W
LayerCount: 2
Fore
SplineSet
489 1188 m 257
 530 1540 l 257
 494 1561 l 257
 465 1554 416 1528 387 1513 c 257
 426 1187 l 257
 141 1399 l 257
 106 1376 l 257
 96 1350 96 1294 94 1262 c 257
 396 1133 l 257
 70 993 l 257
 72 950 l 257
 90 930 137 901 166 883 c 257
 427 1079 l 257
 385 727 l 257
 424 709 l 257
 453 715 500 739 528 756 c 257
 490 1079 l 257
 772 868 l 257
 809 891 l 257
 819 920 819 973 821 1006 c 257
 520 1135 l 257
 846 1276 l 257
 844 1317 l 257
 823 1339 778 1366 750 1384 c 257
 489 1188 l 257
EndSplineSet
Validated: 9
EndChar
StartChar: PlusSgn
Encoding: 3968 43 3948
GlifName: P_lusS_gn
Width: 840
VWidth: 0
Flags: W
LayerCount: 2
Fore
SplineSet
778 593 m 257
 754 617 l 257
 92 617 l 257
 80 591 68 558 61 531 c 257
 86 507 l 257
 748 507 l 257
 758 529 772 566 778 593 c 257
  PathStart: -1
477 236 m 257
 477 897 l 257
 453 920 l 257
 424 913 387 899 362 891 c 257
 362 227 l 257
 387 205 l 257
 416 211 451 223 477 236 c 257
  PathStart: -1
EndSplineSet
EndChar
StartChar: Comma
Encoding: 240 44 236
GlifName: C_omma
Width: 469
VWidth: 0
Flags: W
LayerCount: 2
Fore
SplineSet
390 70 m 257
 390 145 373 199 309 229 c 257
 262 231 111 170 88 139 c 257
 104 92 l 257
 190 98 226 59 226 0 c 256
 226 -115 195 -184 121 -270 c 257
 166 -305 l 257
 305 -201 390 -35 390 70 c 257
  PathStart: -1
EndSplineSet
Validated: 41
EndChar
StartChar: HyphenMinus
Encoding: 1230 45 1225
GlifName: H_yphenM_inus
Width: 690
VWidth: 0
Flags: W
AnchorPoint: "U" 345 1050 basechar 0
LayerCount: 2
Fore
SplineSet
629 546 m 257
 604 570 l 257
 92 570 l 257
 80 544 68 508 61 479 c 257
 86 455 l 257
 598 455 l 257
 608 477 621 517 629 546 c 257
  PathStart: -1
EndSplineSet
Guideline: "" "" 348 513 0 0 0
EndChar
StartChar: FullStop
Encoding: 771 46 767
GlifName: F_ullS_top
Width: 469
VWidth: 0
Flags: W
LayerCount: 2
Fore
SplineSet
369 123 m 257
 369 195 336 236 270 236 c 256
 195 236 131 162 131 72 c 256
 131 0 160 -40 231 -40 c 256
 309 -40 369 31 369 123 c 257
  PathStart: -1
EndSplineSet
EndChar
StartChar: Solidus
Encoding: 4062 47 4038
GlifName: S_olidus
Width: 961
VWidth: 0
Flags: W
LayerCount: 2
Fore
SplineSet
211 -284 m 257
 909 1578 l 257
 872 1600 l 257
 834 1590 786 1574 750 1551 c 257
 49 -310 l 257
 86 -335 l 257
 119 -325 184 -302 211 -284 c 257
EndSplineSet
EndChar
StartChar: DigitZero
Encoding: 716 48 712
GlifName: D_igitZ_ero
Width: 961
VWidth: 0
Flags: W
AnchorPoint: "L" 480 -100 basechar 0
AnchorPoint: "U" 480 1370 basechar 0
LayerCount: 2
Fore
SplineSet
885 602 m 257
 885 950 754 1235 500 1235 c 256
 248 1235 76 946 76 602 c 256
 76 258 207 -30 461 -30 c 256
 715 -30 885 258 885 602 c 257
  PathStart: -1
721 565 m 257
 721 227 639 85 500 85 c 256
 352 85 240 279 240 645 c 256
 240 979 324 1120 461 1120 c 256
 596 1120 721 930 721 565 c 257
  PathStart: -1
EndSplineSet
Validated: 9
EndChar
StartChar: DigitOne
Encoding: 706 49 702
GlifName: D_igitO_ne
Width: 961
VWidth: 0
Flags: W
AnchorPoint: "L" 480 -100 basechar 0
AnchorPoint: "U" 480 1370 basechar 0
LayerCount: 2
Fore
SplineSet
170 0 m 257
 840 0 l 257
 840 53 l 257
 639 78 590 117 590 143 c 258
 590 1210 l 257
 553 1245 l 257
 465 1196 250 1106 139 1075 c 257
 160 1024 l 257
 336 1061 406 1055 422 1038 c 256
 438 1020 440 993 440 940 c 258
 440 143 l 258
 440 115 379 78 170 53 c 257
 170 0 l 257
EndSplineSet
EndChar
StartChar: DigitTwo
Encoding: 714 50 710
GlifName: D_igitT_wo
Width: 961
VWidth: 0
Flags: W
AnchorPoint: "L" 480 -100 basechar 0
AnchorPoint: "U" 480 1370 basechar 0
LayerCount: 2
Fore
SplineSet
821 0 m 257
 836 287 l 257
 786 299 l 257
 786 299 774 121 684 121 c 258
 266 121 l 257
 676 602 823 774 823 952 c 256
 823 1147 696 1235 535 1235 c 256
 330 1235 125 1053 125 915 c 257
 152 885 l 257
 213 891 235 909 280 934 c 257
 280 1028 358 1145 467 1145 c 256
 612 1145 668 1047 668 924 c 256
 668 772 573 625 98 74 c 257
 127 0 l 257
 821 0 l 257
EndSplineSet
EndChar
StartChar: DigitThree
Encoding: 712 51 708
GlifName: D_igitT_hree
Width: 961
VWidth: 0
Flags: W
AnchorPoint: "L" 480 -100 basechar 0
AnchorPoint: "U" 480 1370 basechar 0
LayerCount: 2
Fore
SplineSet
825 381 m 257
 825 543 707 680 555 698 c 257
 686 756 768 858 768 958 c 256
 768 1094 682 1235 483 1235 c 256
 281 1235 104 1077 104 965 c 257
 131 934 l 257
 188 938 225 950 270 973 c 257
 254 1063 319 1144 426 1144 c 256
 553 1144 608 1032 608 940 c 256
 608 858 573 743 328 676 c 257
 342 616 l 257
 383 623 373 623 410 623 c 256
 528 623 665 549 665 348 c 256
 665 178 555 70 393 70 c 256
 293 70 223 96 102 186 c 257
 68 119 l 257
 188 4 301 -30 406 -30 c 256
 680 -30 825 156 825 381 c 257
  PathStart: -1
EndSplineSet
EndChar
StartChar: DigitFour
Encoding: 702 52 698
GlifName: D_igitF_our
Width: 961
VWidth: 0
Flags: W
AnchorPoint: "L" 480 -100 basechar 0
AnchorPoint: "U" 480 1370 basechar 0
LayerCount: 2
Fore
SplineSet
874 430 m 257
 848 460 l 257
 725 460 l 257
 725 1210 l 257
 688 1245 l 257
 649 1225 606 1198 551 1174 c 257
 55 383 l 257
 88 350 l 257
 585 350 l 257
 585 115 l 258
 585 92 549 72 375 43 c 257
 375 0 l 257
 864 0 l 257
 864 43 l 257
 754 68 725 84 725 104 c 258
 725 350 l 257
 795 350 l 257
 825 373 846 387 874 430 c 257
  PathStart: -1
585 1040 m 257
 585 460 l 257
 213 460 l 257
 585 1040 l 257
EndSplineSet
EndChar
StartChar: DigitFive
Encoding: 700 53 696
GlifName: D_igitF_ive
Width: 961
VWidth: 0
Flags: W
AnchorPoint: "L" 480 -100 basechar 0
AnchorPoint: "U" 480 1370 basechar 0
LayerCount: 2
Fore
SplineSet
836 410 m 257
 836 606 705 780 463 780 c 256
 395 780 317 770 264 754 c 257
 276 813 303 997 307 1075 c 257
 694 1075 l 257
 725 1098 776 1151 805 1194 c 257
 776 1223 l 257
 776 1223 731 1205 655 1205 c 258
 219 1205 l 257
 211 1064 162 768 137 623 c 257
 184 590 l 257
 254 643 346 670 403 670 c 256
 590 670 676 549 676 367 c 256
 676 215 592 70 418 70 c 256
 342 70 254 88 113 186 c 257
 78 119 l 257
 193 12 317 -30 440 -30 c 256
 692 -30 836 178 836 410 c 257
  PathStart: -1
EndSplineSet
EndChar
StartChar: DigitSix
Encoding: 710 54 706
GlifName: D_igitS_ix
Width: 961
VWidth: 0
Flags: W
AnchorPoint: "L" 480 -100 basechar 0
AnchorPoint: "U" 480 1370 basechar 0
LayerCount: 2
Fore
SplineSet
881 412 m 257
 881 631 756 770 541 770 c 256
 467 770 330 729 225 588 c 257
 238 492 l 257
 317 614 422 660 500 660 c 256
 598 660 731 598 731 348 c 256
 731 225 688 75 545 75 c 256
 379 75 270 221 270 537 c 256
 270 811 442 1106 807 1190 c 257
 788 1249 l 257
 324 1182 110 850 110 473 c 256
 110 172 287 -30 506 -30 c 256
 752 -30 881 225 881 412 c 257
  PathStart: -1
EndSplineSet
Validated: 5
EndChar
StartChar: DigitSeven
Encoding: 708 55 704
GlifName: D_igitS_even
Width: 961
VWidth: 0
Flags: W
AnchorPoint: "L" 480 -100 basechar 0
AnchorPoint: "U" 480 1370 basechar 0
LayerCount: 2
Fore
SplineSet
885 1167 m 257
 852 1205 l 257
 147 1205 l 257
 131 1146 113 1010 104 948 c 257
 150 930 l 257
 207 1085 240 1075 279 1075 c 258
 733 1075 l 257
 586 735 461 411 229 3 c 257
 270 -30 l 257
 336 -13 385 11 432 44 c 257
 502 257 700 737 885 1167 c 257
  PathStart: -1
EndSplineSet
EndChar
StartChar: DigitEight
Encoding: 698 56 694
GlifName: D_igitE_ight
Width: 961
VWidth: 0
Flags: W
AnchorPoint: "L" 480 -100 basechar 0
AnchorPoint: "U" 480 1370 basechar 0
LayerCount: 2
Fore
SplineSet
867 352 m 257
 867 760 275 694 275 950 c 256
 275 1040 332 1141 451 1141 c 256
 582 1141 667 1077 667 938 c 256
 667 862 625 784 510 709 c 257
 580 666 l 257
 715 756 817 848 817 969 c 256
 817 1124 702 1235 502 1235 c 256
 301 1235 145 1100 145 915 c 256
 145 559 707 670 707 309 c 256
 707 193 647 70 500 70 c 256
 348 70 254 176 254 315 c 256
 254 438 309 520 440 614 c 257
 369 651 l 257
 203 561 94 434 94 285 c 256
 94 121 223 -30 451 -30 c 256
 678 -30 867 145 867 352 c 257
  PathStart: -1
EndSplineSet
Validated: 5
EndChar
StartChar: DigitNine
Encoding: 704 57 700
GlifName: D_igitN_ine
Width: 961
VWidth: 0
Flags: W
AnchorPoint: "L" 480 -100 basechar 0
AnchorPoint: "U" 480 1370 basechar 0
LayerCount: 2
Fore
SplineSet
870 731 m 257
 870 1085 692 1235 506 1235 c 256
 270 1235 100 997 100 795 c 256
 100 596 225 445 438 445 c 256
 555 445 692 530 756 649 c 257
 743 754 l 257
 692 641 594 555 481 555 c 256
 383 555 250 610 250 856 c 256
 250 1014 328 1130 465 1130 c 256
 575 1130 710 1024 710 670 c 256
 710 354 567 115 172 16 c 257
 190 -43 l 257
 655 25 870 326 870 731 c 257
  PathStart: -1
EndSplineSet
Validated: 5
EndChar
StartChar: LTSgn
Encoding: 1251 60 1239
GlifName: L_T_S_gn
Width: 899
VWidth: 0
Flags: W
LayerCount: 2
Fore
SplineSet
838 874 m 257
 813 899 l 257
 92 629 l 257
 80 602 68 557 61 530 c 257
 86 506 l 257
 809 774 l 257
 817 799 831 846 838 874 c 257
  PathStart: -1
838 322 m 257
 821 358 l 257
 92 629 l 257
 80 602 68 557 61 530 c 257
 86 506 l 257
 754 256 l 257
 795 281 809 295 838 322 c 257
  PathStart: -1
EndSplineSet
EndChar
StartChar: EqSgn
Encoding: 755 61 751
GlifName: E_qS_gn
Width: 899
VWidth: 0
Flags: W
LayerCount: 2
Fore
SplineSet
838 740 m 257
 813 765 l 257
 92 765 l 257
 80 740 68 707 61 680 c 257
 86 655 l 257
 809 655 l 257
 817 678 831 714 838 740 c 257
  PathStart: -1
838 440 m 257
 813 465 l 257
 92 465 l 257
 80 438 68 409 61 382 c 257
 86 355 l 257
 809 355 l 257
 817 380 831 412 838 440 c 257
  PathStart: -1
EndSplineSet
Validated: 9
EndChar
StartChar: GTSgn
Encoding: 774 62 769
GlifName: G_T_S_gn
Width: 899
VWidth: 0
Flags: W
LayerCount: 2
Fore
SplineSet
838 625 m 257
 815 649 l 257
 145 899 l 257
 121 879 92 858 61 834 c 257
 78 795 l 257
 643 585 l 257
 92 379 l 257
 82 356 70 307 61 281 c 257
 86 256 l 257
 807 524 l 257
 819 554 832 600 838 625 c 257
EndSplineSet
Validated: 9
EndChar
StartChar: QstnMrk
Encoding: 3973 63 3952
GlifName: Q_stnM_rk
Width: 887
VWidth: 0
Flags: W
LayerCount: 2
Fore
SplineSet
806 1165 m 257
 806 1352 698 1480 502 1480 c 256
 279 1480 80 1341 80 1153 c 256
 80 1143 80 1130 82 1120 c 257
 109 1090 l 257
 168 1096 213 1106 256 1128 c 257
 250 1147 244 1167 244 1186 c 256
 244 1290 328 1384 424 1384 c 256
 563 1384 642 1284 642 1120 c 256
 642 930 342 715 354 485 c 257
 362 369 l 257
 387 348 l 257
 424 358 438 371 463 389 c 257
 469 485 l 258
 489 768 806 864 806 1165 c 257
  PathStart: -1
539 123 m 257
 539 195 506 236 440 236 c 256
 365 236 301 162 301 72 c 256
 301 0 330 -40 401 -40 c 256
 479 -40 539 31 539 123 c 257
  PathStart: -1
EndSplineSet
EndChar
StartChar: AtSgn
Encoding: 21 64 18
GlifName: A_tS_gn
Width: 1653
VWidth: 0
Flags: W
LayerCount: 2
Fore
SplineSet
1583 549 m 257
 1583 1061 1321 1333 924 1333 c 256
 455 1333 70 918 70 465 c 256
 70 -47 395 -375 854 -375 c 256
 1141 -375 1354 -238 1450 -137 c 257
 1423 -82 l 257
 1343 -150 1128 -255 903 -255 c 256
 541 -255 220 41 220 524 c 256
 220 885 477 1213 885 1213 c 256
 1223 1213 1463 961 1463 512 c 256
 1463 287 1339 109 1272 109 c 256
 1208 109 1164 166 1164 285 c 258
 1164 723 l 258
 1164 834 1194 930 1194 930 c 257
 1163 960 l 257
 1126 919 1090 889 1055 868 c 257
 985 946 950 960 889 960 c 256
 629 960 460 674 460 444 c 256
 460 147 618 -30 754 -30 c 256
 860 -30 911 10 1020 162 c 257
 1038 23 1092 -30 1157 -30 c 256
 1327 -30 1583 203 1583 549 c 257
  PathStart: -1
1014 731 m 257
 1014 250 l 257
 913 131 877 100 825 100 c 256
 731 100 610 248 610 475 c 256
 610 725 711 850 858 850 c 256
 938 850 977 805 1014 731 c 257
EndSplineSet
Validated: 9
EndChar
StartChar: LtnCapA
Encoding: 1306 65 1290
GlifName: L_tnC_apA_
Width: 1219
VWidth: 0
Flags: W
AnchorPoint: "H" 599 0 basechar 0
AnchorPoint: "L" 599 -100 basechar 0
AnchorPoint: "O" 960 0 basechar 0
AnchorPoint: "U" 599 1370 basechar 0
LayerCount: 2
Fore
SplineSet
381 445 m 257
 789 445 l 257
 903 111 l 258
 918 67 879 49 776 43 c 257
 776 0 l 257
 1198 0 l 257
 1198 43 l 257
 1112 53 1080 74 1067 111 c 258
 647 1317 l 257
 612 1298 561 1270 530 1237 c 257
 158 111 l 258
 145 71 90 59 0 43 c 257
 0 0 l 257
 416 0 l 257
 416 43 l 257
 307 55 257 70 270 111 c 258
 381 445 l 257
758 535 m 257
 411 535 l 257
 582 1049 l 257
 758 535 l 257
EndSplineSet
Validated: 41
EndChar
StartChar: LtnCapC
Encoding: 1370 67 1354
GlifName: L_tnC_apC_
Width: 1098
VWidth: 0
Flags: W
AnchorPoint: "H" 584 0 basechar 0
AnchorPoint: "L" 614 -100 basechar 0
AnchorPoint: "U" 614 1370 basechar 0
LayerCount: 2
Fore
SplineSet
1018 211 m 261
 1014 221 995 250 981 256 c 261
 834 133 715 90 643 90 c 260
 453 90 225 268 225 623 c 260
 225 1038 455 1180 592 1180 c 260
 713 1180 807 1135 874 1073 c 261
 909 1067 l 261
 940 1098 1014 1178 999 1190 c 260
 930 1245 819 1290 676 1290 c 260
 348 1290 70 1012 70 586 c 260
 70 199 324 -30 571 -30 c 260
 709 -30 848 29 1018 211 c 261
  PathStart: -1
EndSplineSet
EndChar
StartChar: LtnCapD
Encoding: 1385 68 1369
GlifName: L_tnC_apD_
Width: 1214
VWidth: 0
Flags: W
AnchorPoint: "L" 550 -100 basechar 0
AnchorPoint: "U" 550 1370 basechar 0
LayerCount: 2
Fore
SplineSet
50 0 m 257
 82 0 l 258
 274 0 345 0 500 0 c 258
 559 0 l 258
 795 0 1123 176 1123 676 c 256
 1123 1063 889 1290 518 1290 c 256
 360 1290 158 1263 41 1230 c 257
 50 1168 l 257
 94 1175 143 1182 195 1189 c 257
 195 104 l 258
 195 86 140 61 50 43 c 257
 50 0 l 257
537 84 m 256
 451 84 355 93 355 154 c 258
 355 1203 l 257
 387 1205 420 1206 453 1206 c 256
 774 1206 953 991 953 637 c 256
 953 262 721 84 537 84 c 256
EndSplineSet
Validated: 9
EndChar
StartChar: LtnCapE
Encoding: 1408 69 1392
GlifName: L_tnC_apE_
Width: 1016
VWidth: 0
Flags: W
AnchorPoint: "H" 502 0 basechar 0
AnchorPoint: "L" 502 -100 basechar 0
AnchorPoint: "O" 750 0 basechar 0
AnchorPoint: "R" 1016 1100 basechar 0
AnchorPoint: "U" 502 1370 basechar 0
LayerCount: 2
Fore
SplineSet
889 1235 m 257
 856 1260 l 257
 332 1260 l 257
 303 1170 l 257
 721 1170 l 258
 770 1170 797 1133 803 1010 c 257
 848 1010 l 257
 864 1061 885 1167 889 1235 c 257
  PathStart: -1
786 707 m 257
 760 735 l 257
 311 735 l 257
 289 651 l 257
 496 651 l 258
 608 651 653 635 694 596 c 257
 723 617 764 670 786 707 c 257
  PathStart: -1
954 244 m 257
 911 262 l 257
 854 106 811 90 688 90 c 258
 559 90 l 258
 383 90 355 115 355 154 c 258
 355 1177 l 258
 355 1195 410 1208 500 1217 c 257
 500 1260 l 257
 50 1260 l 257
 50 1217 l 257
 146 1198 195 1171 195 1155 c 258
 195 104 l 258
 195 86 140 61 50 43 c 257
 50 0 l 257
 913 0 l 257
 924 39 944 129 954 244 c 257
  PathStart: -1
EndSplineSet
EndChar
StartChar: LtnCapF
Encoding: 1456 70 1440
GlifName: L_tnC_apF_
Width: 979
VWidth: 0
Flags: W
AnchorPoint: "L" 473 -100 basechar 0
AnchorPoint: "U" 473 1370 basechar 0
LayerCount: 2
Fore
SplineSet
897 1235 m 257
 866 1260 l 257
 332 1260 l 257
 303 1170 l 257
 729 1170 l 258
 780 1170 807 1133 811 1010 c 257
 858 1010 l 257
 874 1061 895 1167 897 1235 c 257
  PathStart: -1
758 707 m 257
 729 735 l 257
 283 735 l 257
 258 651 l 257
 467 651 l 258
 578 651 625 635 664 596 c 257
 692 617 733 670 758 707 c 257
  PathStart: -1
50 0 m 257
 530 0 l 257
 530 43 l 257
 399 68 355 88 355 104 c 258
 355 1177 l 258
 355 1195 430 1208 500 1217 c 257
 500 1260 l 257
 50 1260 l 257
 50 1217 l 257
 146 1198 195 1171 195 1155 c 258
 195 104 l 258
 195 86 140 61 50 43 c 257
 50 0 l 257
EndSplineSet
EndChar
StartChar: LtnCapG
Encoding: 1461 71 1445
GlifName: L_tnC_apG_
Width: 1194
VWidth: 0
Flags: W
AnchorPoint: "H" 620 0 basechar 0
AnchorPoint: "L" 640 -100 basechar 0
AnchorPoint: "U" 640 1370 basechar 0
LayerCount: 2
Fore
SplineSet
1145 567 m 257
 1145 610 l 257
 684 610 l 257
 684 567 l 257
 846 541 890 514 890 485 c 258
 890 98 l 258
 890 80 1040 154 1040 154 c 257
 1040 485 l 258
 1040 516 1069 549 1145 567 c 257
  PathStart: -1
1042 1188 m 257
 956 1253 825 1290 737 1290 c 256
 371 1290 70 1026 70 582 c 256
 70 170 350 -30 618 -30 c 256
 739 -30 842 -8 1040 154 c 257
 1032 164 973 186 956 195 c 257
 887 129 780 90 645 90 c 256
 442 90 225 266 225 637 c 256
 225 1053 498 1180 598 1180 c 256
 729 1180 825 1161 913 1077 c 257
 946 1071 l 257
 981 1102 1061 1174 1042 1188 c 257
  PathStart: -1
EndSplineSet
Validated: 37
EndChar
StartChar: LtnCapI
Encoding: 1492 73 1476
GlifName: L_tnC_apI_
Width: 610
VWidth: 0
Flags: W
AnchorPoint: "H" 295 0 basechar 0
AnchorPoint: "L" 295 -100 basechar 0
AnchorPoint: "O" 345 0 basechar 0
AnchorPoint: "R" 580 1100 basechar 0
AnchorPoint: "U" 295 1370 basechar 0
LayerCount: 2
Fore
SplineSet
70 0 m 257
 520 0 l 257
 520 43 l 257
 424 61 375 88 375 104 c 258
 375 1155 l 258
 375 1174 430 1198 520 1217 c 257
 520 1260 l 257
 70 1260 l 257
 70 1217 l 257
 166 1198 215 1171 215 1155 c 258
 215 104 l 258
 215 86 160 61 70 43 c 257
 70 0 l 257
EndSplineSet
EndChar
StartChar: LtnCapJ
Encoding: 1521 74 1505
GlifName: L_tnC_apJ_
Width: 625
VWidth: 0
Flags: W
AnchorPoint: "L" 330 -600 basechar 0
AnchorPoint: "U" 330 1370 basechar 0
LayerCount: 2
Fore
SplineSet
555 1217 m 261
 555 1260 l 261
 55 1260 l 261
 55 1217 l 261
 215 1194 250 1171 250 1155 c 262
 250 133 l 262
 250 -180 154 -257 84 -257 c 260
 33 -257 0 -249 -74 -200 c 261
 -111 -214 -190 -278 -190 -300 c 260
 -190 -323 -106 -380 -25 -380 c 260
 27 -380 140 -346 211 -288 c 260
 316 -203 410 -111 410 205 c 262
 410 1155 l 262
 410 1174 465 1198 555 1217 c 261
EndSplineSet
Validated: 9
EndChar
StartChar: LtnCapK
Encoding: 1528 75 1512
GlifName: L_tnC_apK_
Width: 1184
VWidth: 0
Flags: W
AnchorPoint: "H" 275 0 basechar 0
AnchorPoint: "L" 612 -100 basechar 0
AnchorPoint: "U" 590 1370 basechar 0
LayerCount: 2
Fore
SplineSet
1110 1217 m 257
 1110 1260 l 257
 690 1260 l 257
 690 1217 l 257
 795 1208 825 1200 764 1128 c 258
 352 643 l 257
 476 643 l 257
 940 1155 l 258
 981 1200 1024 1206 1110 1217 c 257
  PathStart: -1
1174 37 m 257
 1167 80 l 257
 1098 72 1032 74 985 127 c 258
 458 721 l 257
 352 643 l 257
 854 29 l 258
 881 -4 909 -14 948 -14 c 256
 1012 -14 1096 12 1174 37 c 257
  PathStart: -1
50 0 m 257
 500 0 l 257
 500 43 l 257
 403 61 355 88 355 104 c 258
 355 1155 l 258
 355 1174 410 1198 500 1217 c 257
 500 1260 l 257
 50 1260 l 257
 50 1217 l 257
 146 1198 195 1171 195 1155 c 258
 195 104 l 258
 195 86 140 61 50 43 c 257
 50 0 l 257
EndSplineSet
Validated: 37
EndChar
StartChar: LtnCapL
Encoding: 1541 76 1525
GlifName: L_tnC_apL_
Width: 975
VWidth: 0
Flags: W
AnchorPoint: "H" 497 0 basechar 0
AnchorPoint: "L" 497 -100 basechar 0
AnchorPoint: "R" 750 900 basechar 0
AnchorPoint: "U" 467 1370 basechar 0
LayerCount: 2
Fore
SplineSet
944 244 m 257
 901 262 l 257
 844 106 807 90 684 90 c 258
 541 90 l 258
 395 90 355 117 355 164 c 262
 355 1155 l 262
 355 1174 410 1198 500 1217 c 261
 500 1260 l 261
 50 1260 l 261
 50 1217 l 261
 146 1198 195 1171 195 1155 c 262
 195 104 l 262
 195 86 140 61 50 43 c 257
 50 0 l 257
 903 0 l 257
 913 39 934 129 944 244 c 257
  PathStart: -1
EndSplineSet
EndChar
StartChar: LtnCapM
Encoding: 1568 77 1552
GlifName: L_tnC_apM_
Width: 1651
VWidth: 0
Flags: W
AnchorPoint: "H" 1350 0 basechar 0
AnchorPoint: "L" 815 -100 basechar 0
AnchorPoint: "U" 815 1370 basechar 0
LayerCount: 2
Fore
SplineSet
1115 0 m 257
 1570 0 l 257
 1570 43 l 257
 1474 61 1425 88 1425 104 c 258
 1415 1214 l 257
 1260 1157 l 257
 1270 104 l 258
 1270 86 1205 61 1115 43 c 257
 1115 0 l 257
1550 1217 m 257
 1550 1260 l 257
 1264 1260 l 258
 1239 1260 1234 1256 1200 1176 c 258
 813 262 l 258
 795 219 788 168 819 0 c 257
 823 0 l 257
 1273 1068 l 258
 1302 1137 1460 1217 1550 1217 c 257
  PathStart: -1
823 264 m 258
 420 1176 l 258
 388 1248 382 1260 356 1260 c 258
 70 1260 l 257
 70 1217 l 257
 143 1217 265 1182 317 1061 c 258
 774 0 l 257
 819 0 l 257
 852 168 841 223 823 264 c 258
  PathStart: -1
60 0 m 257
 465 0 l 257
 465 43 l 257
 369 61 320 88 320 104 c 258
 331 1221 l 257
 215 1196 l 257
 205 104 l 258
 205 86 151 61 60 43 c 257
 60 0 l 257
EndSplineSet
Validated: 37
EndChar
StartChar: LtnCapN
Encoding: 1575 78 1559
GlifName: L_tnC_apN_
Width: 1329
VWidth: 0
Flags: W
AnchorPoint: "H" 1047 0 basechar 0
AnchorPoint: "L" 665 -100 basechar 0
AnchorPoint: "U" 665 1370 basechar 0
LayerCount: 2
Fore
SplineSet
1280 1217 m 261
 1280 1260 l 261
 870 1260 l 261
 870 1217 l 261
 977 1202 1015 1171 1015 1155 c 262
 1015 71 l 261
 1135 32 l 261
 1135 1155 l 262
 1135 1174 1184 1204 1280 1217 c 261
  PathStart: -1
1135 -30 m 261
 1135 120 l 261
 1135 120 1045 234 1017 273 c 262
 358 1182 l 262
 308 1251 301 1260 262 1260 c 262
 50 1260 l 261
 50 1217 l 261
 120 1206 183 1177 238 1100 c 262
 1016 21 l 262
 1032 -1 1069 -22 1135 -30 c 261
  PathStart: -1
50 0 m 261
 460 0 l 261
 460 43 l 261
 357 57 315 88 315 104 c 262
 315 1221 l 261
 195 1196 l 261
 195 104 l 262
 195 86 148 55 50 43 c 261
 50 0 l 261
EndSplineSet
EndChar
StartChar: LtnCapO
Encoding: 1595 79 1579
GlifName: L_tnC_apO_
Width: 1229
VWidth: 0
Flags: W
AnchorPoint: "H" 587 0 basechar 0
AnchorPoint: "L" 617 -100 basechar 0
AnchorPoint: "O" 678 0 basechar 0
AnchorPoint: "R" 1258 1100 basechar 0
AnchorPoint: "U" 617 1370 basechar 0
LayerCount: 2
Fore
SplineSet
577 -30 m 256
 881 -30 1140 285 1140 647 c 256
 1140 973 965 1290 635 1290 c 256
 321 1290 72 975 72 612 c 256
 72 276 256 -30 577 -30 c 256
606 90 m 256
 401 90 227 342 227 641 c 256
 227 967 369 1175 606 1175 c 256
 833 1175 985 905 985 629 c 256
 985 276 827 90 606 90 c 256
EndSplineSet
EndChar
StartChar: LtnCapP
Encoding: 1652 80 1636
GlifName: L_tnC_apP_
Width: 1071
VWidth: 0
Flags: W
AnchorPoint: "L" 511 -100 basechar 0
AnchorPoint: "U" 511 1370 basechar 0
LayerCount: 2
Fore
SplineSet
982 936 m 257
 982 1165 797 1290 510 1290 c 256
 348 1290 170 1265 41 1230 c 257
 50 1168 l 257
 179 1191 313 1206 453 1206 c 256
 659 1206 827 1114 827 895 c 256
 827 707 666 610 543 610 c 256
 496 610 444 615 389 640 c 257
 412 565 l 257
 457 545 512 535 573 535 c 256
 729 535 982 659 982 936 c 257
  PathStart: -1
50 0 m 257
 530 0 l 257
 530 43 l 257
 391 66 355 88 355 104 c 258
 355 1210 l 257
 195 1210 l 257
 195 104 l 258
 195 86 140 61 50 43 c 257
 50 0 l 257
EndSplineSet
EndChar
StartChar: LtnCapQ
Encoding: 1662 81 1646
GlifName: L_tnC_apQ_
Width: 1229
VWidth: 0
Flags: W
AnchorPoint: "L" 604 -260 basechar 0
AnchorPoint: "U" 604 1370 basechar 0
LayerCount: 2
Fore
SplineSet
1138 647 m 257
 1138 973 963 1290 633 1290 c 256
 319 1290 70 975 70 612 c 256
 70 260 281 -30 575 -30 c 256
 879 -30 1138 285 1138 647 c 257
  PathStart: -1
1282 -117 m 257
 1255 -82 l 257
 1176 -141 1141 -160 1108 -160 c 256
 985 -160 827 8 674 49 c 256
 639 59 500 20 500 20 c 257
 702 -16 895 -305 1102 -305 c 256
 1143 -305 1219 -233 1282 -117 c 257
  PathStart: -1
983 629 m 257
 983 276 825 90 604 90 c 256
 399 90 225 342 225 641 c 256
 225 967 367 1175 604 1175 c 256
 831 1175 983 905 983 629 c 257
  PathStart: -1
EndSplineSet
EndChar
StartChar: LtnCapR
Encoding: 1665 82 1649
GlifName: L_tnC_apR_
Width: 1149
VWidth: 0
Flags: W
AnchorPoint: "H" 275 0 basechar 0
AnchorPoint: "L" 520 -100 basechar 0
AnchorPoint: "U" 520 1370 basechar 0
LayerCount: 2
Fore
SplineSet
927 987 m 257
 927 1159 778 1290 469 1290 c 256
 293 1290 166 1261 41 1230 c 257
 50 1168 l 257
 187 1189 315 1206 432 1206 c 256
 670 1206 772 1102 772 956 c 256
 772 780 654 684 444 684 c 256
 410 684 384 686 337 694 c 257
 343 614 l 257
 384 604 424 600 461 600 c 256
 719 600 927 731 927 987 c 257
  PathStart: -1
1139 37 m 257
 1128 80 l 257
 1038 72 988 81 948 139 c 258
 613 678 l 257
 509 612 l 257
 817 41 l 258
 835 11 877 -14 915 -14 c 256
 967 -14 1051 8 1139 37 c 257
  PathStart: -1
50 0 m 257
 500 0 l 257
 500 43 l 257
 403 61 355 88 355 104 c 258
 355 1221 l 257
 195 1221 l 257
 195 104 l 258
 195 86 140 61 50 43 c 257
 50 0 l 257
EndSplineSet
Validated: 37
EndChar
StartChar: LtnCapS
Encoding: 1689 83 1673
GlifName: L_tnC_apS_
Width: 975
VWidth: 0
Flags: W
AnchorPoint: "H" 480 0 basechar 0
AnchorPoint: "L" 500 -100 basechar 0
AnchorPoint: "U" 500 1370 basechar 0
LayerCount: 2
Fore
SplineSet
745 1065 m 261
 778 1094 842 1182 823 1198 c 261
 774 1251 647 1290 526 1290 c 260
 233 1290 127 1092 127 967 c 260
 127 580 750 649 750 324 c 260
 750 197 616 90 496 90 c 260
 360 90 233 162 172 319 c 261
 131 324 l 261
 111 252 113 78 131 68 c 260
 225 8 352 -30 440 -30 c 260
 741 -30 885 199 885 377 c 260
 885 772 257 762 257 1014 c 260
 257 1090 319 1189 467 1189 c 260
 543 1189 635 1159 709 1071 c 261
 745 1065 l 261
EndSplineSet
EndChar
StartChar: LtnCapT
Encoding: 1719 84 1703
GlifName: L_tnC_apT_
Width: 1128
VWidth: 0
Flags: W
AnchorPoint: "H" 551 0 basechar 0
AnchorPoint: "L" 546 -100 basechar 0
AnchorPoint: "U" 546 1370 basechar 0
LayerCount: 2
Fore
SplineSet
1083 1235 m 257
 1053 1260 l 257
 547 1260 l 257
 518 1170 l 257
 915 1170 l 258
 972 1170 982 1124 1008 1000 c 257
 1053 1000 l 257
 1069 1084 1081 1167 1083 1235 c 257
  PathStart: -1
172 1170 m 258
 698 1170 l 257
 670 1260 l 257
 43 1260 l 257
 29 1190 16 1092 10 1014 c 257
 53 995 l 257
 113 1151 131 1170 172 1170 c 258
307 0 m 257
 795 0 l 257
 795 43 l 257
 672 68 631 98 631 115 c 258
 631 1177 l 258
 631 1195 684 1198 774 1217 c 257
 774 1260 l 257
 326 1260 l 257
 326 1217 l 257
 422 1198 471 1193 471 1177 c 258
 471 115 l 258
 471 96 430 68 307 43 c 257
 307 0 l 257
EndSplineSet
Validated: 5
EndChar
StartChar: LtnCapU
Encoding: 1748 85 1732
GlifName: L_tnC_apU_
Width: 1339
VWidth: 0
Flags: W
AnchorPoint: "H" 677 0 basechar 0
AnchorPoint: "L" 677 -100 basechar 0
AnchorPoint: "O" 760 0 basechar 0
AnchorPoint: "R" 1330 1100 basechar 0
AnchorPoint: "U" 677 1370 basechar 0
LayerCount: 2
Fore
SplineSet
1275 1217 m 257
 1275 1260 l 257
 855 1260 l 257
 855 1217 l 257
 951 1198 1000 1171 1000 1155 c 258
 1000 483 l 258
 1000 285 895 85 705 85 c 256
 477 85 355 238 355 494 c 258
 355 1155 l 258
 355 1174 410 1198 500 1217 c 257
 500 1260 l 257
 50 1260 l 257
 50 1217 l 257
 146 1198 195 1171 195 1155 c 258
 195 444 l 258
 195 119 391 -30 666 -30 c 256
 954 -30 1130 174 1130 524 c 258
 1130 1155 l 258
 1130 1174 1185 1198 1275 1217 c 257
  PathStart: -1
EndSplineSet
EndChar
StartChar: LtnCapV
Encoding: 1784 86 1768
GlifName: L_tnC_apV_
Width: 1331
VWidth: 0
Flags: W
AnchorPoint: "H" 648 0 basechar 0
AnchorPoint: "L" 655 -100 basechar 0
AnchorPoint: "O" 616 0 basechar 0
AnchorPoint: "U" 665 1370 basechar 0
LayerCount: 2
Fore
SplineSet
1290 1217 m 257
 1290 1260 l 257
 874 1260 l 257
 874 1217 l 257
 983 1204 1030 1190 1016 1151 c 258
 680 203 l 257
 327 1153 l 258
 313 1191 349 1209 455 1217 c 257
 455 1260 l 257
 20 1260 l 257
 20 1217 l 257
 104 1206 149 1186 162 1151 c 258
 602 -30 l 257
 637 -22 731 0 752 59 c 258
 1135 1151 l 257
 1148 1188 1200 1200 1290 1217 c 257
  PathStart: -1
EndSplineSet
EndChar
StartChar: LtnCapW
Encoding: 1795 87 1779
GlifName: L_tnC_apW_
Width: 1741
VWidth: 0
Flags: W
AnchorPoint: "L" 861 -100 basechar 0
AnchorPoint: "U" 861 1370 basechar 0
LayerCount: 2
Fore
SplineSet
1702 1217 m 257
 1702 1260 l 257
 1278 1260 l 257
 1278 1217 l 257
 1368 1202 1438 1186 1432 1155 c 257
 1245 250 l 257
 891 1260 l 257
 836 1260 l 257
 512 250 l 257
 313 1147 l 258
 307 1176 319 1204 449 1217 c 257
 449 1260 l 257
 20 1260 l 257
 20 1217 l 257
 115 1200 151 1180 158 1147 c 258
 418 -30 l 257
 472 -18 550 2 569 59 c 258
 856 944 l 257
 1182 -30 l 257
 1223 -21 1309 2 1321 59 c 258
 1550 1155 l 258
 1554 1176 1584 1193 1702 1217 c 257
  PathStart: -1
EndSplineSet
Validated: 41
EndChar
StartChar: LtnCapY
Encoding: 1810 89 1794
GlifName: L_tnC_apY_
Width: 1217
VWidth: 0
Flags: W
AnchorPoint: "L" 604 -100 basechar 0
AnchorPoint: "U" 604 1370 basechar 0
LayerCount: 2
Fore
SplineSet
1176 1217 m 257
 1176 1260 l 257
 780 1260 l 257
 780 1217 l 257
 883 1204 911 1186 891 1151 c 258
 623 680 l 257
 530 872 397 1102 297 1231 c 256
 276 1257 248 1270 219 1270 c 256
 164 1270 78 1260 0 1249 c 257
 4 1206 l 257
 115 1206 143 1180 168 1151 c 257
 268 1014 451 711 545 489 c 257
 655 489 l 257
 1020 1151 l 258
 1039 1185 1085 1200 1176 1217 c 257
  PathStart: -1
360 0 m 257
 850 0 l 257
 850 43 l 257
 725 68 684 98 684 115 c 258
 684 637 l 257
 524 637 l 257
 524 115 l 258
 524 96 481 68 360 43 c 257
 360 0 l 257
EndSplineSet
EndChar
StartChar: LtnCapZ
Encoding: 1827 90 1811
GlifName: L_tnC_apZ_
Width: 1071
VWidth: 0
Flags: W
AnchorPoint: "L" 535 -100 basechar 0
AnchorPoint: "U" 555 1370 basechar 0
LayerCount: 2
Fore
SplineSet
991 293 m 257
 936 307 l 257
 885 143 856 100 799 100 c 258
 276 100 l 257
 981 1217 l 257
 956 1260 l 257
 340 1260 l 258
 262 1260 223 1260 150 1276 c 257
 121 975 l 257
 178 963 l 257
 207 1102 268 1160 311 1160 c 258
 770 1160 l 257
 59 45 l 257
 88 0 l 257
 979 0 l 257
 981 78 987 207 991 293 c 257
  PathStart: -1
EndSplineSet
Validated: 9
EndChar
StartChar: LftSqrBrac
Encoding: 1271 91 1259
GlifName: L_ftS_qrB_rac
Width: 630
VWidth: 0
Flags: W
LayerCount: 2
Fore
SplineSet
590 -249 m 257
 555 -220 l 257
 280 -220 l 257
 280 1485 l 257
 561 1485 l 257
 569 1501 582 1541 588 1574 c 257
 555 1600 l 257
 140 1600 l 257
 140 -335 l 257
 561 -335 l 257
 571 -312 584 -275 590 -249 c 257
  PathStart: -1
EndSplineSet
EndChar
StartChar: ReverseSolidus
Encoding: 3983 92 3962
GlifName: R_everseS_olidus
Width: 961
VWidth: 0
Flags: W
LayerCount: 2
Fore
SplineSet
870 -335 m 257
 905 -310 l 257
 205 1551 l 257
 168 1574 131 1590 92 1600 c 257
 55 1578 l 257
 756 -284 l 257
 780 -302 838 -325 870 -335 c 257
EndSplineSet
Validated: 9
EndChar
StartChar: RtSqrBrac
Encoding: 4025 93 4004
GlifName: R_tS_qrB_rac
Width: 630
VWidth: 0
Flags: W
LayerCount: 2
Fore
SplineSet
75 -335 m 257
 490 -335 l 257
 490 1600 l 257
 67 1600 l 257
 58 1578 44 1540 40 1511 c 257
 75 1485 l 257
 350 1485 l 257
 350 -220 l 257
 67 -220 l 257
 58 -237 46 -275 42 -306 c 257
 75 -335 l 257
EndSplineSet
EndChar
StartChar: CircumAccent
Encoding: 39 94 36
GlifName: C_ircumA_ccent
Width: 1008
VWidth: 0
Flags: W
AnchorPoint: "U" 504 1690 basechar 0
LayerCount: 2
Fore
SplineSet
907 635 m 257
 555 1550 l 257
 518 1532 455 1493 422 1462 c 257
 100 592 l 257
 123 565 l 257
 150 578 203 608 231 635 c 257
 481 1315 l 257
 764 592 l 257
 801 565 l 257
 846 586 874 604 907 635 c 257
  PathStart: -1
EndSplineSet
EndChar
StartChar: LowLine
Encoding: 1296 95 1280
GlifName: L_owL_ine
Width: 802
VWidth: 0
Flags: W
LayerCount: 2
Fore
SplineSet
831 -156 m 257
 808 -131 l 257
 6 -131 l 257
 -6 -158 -18 -193 -25 -219 c 257
 0 -246 l 257
 802 -246 l 257
 813 -221 825 -184 831 -156 c 257
  PathStart: -1
EndSplineSet
EndChar
StartChar: GraveAccent
Encoding: 1222 96 1217
GlifName: G_raveA_ccent
Width: 653
VWidth: 0
Flags: W
AnchorPoint: "U" 327 1410 basechar 0
LayerCount: 2
Fore
SplineSet
438 1078 m 257
 198 1489 l 257
 165 1486 78 1471 52 1465 c 257
 30 1424 l 257
 382 1047 l 257
 405 1054 426 1068 438 1078 c 257
  PathStart: -1
EndSplineSet
Validated: 9
EndChar
StartChar: LtnSmB
Encoding: 2195 98 2179
GlifName: L_tnS_mB_
Width: 1040
VWidth: 0
Flags: W
AnchorPoint: "H" 479 0 basechar 0
AnchorPoint: "L" 479 -100 basechar 0
AnchorPoint: "R" 1068 900 basechar 0
AnchorPoint: "U" 520 1620 basechar 0
LayerCount: 2
Fore
SplineSet
950 492 m 257
 950 784 819 960 637 960 c 256
 561 960 423 887 290 727 c 257
 290 1516 l 257
 279 1527 266 1539 253 1550 c 257
 177 1509 97 1490 10 1470 c 257
 10 1430 l 257
 119 1417 140 1414 140 1296 c 258
 140 96 l 257
 284 16 418 -30 469 -30 c 256
 764 -30 950 260 950 492 c 257
  PathStart: -1
815 408 m 257
 815 254 729 100 567 100 c 256
 520 100 396 123 290 203 c 257
 290 610 l 257
 402 776 520 825 567 825 c 256
 696 825 815 674 815 408 c 257
  PathStart: -1
EndSplineSet
Validated: 9
EndChar
StartChar: LtnSmC
Encoding: 2226 99 2210
GlifName: L_tnS_mC_
Width: 895
VWidth: 0
Flags: W
AnchorPoint: "H" 490 0 basechar 0
AnchorPoint: "L" 490 -100 basechar 0
AnchorPoint: "R" 948 900 basechar 0
AnchorPoint: "U" 490 1050 basechar 0
LayerCount: 2
Fore
SplineSet
840 190 m 261
 801 231 l 261
 653 104 612 100 537 100 c 260
 377 100 230 248 230 475 c 260
 230 725 360 850 500 850 c 260
 637 850 709 774 731 727 c 261
 768 717 l 261
 793 754 831 848 825 881 c 261
 780 928 678 960 590 960 c 260
 303 960 80 731 80 444 c 260
 80 147 270 -30 465 -30 c 260
 590 -30 666 -14 840 190 c 261
  PathStart: -1
EndSplineSet
EndChar
StartChar: LtnSmD
Encoding: 2322 100 2306
GlifName: L_tnS_mD_
Width: 1065
VWidth: 0
Flags: W
AnchorPoint: "H" 558 0 basechar 0
AnchorPoint: "L" 525 -100 basechar 0
AnchorPoint: "R" 1065 900 basechar 0
AnchorPoint: "U" 525 1690 basechar 0
LayerCount: 2
Fore
SplineSet
1051 84 m 257
 1038 127 l 257
 958 96 929 91 918 106 c 256
 904 125 895 160 895 254 c 258
 895 1520 l 257
 864 1550 l 257
 795 1527 709 1499 600 1485 c 257
 600 1446 l 257
 741 1436 745 1421 745 1274 c 258
 745 272 l 258
 745 49 776 -30 829 -30 c 256
 866 -30 928 2 1051 84 c 257
  PathStart: -1
819 260 m 257
 813 270 799 289 782 297 c 257
 688 207 592 100 487 100 c 256
 377 100 230 248 230 475 c 256
 230 725 350 850 520 850 c 256
 621 850 711 801 752 717 c 257
 795 743 811 760 811 840 c 257
 707 944 631 960 551 960 c 256
 272 960 80 674 80 444 c 256
 80 147 268 -30 416 -30 c 256
 584 -30 684 84 819 260 c 257
  PathStart: -1
EndSplineSet
EndChar
StartChar: LtnSmE
Encoding: 2383 101 2367
GlifName: L_tnS_mE_
Width: 946
VWidth: 0
Flags: W
AnchorPoint: "H" 500 0 basechar 0
AnchorPoint: "L" 500 -100 basechar 0
AnchorPoint: "O" 558 0 basechar 0
AnchorPoint: "R" 1020 900 basechar 0
AnchorPoint: "U" 510 1050 basechar 0
LayerCount: 2
Fore
SplineSet
866 557 m 257
 866 727 786 960 524 960 c 256
 453 960 360 922 301 881 c 256
 162 786 80 614 80 434 c 256
 80 152 260 -30 465 -30 c 256
 602 -30 682 0 860 195 c 257
 854 205 840 227 823 236 c 257
 674 113 610 100 526 100 c 256
 342 100 230 287 230 497 c 256
 230 702 336 855 496 855 c 256
 670 855 702 688 702 616 c 256
 702 588 694 580 664 580 c 258
 184 580 l 257
 182 490 l 257
 756 490 l 257
 799 507 842 530 866 557 c 257
  PathStart: -1
EndSplineSet
Validated: 5
EndChar
StartChar: LtnSmF
Encoding: 2512 102 2496
GlifName: L_tnS_mF_
Width: 637
VWidth: 0
Flags: W
AnchorPoint: "H" 275 0 basechar 0
AnchorPoint: "L" 325 -100 basechar 0
AnchorPoint: "U" 420 1620 basechar 0
LayerCount: 2
Fore
SplineSet
817 1454 m 257
 817 1477 711 1550 629 1550 c 256
 578 1550 471 1516 399 1458 c 256
 293 1372 200 1276 200 961 c 258
 200 930 l 257
 123 930 l 257
 45 863 l 257
 66 835 l 257
 200 835 l 257
 200 102 l 258
 200 86 151 59 60 43 c 257
 60 0 l 257
 559 0 l 257
 559 43 l 257
 403 72 350 86 350 102 c 258
 350 835 l 257
 457 835 508 816 539 800 c 257
 563 812 612 864 637 901 c 257
 608 930 l 257
 350 930 l 257
 350 1016 l 258
 350 1346 451 1425 520 1425 c 256
 555 1425 627 1399 690 1343 c 257
 729 1362 817 1432 817 1454 c 257
  PathStart: -1
EndSplineSet
EndChar
StartChar: LtnSmG
Encoding: 2528 103 2512
GlifName: L_tnS_mG_
Width: 999
VWidth: 0
Flags: W
AnchorPoint: "H" 500 -470 basechar 0
AnchorPoint: "L" 500 -600 basechar 0
AnchorPoint: "R" 999 900 basechar 0
AnchorPoint: "U" 500 1050 basechar 0
LayerCount: 2
Fore
SplineSet
970 -120 m 256
 970 -26 893 78 602 110 c 257
 393 135 346 164 346 196 c 256
 346 207 384 270 504 350 c 257
 362 333 l 257
 207 233 182 177 182 153 c 256
 182 89 256 26 518 -4 c 256
 760 -31 820 -83 820 -157 c 256
 820 -295 702 -395 522 -395 c 256
 340 -395 180 -302 180 -190 c 256
 180 -145 199 -82 414 30 c 257
 408 57 334 61 334 61 c 257
 73 -73 30 -156 30 -229 c 256
 30 -423 281 -500 467 -500 c 256
 702 -500 970 -339 970 -120 c 256
  PathStart: -1
989 930 m 257
 969 960 l 257
 907 937 811 901 635 891 c 257
 682 814 l 257
 795 810 860 818 932 830 c 257
 963 863 973 893 989 930 c 257
  PathStart: -1
830 641 m 256
 830 814 680 960 485 960 c 256
 291 960 100 798 100 602 c 256
 100 416 242 295 434 295 c 256
 629 295 830 437 830 641 c 256
  PathStart: -1
690 600 m 256
 690 468 592 400 514 400 c 256
 326 400 240 517 240 659 c 256
 240 791 350 860 416 860 c 256
 596 860 690 742 690 600 c 256
  PathStart: -1
EndSplineSet
Validated: 37
EndChar
StartChar: LtnSmI
Encoding: 2624 105 2608
GlifName: L_tnS_mI_
Width: 555
VWidth: 0
Flags: W
AnchorPoint: "H" 285 0 basechar 0
AnchorPoint: "L" 285 -100 basechar 0
AnchorPoint: "O" 335 0 basechar 0
AnchorPoint: "R" 555 900 basechar 0
AnchorPoint: "U" 285 1050 basechar 0
LayerCount: 2
Fore
SplineSet
390 1261 m 260
 390 1323 362 1356 305 1356 c 260
 242 1356 190 1296 190 1220 c 260
 190 1159 215 1124 274 1124 c 260
 340 1124 390 1186 390 1261 c 260
  PathStart: -1
70 0 m 261
 500 0 l 261
 500 43 l 261
 403 61 360 88 360 104 c 262
 360 960 l 261
 326 960 l 261
 258 927 154 896 70 880 c 261
 70 840 l 261
 209 827 210 807 210 670 c 262
 210 104 l 262
 210 86 160 61 70 43 c 261
 70 0 l 261
EndSplineSet
EndChar
StartChar: LtnSmJ
Encoding: 2735 106 2719
GlifName: L_tnS_mJ_
Width: 530
VWidth: 0
Flags: W
AnchorPoint: "L" 280 -600 basechar 0
AnchorPoint: "U" 281 1050 basechar 0
LayerCount: 2
Fore
SplineSet
385 1261 m 256
 385 1323 357 1356 300 1356 c 256
 236 1356 185 1296 185 1220 c 256
 185 1159 210 1124 270 1124 c 256
 335 1124 385 1186 385 1261 c 256
  PathStart: -1
355 99 m 258
 355 960 l 257
 318 960 l 257
 236 925 176 900 65 880 c 257
 65 840 l 257
 204 825 205 807 205 670 c 258
 205 43 l 258
 205 -280 122 -365 45 -365 c 256
 -5 -365 -50 -357 -93 -320 c 257
 -132 -338 -220 -408 -220 -431 c 256
 -220 -453 -136 -500 -54 -500 c 256
 -3 -500 94 -457 165 -400 c 256
 272 -314 355 -208 355 99 c 258
EndSplineSet
Validated: 9
EndChar
StartChar: LtnSmK
Encoding: 2755 107 2739
GlifName: L_tnS_mK_
Width: 999
VWidth: 0
Flags: W
AnchorPoint: "H" 250 0 basechar 0
AnchorPoint: "L" 514 -100 basechar 0
AnchorPoint: "R" 999 900 basechar 0
AnchorPoint: "U" 514 1620 basechar 0
LayerCount: 2
Fore
SplineSet
964 887 m 257
 964 930 l 257
 585 930 l 257
 585 887 l 257
 655 887 716 876 628 799 c 258
 315 526 l 257
 392 496 l 257
 804 825 l 258
 860 870 905 881 964 887 c 257
  PathStart: -1
30 0 m 257
 430 0 l 257
 430 43 l 257
 331 74 320 84 320 104 c 258
 320 1516 l 257
 283 1550 l 257
 216 1511 122 1489 30 1470 c 257
 30 1430 l 257
 145 1417 170 1414 170 1296 c 258
 170 104 l 258
 170 80 118 66 30 43 c 257
 30 0 l 257
999 18 m 257
 993 61 l 257
 915 55 876 68 839 111 c 258
 421 602 l 257
 317 526 l 257
 700 43 l 258
 731 4 759 -10 815 -10 c 256
 843 -10 921 0 999 18 c 257
  PathStart: -1
EndSplineSet
EndChar
StartChar: LtnSmL
Encoding: 2783 108 2767
GlifName: L_tnS_mL_
Width: 555
VWidth: 0
Flags: W
HStem: -1 44<60 155.077 414.639 510> 1430 40<70 158.959>
VStem: 210 150<69.0107 104 1296 1411.61>
AnchorPoint: "H" 285 0 basechar 0
AnchorPoint: "L" 285 -100 basechar 0
AnchorPoint: "R" 535 900 basechar 0
AnchorPoint: "U" 285 1690 basechar 0
LayerCount: 2
Fore
SplineSet
60 -1 m 261
 510 -1 l 261
 510 43 l 261
 401 61 360 84 360 104 c 262
 360 1516 l 261
 324 1550 l 261
 242 1507 166 1489 70 1470 c 261
 70 1430 l 261
 182 1417 210 1413 210 1296 c 262
 210 104 l 262
 210 82 175 63 60 43 c 261
 60 -1 l 261
EndSplineSet
Validated: 9
EndChar
StartChar: LtnSmM
Encoding: 2859 109 2843
GlifName: L_tnS_mM_
Width: 1645
VWidth: 0
Flags: W
AnchorPoint: "H" 1400 0 basechar 0
AnchorPoint: "L" 835 -100 basechar 0
AnchorPoint: "U" 835 1050 basechar 0
LayerCount: 2
Fore
SplineSet
1186 0 m 257
 1616 0 l 257
 1616 43 l 257
 1511 70 1475 86 1475 104 c 258
 1475 741 l 258
 1475 891 1380 960 1253 960 c 256
 1155 960 1022 871 910 704 c 257
 910 725 l 258
 910 903 815 960 688 960 c 256
 592 960 460 873 341 696 c 257
 330 925 l 257
 295 960 l 257
 223 925 156 896 55 880 c 257
 55 840 l 257
 184 825 195 817 195 711 c 258
 195 104 l 258
 195 82 143 66 55 43 c 257
 55 0 l 257
 485 0 l 257
 485 43 l 257
 399 61 345 84 345 104 c 258
 345 573 l 257
 458 741 557 840 647 840 c 256
 729 840 760 797 760 633 c 258
 760 104 l 258
 760 86 717 68 621 43 c 257
 621 0 l 257
 1051 0 l 257
 1051 43 l 257
 946 70 910 86 910 104 c 258
 910 573 l 257
 1011 739 1124 840 1212 840 c 256
 1292 840 1325 797 1325 633 c 258
 1325 104 l 258
 1325 86 1282 68 1186 43 c 257
 1186 0 l 257
EndSplineSet
EndChar
StartChar: LtnSmO
Encoding: 2921 111 2905
GlifName: L_tnS_mO_
Width: 1030
VWidth: 0
Flags: W
AnchorPoint: "H" 535 0 basechar 0
AnchorPoint: "L" 535 -100 basechar 0
AnchorPoint: "O" 575 0 basechar 0
AnchorPoint: "R" 1044 900 basechar 0
AnchorPoint: "U" 535 1050 basechar 0
LayerCount: 2
Fore
SplineSet
950 485 m 260
 950 758 786 960 535 960 c 260
 285 960 80 709 80 444 c 260
 80 172 244 -30 496 -30 c 260
 739 -30 950 219 950 485 c 260
  PathStart: -1
795 455 m 260
 795 227 713 80 524 80 c 260
 401 80 235 262 235 473 c 260
 235 686 303 850 506 850 c 260
 643 850 795 666 795 455 c 260
  PathStart: -1
EndSplineSet
EndChar
StartChar: LtnSmP
Encoding: 3069 112 3053
GlifName: L_tnS_mP_
Width: 1085
VWidth: 0
Flags: W
AnchorPoint: "H" 268 -481 basechar 0
AnchorPoint: "L" 679 -100 basechar 0
AnchorPoint: "R" 1124 900 basechar 0
AnchorPoint: "U" 529 1050 basechar 0
LayerCount: 2
Fore
SplineSet
623 -30 m 256
 818 -30 1005 260 1005 492 c 256
 1005 784 872 960 690 960 c 256
 614 960 472 887 339 727 c 257
 330 925 l 257
 295 960 l 257
 217 923 147 900 55 880 c 257
 55 840 l 257
 182 834 195 811 195 711 c 258
 195 -375 l 258
 195 -398 143 -416 55 -437 c 257
 55 -480 l 257
 514 -480 l 257
 514 -437 l 257
 389 -418 345 -396 345 -375 c 258
 345 98 l 257
 439 16 545 -30 623 -30 c 256
623 835 m 256
 752 835 870 659 870 426 c 256
 870 213 764 100 621 100 c 256
 549 100 464 123 345 213 c 257
 345 610 l 257
 462 782 575 835 623 835 c 256
EndSplineSet
Validated: 9
EndChar
StartChar: LtnSmQ
Encoding: 3094 113 3078
GlifName: L_tnS_mQ_
Width: 1055
VWidth: 0
Flags: W
AnchorPoint: "L" 407 -100 basechar 0
AnchorPoint: "R" 1080 900 basechar 0
AnchorPoint: "U" 557 1050 basechar 0
LayerCount: 2
Fore
SplineSet
575 -480 m 257
 1034 -480 l 257
 1034 -437 l 257
 932 -418 895 -396 895 -375 c 258
 895 717 l 258
 895 838 926 930 926 930 c 257
 895 960 l 257
 862 927 788 862 745 848 c 257
 745 -375 l 258
 745 -398 700 -418 575 -437 c 257
 575 -480 l 257
819 260 m 257
 813 270 799 289 782 297 c 257
 688 207 592 100 487 100 c 256
 377 100 230 248 230 475 c 256
 230 725 371 850 520 850 c 256
 621 850 711 801 752 717 c 257
 795 743 811 760 811 840 c 257
 707 944 631 960 551 960 c 256
 500 960 420 936 344 895 c 256
 250 842 80 678 80 444 c 256
 80 147 268 -30 416 -30 c 256
 584 -30 684 84 819 260 c 257
  PathStart: -1
EndSplineSet
EndChar
StartChar: LtnSmR
Encoding: 3106 114 3090
GlifName: L_tnS_mR_
Width: 811
VWidth: 0
Flags: W
AnchorPoint: "H" 270 0 basechar 0
AnchorPoint: "L" 270 -100 basechar 0
AnchorPoint: "U" 450 1050 basechar 0
LayerCount: 2
Fore
SplineSet
770 923 m 256
 722 951 670 960 627 960 c 256
 512 960 415 846 343 698 c 257
 330 925 l 257
 295 960 l 257
 229 923 141 901 55 880 c 257
 55 840 l 257
 129 836 154 831 172 813 c 256
 184 801 195 774 195 686 c 258
 195 104 l 258
 195 82 143 63 55 43 c 257
 55 0 l 257
 514 0 l 257
 514 43 l 257
 389 61 345 84 345 104 c 258
 345 496 l 257
 409 723 514 820 573 820 c 256
 623 820 668 784 684 676 c 257
 727 676 l 257
 760 748 795 908 770 923 c 256
  PathStart: -1
EndSplineSet
Validated: 41
EndChar
StartChar: LtnSmT
Encoding: 3232 116 3216
GlifName: L_tnS_mT_
Width: 705
VWidth: 0
Flags: W
AnchorPoint: "H" 348 0 basechar 0
AnchorPoint: "L" 348 -100 basechar 0
AnchorPoint: "R" 500 900 basechar 0
AnchorPoint: "U" 348 1320 basechar 0
LayerCount: 2
Fore
SplineSet
676 117 m 257
 647 168 l 257
 543 115 475 100 428 100 c 256
 348 100 320 147 320 307 c 258
 320 835 l 257
 372 835 l 258
 480 835 543 816 575 800 c 257
 602 812 651 864 676 901 c 257
 647 930 l 257
 320 930 l 257
 320 1255 l 257
 289 1280 l 257
 170 1176 l 257
 170 930 l 257
 98 930 l 257
 20 863 l 257
 41 835 l 257
 170 835 l 257
 170 221 l 258
 170 35 252 -30 344 -30 c 256
 414 -30 545 20 676 117 c 257
  PathStart: -1
EndSplineSet
EndChar
StartChar: LtnSmU
Encoding: 3332 117 3316
GlifName: L_tnS_mU_
Width: 1085
VWidth: 0
Flags: W
AnchorPoint: "H" 546 0 basechar 0
AnchorPoint: "L" 545 -100 basechar 0
AnchorPoint: "O" 860 0 basechar 0
AnchorPoint: "R" 1084 900 basechar 0
AnchorPoint: "U" 545 1050 basechar 0
LayerCount: 2
Fore
SplineSet
1069 82 m 257
 1059 127 l 257
 991 98 953 93 938 104 c 256
 921 117 915 172 915 254 c 258
 915 921 l 257
 885 960 l 257
 811 935 721 906 625 894 c 257
 625 854 l 257
 748 848 765 831 765 711 c 258
 765 262 l 257
 648 137 559 90 473 90 c 256
 377 90 320 147 320 334 c 258
 320 921 l 257
 292 960 l 257
 204 925 137 906 41 894 c 257
 41 854 l 257
 164 842 170 838 170 711 c 258
 170 279 l 258
 170 29 284 -30 408 -30 c 256
 493 -30 599 0 765 166 c 257
 773 29 803 -30 850 -30 c 256
 883 -30 971 18 1069 82 c 257
  PathStart: -1
EndSplineSet
EndChar
StartChar: LtnSmV
Encoding: 3425 118 3409
GlifName: L_tnS_mV_
Width: 1010
VWidth: 0
Flags: W
AnchorPoint: "H" 499 0 basechar 0
AnchorPoint: "L" 516 -100 basechar 0
AnchorPoint: "O" 460 0 basechar 0
AnchorPoint: "U" 536 1050 basechar 0
LayerCount: 2
Fore
SplineSet
989 887 m 257
 989 930 l 257
 666 930 l 257
 666 887 l 257
 764 872 784 859 770 819 c 258
 539 178 l 261
 293 819 l 262
 276 862 303 874 406 887 c 261
 406 930 l 261
 20 930 l 261
 20 887 l 261
 86 872 117 854 131 819 c 262
 461 -30 l 261
 496 -22 574 -1 596 59 c 258
 879 819 l 258
 893 858 909 868 989 887 c 257
  PathStart: -1
EndSplineSet
Validated: 41
EndChar
StartChar: LtnSmW
Encoding: 3457 119 3441
GlifName: L_tnS_mW_
Width: 1446
VWidth: 0
Flags: W
AnchorPoint: "L" 730 -100 basechar 0
AnchorPoint: "U" 750 1050 basechar 0
LayerCount: 2
Fore
SplineSet
1425 887 m 257
 1425 930 l 257
 1100 930 l 257
 1100 887 l 257
 1192 872 1225 856 1217 825 c 258
 1044 190 l 257
 784 930 l 257
 768 930 721 930 721 930 c 257
 713 696 l 257
 967 -30 l 257
 1001 -22 1087 0 1104 59 c 258
 1325 825 l 258
 1333 856 1343 868 1425 887 c 257
  PathStart: -1
524 59 m 258
 791 825 l 257
 770 930 l 257
 770 930 733 930 715 930 c 257
 469 190 l 257
 281 825 l 258
 272 850 276 874 406 887 c 257
 406 930 l 257
 20 930 l 257
 20 887 l 257
 86 872 123 850 129 825 c 257
 391 -30 l 257
 426 -22 504 -2 524 59 c 258
EndSplineSet
EndChar
StartChar: LtnSmY
Encoding: 3490 121 3474
GlifName: L_tnS_mY_
Width: 1010
VWidth: 0
Flags: W
AnchorPoint: "L" 770 -100 basechar 0
AnchorPoint: "R" 1044 900 basechar 0
AnchorPoint: "U" 530 1050 basechar 0
LayerCount: 2
Fore
SplineSet
989 887 m 257
 989 930 l 257
 655 930 l 257
 655 887 l 257
 754 872 785 861 770 819 c 258
 539 182 l 257
 293 819 l 258
 276 863 303 874 406 887 c 257
 406 930 l 257
 20 930 l 257
 20 887 l 257
 86 872 117 856 131 819 c 258
 459 -23 l 257
 430 -92 l 258
 382 -207 299 -313 250 -330 c 256
 200 -347 133 -349 70 -312 c 257
 27 -338 -47 -431 -47 -447 c 256
 -47 -472 25 -500 127 -500 c 256
 260 -500 435 -378 545 -82 c 258
 879 820 l 258
 893 859 909 868 989 887 c 257
  PathStart: -1
EndSplineSet
EndChar
StartChar: LtnSmZ
Encoding: 3529 122 3513
GlifName: L_tnS_mZ_
Width: 869
VWidth: 0
Flags: W
AnchorPoint: "H" 452 0 basechar 0
AnchorPoint: "L" 452 -100 basechar 0
AnchorPoint: "U" 480 1050 basechar 0
LayerCount: 2
Fore
SplineSet
829 248 m 257
 782 258 l 257
 752 137 725 90 692 90 c 258
 270 90 l 257
 827 887 l 257
 805 930 l 257
 313 930 l 258
 227 930 195 930 137 946 c 257
 119 702 l 257
 168 690 l 257
 195 813 242 840 285 840 c 258
 631 840 l 257
 76 45 l 257
 102 0 l 257
 817 0 l 257
 825 47 829 164 829 248 c 257
  PathStart: -1
EndSplineSet
Validated: 9
EndChar
StartChar: LftCurlyBrac
Encoding: 1258 123 1246
GlifName: L_ftC_urlyB_rac
Width: 688
VWidth: 0
Flags: W
LayerCount: 2
Fore
SplineSet
649 1553 m 257
 623 1600 l 257
 424 1510 299 1375 299 1195 c 256
 299 1031 340 1025 340 863 c 256
 340 763 258 674 102 633 c 257
 119 580 l 257
 158 586 147 586 184 586 c 256
 283 586 340 530 340 422 c 256
 340 256 299 229 299 72 c 256
 299 -121 393 -225 616 -315 c 257
 639 -254 l 257
 498 -176 465 -104 465 43 c 256
 465 176 506 225 506 385 c 256
 506 532 459 629 326 653 c 257
 438 702 506 812 506 923 c 256
 506 1078 465 1097 465 1252 c 256
 465 1390 545 1488 649 1553 c 257
  PathStart: -1
EndSplineSet
Validated: 9
EndChar
StartChar: VertLine
Encoding: 4293 124 4253
GlifName: V_ertL_ine
Width: 500
VWidth: 0
Flags: W
LayerCount: 2
Fore
SplineSet
320 -448 m 257
 320 1648 l 257
 284 1670 l 257
 245 1660 217 1643 180 1621 c 257
 180 -477 l 257
 215 -500 l 257
 248 -489 296 -469 320 -448 c 257
  PathStart: -1
EndSplineSet
Validated: 9
EndChar
StartChar: RtCurlyBrac
Encoding: 4014 125 3993
GlifName: R_tC_urlyB_rac
Width: 688
VWidth: 0
Flags: W
LayerCount: 2
Fore
SplineSet
588 651 m 257
 571 707 l 257
 530 698 541 700 506 700 c 256
 406 700 350 757 350 865 c 256
 350 1029 389 1058 389 1215 c 256
 389 1406 297 1512 72 1600 c 257
 49 1539 l 257
 188 1463 223 1392 223 1242 c 256
 223 1111 184 1060 184 902 c 256
 184 753 229 657 365 631 c 257
 250 582 184 475 184 365 c 256
 184 207 223 190 223 35 c 256
 223 -104 143 -201 39 -266 c 257
 66 -315 l 257
 264 -225 389 -88 389 92 c 256
 389 256 350 260 350 422 c 256
 350 524 430 610 588 651 c 257
  PathStart: -1
EndSplineSet
Validated: 41
EndChar
StartChar: Tilde
Encoding: 4139 126 4115
GlifName: T_ilde
Width: 999
VWidth: 0
Flags: W
LayerCount: 2
Fore
SplineSet
950 774 m 257
 897 799 l 257
 842 690 784 639 721 639 c 256
 614 639 475 799 352 799 c 256
 225 799 106 633 49 502 c 257
 102 475 l 257
 158 586 211 637 276 637 c 256
 391 637 535 477 647 477 c 256
 774 477 895 643 950 774 c 257
  PathStart: -1
EndSplineSet
Validated: 9
EndChar
StartChar: InvExclamationMrk
Encoding: 1244 161 1234
GlifName: I_nvE_xclamationM_rk
Width: 557
VWidth: 0
Flags: W
LayerCount: 2
Fore
SplineSet
391 848 m 257
 391 920 362 961 293 961 c 256
 213 961 154 889 154 799 c 256
 154 725 186 684 254 684 c 256
 328 684 391 758 391 848 c 257
  PathStart: -1
371 -483 m 257
 322 551 l 257
 295 569 l 257
 260 559 246 551 219 530 c 257
 172 -543 l 257
 215 -565 l 257
 260 -549 319 -516 371 -483 c 257
  PathStart: -1
EndSplineSet
EndChar
StartChar: CentSgn
Encoding: 35 162 32
GlifName: C_entS_gn
Width: 961
VWidth: 0
Flags: W
LayerCount: 2
Fore
SplineSet
565 -8 m 257
 565 1223 l 257
 539 1245 l 257
 498 1235 512 1237 475 1214 c 257
 475 -16 l 257
 500 -41 l 257
 532 -31 541 -29 565 -8 c 257
  PathStart: -1
864 350 m 257
 825 391 l 257
 680 264 637 262 561 262 c 256
 401 262 256 387 256 616 c 256
 256 864 385 971 524 971 c 256
 662 971 733 895 758 848 c 257
 793 838 l 257
 817 872 856 969 850 999 c 257
 805 1049 702 1079 614 1079 c 256
 328 1079 104 870 104 586 c 256
 104 289 297 129 489 129 c 256
 614 129 690 145 864 350 c 257
  PathStart: -1
EndSplineSet
EndChar
StartChar: PoundSgn
Encoding: 3970 163 3949
GlifName: P_oundS_gn
Width: 961
VWidth: 0
Flags: W
LayerCount: 2
Fore
SplineSet
861 1165 m 261
 737 1228 684 1235 614 1235 c 260
 297 1235 166 986 197 578 c 260
 229 158 192 124 64 19 c 261
 87 -30 l 261
 283 95 678 -99 857 0 c 261
 867 39 888 139 898 254 c 261
 855 272 l 261
 798 116 752 104 629 101 c 260
 481 97 440 116 258 101 c 261
 335 207 392 388 368 595 c 260
 310 1091 432 1136 540 1136 c 260
 674 1136 756 1065 775 900 c 261
 822 900 l 261
 838 951 859 1097 861 1165 c 261
  PathStart: -1
615 536 m 261
 640 604 l 261
 615 627 l 261
 86 627 l 261
 78 606 70 581 64 561 c 261
 86 536 l 261
 615 536 l 261
EndSplineSet
EndChar
StartChar: CurrSgn
Encoding: 247 164 243
GlifName: C_urrS_gn
Width: 961
VWidth: 0
Flags: W
LayerCount: 2
Fore
SplineSet
363 721 m 257
 396 754 439 770 482 770 c 256
 525 770 567 754 600 721 c 256
 633 688 650 645 650 602 c 256
 650 559 633 516 601 483 c 256
 568 450 525 434 482 434 c 256
 439 434 396 450 362 484 c 256
 329 516 313 558 313 601 c 256
 313 644 330 688 363 721 c 257
  PathStart: -1
296 788 m 257
 244 736 218 668 218 600 c 256
 218 533 243 467 294 416 c 256
 346 364 414 339 482 339 c 256
 550 339 618 364 668 415 c 256
 719 466 745 533 745 600 c 256
 745 668 718 737 667 788 c 256
 615 840 549 866 482 866 c 256
 415 866 348 840 296 788 c 257
  PathStart: -1
371 427 m 257
 340 493 l 257
 306 491 l 257
 158 343 l 257
 167 322 179 299 189 281 c 257
 222 279 l 257
 371 427 l 257
300 718 m 257
 366 749 l 257
 364 783 l 257
 223 924 l 257
 202 915 179 903 161 893 c 257
 159 860 l 257
 300 718 l 257
738 280 m 257
 804 310 l 257
 803 344 l 257
 661 486 l 257
 641 477 617 465 599 455 c 257
 597 421 l 257
 738 280 l 257
802 858 m 257
 772 924 l 257
 738 923 l 257
 589 774 l 257
 598 754 610 730 620 712 c 257
 654 710 l 257
 802 858 l 257
EndSplineSet
EndChar
StartChar: YenSgn
Encoding: 4316 165 4275
GlifName: Y_enS_gn
Width: 961
VWidth: 0
Flags: W
LayerCount: 2
Fore
SplineSet
236 0 m 257
 726 0 l 257
 726 43 l 257
 601 68 560 98 560 115 c 258
 560 436 l 257
 831 436 l 257
 856 504 l 257
 831 527 l 257
 560 527 l 257
 560 578 l 257
 842 1095 l 258
 861 1130 907 1144 998 1161 c 257
 998 1204 l 257
 602 1204 l 257
 602 1161 l 257
 705 1148 733 1130 713 1095 c 258
 499 716 l 257
 406 908 330 1046 230 1175 c 256
 209 1201 181 1214 152 1214 c 256
 97 1214 11 1204 -67 1193 c 257
 -63 1150 l 257
 48 1150 77 1125 101 1095 c 256
 192 980 308 776 400 580 c 257
 400 527 l 257
 128 527 l 257
 120 506 112 481 106 461 c 257
 128 436 l 257
 400 436 l 257
 400 115 l 258
 400 96 357 68 236 43 c 257
 236 0 l 257
EndSplineSet
EndChar
StartChar: BrokenBar
Encoding: 26 166 23
GlifName: B_rokenB_ar
Width: 500
VWidth: 0
Flags: W
LayerCount: 2
Fore
SplineSet
320 737 m 257
 320 1648 l 257
 283 1670 l 257
 242 1660 219 1643 180 1621 c 257
 180 708 l 257
 217 686 l 257
 250 696 293 716 320 737 c 257
  PathStart: -1
320 -448 m 257
 320 452 l 257
 283 477 l 257
 242 464 219 448 180 425 c 257
 180 -477 l 257
 217 -500 l 257
 250 -489 293 -469 320 -448 c 257
  PathStart: -1
EndSplineSet
EndChar
StartChar: SectionSgn
Encoding: 9 167 9
GlifName: S_ectionS_gn
Width: 961
VWidth: 0
Flags: W
LayerCount: 2
Back
SplineSet
439 -30 m 256
 517 -30 783 -20 783 263 c 256
 783 412 654 470 538 529 c 257
 338 643 250 700 250 822 c 256
 250 877 289 981 368 950 c 257
 369 950 390 1042 394 1040 c 257
 291 1066 119 935 119 775 c 256
 119 605 228 516 405 419 c 256
 526 353 653 314 653 207 c 256
 653 113 585 68 489 68 c 256
 351 68 245 170 239 282 c 257
 196 293 l 257
 177 233 171 61 189 53 c 257
 278 4 376 -30 439 -30 c 256
632 369 m 257
 710 371 842 474 842 656 c 256
 842 839 716 907 538 1009 c 256
 392 1092 317 1147 317 1240 c 256
 317 1310 370 1350 458 1350 c 256
 523 1350 595 1306 658 1211 c 257
 697 1203 l 257
 714 1224 763 1338 747 1353 c 257
 693 1400 568 1440 484 1440 c 256
 333 1440 187 1366 187 1200 c 256
 187 1065 274 969 405 899 c 256
 613 787 711 717 711 594 c 256
 711 514 645 448 549 448 c 257
 632 369 l 257
EndSplineSet
Fore
SplineSet
439 -30 m 256
 517 -30 783 -20 783 263 c 256
 783 412 654 470 538 529 c 257
 338 643 250 700 250 822 c 256
 250 907 307 973 407 987 c 257
 358 1058 l 257
 229 1025 119 899 119 775 c 256
 119 605 228 516 405 419 c 256
 526 353 653 314 653 207 c 256
 653 113 585 68 489 68 c 256
 351 68 245 170 239 282 c 257
 196 293 l 257
 177 233 171 61 189 53 c 257
 278 4 376 -30 439 -30 c 256
632 369 m 257
 710 371 842 474 842 656 c 256
 842 839 716 907 538 1009 c 256
 392 1092 317 1147 317 1240 c 256
 317 1310 370 1350 458 1350 c 256
 523 1350 595 1306 658 1211 c 257
 697 1203 l 257
 714 1224 763 1338 747 1353 c 257
 693 1400 568 1440 484 1440 c 256
 333 1440 187 1366 187 1200 c 256
 187 1065 274 969 405 899 c 256
 613 787 711 717 711 594 c 256
 711 514 645 448 549 448 c 257
 632 369 l 257
EndSplineSet
EndChar
StartChar: Diaer
Encoding: 696 168 692
GlifName: D_iaer
Width: 801
VWidth: 0
Flags: W
AnchorPoint: "U" 400 1410 basechar 0
LayerCount: 2
Fore
SplineSet
300 1261 m 257
 300 1323 272 1356 215 1356 c 256
 152 1356 100 1296 100 1220 c 256
 100 1159 125 1124 184 1124 c 256
 250 1124 300 1186 300 1261 c 257
  PathStart: -1
700 1261 m 257
 700 1323 672 1356 615 1356 c 256
 552 1356 500 1296 500 1220 c 256
 500 1159 525 1124 584 1124 c 256
 650 1124 700 1186 700 1261 c 257
  PathStart: -1
EndSplineSet
EndChar
StartChar: CopyrightSgn
Encoding: 244 169 240
GlifName: C_opyrightS_gn
Width: 1460
VWidth: 0
Flags: W
LayerCount: 2
Fore
SplineSet
729 -30 m 256
 1094 -30 1360 266 1360 631 c 256
 1360 995 1094 1290 729 1290 c 256
 365 1290 100 995 100 631 c 256
 100 266 365 -30 729 -30 c 256
707 217 m 256
 803 217 899 254 1018 369 c 257
 991 397 l 257
 889 322 838 305 780 305 c 256
 668 305 489 414 489 627 c 256
 489 887 645 963 731 963 c 256
 813 963 870 924 918 887 c 257
 942 883 l 257
 965 901 1016 973 1006 981 c 257
 956 1016 881 1044 780 1044 c 256
 551 1044 358 870 358 602 c 256
 358 360 535 217 707 217 c 256
729 56 m 256
 414 56 186 313 186 631 c 256
 186 946 414 1204 729 1204 c 256
 1047 1204 1274 946 1274 631 c 256
 1274 313 1047 56 729 56 c 256
EndSplineSet
EndChar
StartChar: FemOrdIndicator
Encoding: 759 170 755
GlifName: F_emO_rdI_ndicator
Width: 524
VWidth: 0
Flags: W
LayerCount: 2
Fore
SplineSet
514 768 m 257
 508 793 l 257
 471 778 451 778 444 782 c 256
 436 791 430 805 430 842 c 258
 430 1038 l 258
 430 1186 395 1235 299 1235 c 256
 229 1235 78 1159 66 1075 c 257
 74 1055 l 257
 92 1051 182 1071 178 1083 c 256
 158 1139 213 1178 252 1178 c 256
 324 1178 338 1133 338 1051 c 258
 338 846 l 258
 338 752 367 711 391 711 c 256
 412 711 453 727 514 768 c 257
  PathStart: -1
295 981 m 257
 414 1012 l 257
 410 1053 l 257
 246 1010 l 258
 111 973 49 907 49 825 c 256
 49 741 113 711 166 711 c 256
 215 711 289 739 358 811 c 257
 352 852 l 257
 297 803 244 780 199 780 c 256
 180 780 147 793 147 848 c 256
 147 905 178 948 295 981 c 257
51 586 m 257
 485 586 l 257
 485 659 l 257
 51 659 l 257
 51 586 l 257
EndSplineSet
Validated: 37
EndChar
StartChar: LftPtngDblAngQuotMrk
Encoding: 1267 171 1255
GlifName: L_ftP_tngD_blA_ngQ_uotM_rk
Width: 994
VWidth: 0
Flags: W
LayerCount: 2
Fore
SplineSet
450 430 m 257
 811 17 l 257
 854 47 l 257
 623 467 l 257
 620 465 854 883 853 883 c 257
 811 913 l 257
 452 503 l 257
 450 500 450 430 450 430 c 257
80 430 m 257
 441 17 l 257
 484 47 l 257
 253 467 l 257
 250 465 484 883 483 883 c 257
 441 913 l 257
 82 503 l 257
 80 500 80 430 80 430 c 257
EndSplineSet
Validated: 37
EndChar
StartChar: NotSgn
Encoding: 3946 172 3928
GlifName: N_otS_gn
Width: 961
VWidth: 0
Flags: W
LayerCount: 2
Fore
SplineSet
891 233 m 257
 891 596 l 257
 862 618 l 257
 862 618 879 618 92 618 c 257
 80 592 68 557 61 530 c 257
 86 506 l 257
 780 506 l 257
 780 207 l 257
 805 182 l 257
 838 193 864 213 891 233 c 257
  PathStart: -1
EndSplineSet
Validated: 37
EndChar
StartChar: RegisteredSgn
Encoding: 3978 174 3957
GlifName: R_egisteredS_gn
Width: 730
VWidth: 0
Flags: W
LayerCount: 2
Fore
SplineSet
696 1084 m 257
 696 1275 556 1430 364 1430 c 256
 173 1430 35 1275 35 1084 c 256
 35 893 173 738 364 738 c 256
 556 738 696 893 696 1084 c 257
  PathStart: -1
637 1084 m 257
 637 925 523 797 364 797 c 256
 207 797 93 925 93 1084 c 256
 93 1242 207 1371 364 1371 c 256
 523 1371 637 1242 637 1084 c 257
  PathStart: -1
499 1196 m 257
 499 1250 447 1291 347 1291 c 256
 292 1291 251 1282 212 1273 c 257
 214 1244 l 257
 257 1250 299 1256 336 1256 c 256
 412 1256 438 1226 438 1187 c 256
 438 1136 407 1107 340 1107 c 256
 328 1107 319 1108 305 1111 c 257
 307 1075 l 257
 320 1072 333 1070 344 1070 c 256
 429 1070 499 1116 499 1196 c 257
  PathStart: -1
556 898 m 257
 554 919 l 257
 525 917 511 920 502 934 c 258
 384 1098 l 257
 341 1079 l 257
 451 899 l 258
 456 891 470 881 482 881 c 256
 497 881 529 890 556 898 c 257
  PathStart: -1
214 887 m 257
 356 887 l 257
 356 905 l 257
 326 911 313 919 313 924 c 258
 313 1269 l 257
 258 1269 l 257
 258 924 l 258
 258 918 242 911 214 905 c 257
 214 887 l 257
EndSplineSet
EndChar
StartChar: DegreeSgn
Encoding: 695 176 691
GlifName: D_egreeS_gn
Width: 733
VWidth: 0
Flags: W
LayerCount: 2
Fore
SplineSet
593 1045 m 257
 593 1147 508 1235 404 1235 c 256
 279 1235 140 1114 140 948 c 256
 140 845 219 759 329 759 c 256
 452 759 593 881 593 1045 c 257
  PathStart: -1
484 995 m 257
 484 903 419 851 355 851 c 256
 289 851 250 923 250 998 c 256
 250 1086 312 1142 378 1142 c 256
 443 1142 484 1073 484 995 c 257
  PathStart: -1
EndSplineSet
Validated: 9
EndChar
StartChar: PlusMinusSgn
Encoding: 3967 177 3947
GlifName: P_lusM_inusS_gn
Width: 840
VWidth: 0
Flags: W
LayerCount: 2
Fore
SplineSet
778 693 m 257
 754 717 l 257
 92 717 l 257
 80 691 68 658 61 631 c 257
 86 607 l 257
 748 607 l 257
 758 629 772 666 778 693 c 257
  PathStart: -1
477 341 m 257
 477 992 l 257
 453 1015 l 257
 424 1008 387 994 362 986 c 257
 362 332 l 257
 387 310 l 257
 416 316 451 328 477 341 c 257
  PathStart: -1
778 221 m 257
 754 245 l 257
 92 245 l 257
 80 219 68 186 61 159 c 257
 86 135 l 257
 748 135 l 257
 758 157 772 194 778 221 c 257
  PathStart: -1
EndSplineSet
EndChar
StartChar: SupTwo
Encoding: 4107 178 4083
GlifName: S_upT_wo
Width: 673
VWidth: 0
Flags: W
AnchorPoint: "L" 337 550 basechar 0
AnchorPoint: "U" 337 1410 basechar 0
LayerCount: 2
Fore
SplineSet
585 620 m 257
 595 792 l 257
 550 799 l 257
 550 799 542 703 479 703 c 258
 206 703 l 257
 493 991 585 1084 585 1191 c 256
 585 1308 497 1361 375 1361 c 256
 221 1361 78 1252 78 1169 c 257
 96 1151 l 257
 139 1155 175 1165 207 1180 c 257
 207 1237 256 1295 327 1295 c 256
 423 1295 458 1248 458 1174 c 256
 458 1083 391 995 59 664 c 257
 79 620 l 257
 585 620 l 257
EndSplineSet
EndChar
StartChar: SupThree
Encoding: 4106 179 4082
GlifName: S_upT_hree
Width: 673
VWidth: 0
Flags: W
AnchorPoint: "L" 337 550 basechar 0
AnchorPoint: "U" 337 1410 basechar 0
LayerCount: 2
Fore
SplineSet
587 849 m 257
 587 946 506 1028 399 1039 c 257
 490 1067 546 1135 546 1195 c 256
 546 1276 482 1361 338 1361 c 256
 192 1361 63 1266 63 1199 c 257
 82 1180 l 257
 122 1183 168 1190 199 1204 c 257
 188 1258 228 1295 298 1295 c 256
 383 1295 416 1239 416 1184 c 256
 416 1135 396 1071 230 1031 c 257
 239 985 l 257
 268 989 261 989 287 989 c 256
 365 989 456 949 456 829 c 256
 456 727 384 673 275 673 c 256
 205 673 146 688 61 742 c 257
 38 701 l 257
 122 632 211 602 294 602 c 256
 476 602 587 714 587 849 c 257
  PathStart: -1
EndSplineSet
EndChar
StartChar: AcuteAccent
Encoding: 15 180 12
GlifName: A_cuteA_ccent
Width: 653
VWidth: 0
Flags: W
AnchorPoint: "U" 327 1410 basechar 0
LayerCount: 2
Fore
SplineSet
274 1047 m 257
 619 1427 l 257
 596 1466 l 257
 566 1474 483 1487 451 1489 c 257
 217 1075 l 257
 233 1063 250 1052 274 1047 c 257
EndSplineSet
EndChar
StartChar: MicroSgn
Encoding: 3712 181 3696
GlifName: M_icroS_gn
Width: 1105
VWidth: 0
Flags: W
LayerCount: 2
Fore
SplineSet
1085 82 m 257
 1075 127 l 257
 1031 110 998 99 969 99 c 256
 941 99 930 144 930 268 c 256
 930 308 930 736 930 759 c 257
 932 842 941 887 946 921 c 257
 946 921 918 960 918 960 c 257
 864 938 800 916 742 900 c 257
 760 875 780 791 780 748 c 256
 780 716 780 245 780 216 c 256
 780 87 803 -31 863 -31 c 256
 908 -31 1005 32 1085 82 c 257
841 264 m 257
 826 353 l 257
 697 154 604 131 523 131 c 256
 411 131 340 274 340 366 c 256
 340 380 340 909 340 917 c 257
 329 931 303 960 302 960 c 257
 232 924 165 912 61 894 c 257
 61 854 l 257
 187 841 190 834 190 731 c 256
 190 719 190 462 190 442 c 256
 190 163 347 -31 490 -31 c 256
 582 -31 711 70 841 264 c 257
271 459 m 257
 263 512 190 615 190 615 c 257
 190 544 190 -442 190 -471 c 257
 229 -500 l 257
 261 -484 372 -442 411 -429 c 257
 341 -345 271 -180 273 116 c 257
 275 272 262 337 271 459 c 257
  PathStart: -1
EndSplineSet
Validated: 37
EndChar
StartChar: PilcrowSgn
Encoding: 3966 182 3946
GlifName: P_ilcrowS_gn
Width: 1135
VWidth: 0
Flags: W
LayerCount: 2
Fore
SplineSet
983 1260 m 257
 983 1260 625 1290 508 1290 c 256
 238 1290 49 1130 49 903 c 256
 49 653 256 526 504 526 c 256
 639 526 676 563 676 563 c 257
 668 618 l 257
 668 618 633 610 547 610 c 256
 313 610 215 793 215 938 c 256
 215 1087 330 1206 489 1206 c 256
 561 1206 698 1196 827 1147 c 257
 838 1137 983 1260 983 1260 c 257
  PathStart: -1
444 -250 m 257
 1055 -250 l 257
 1055 -207 l 257
 958 -188 909 -162 909 -145 c 258
 909 1155 l 258
 909 1174 965 1198 1055 1217 c 257
 1055 1260 l 257
 446 1260 l 257
 446 1217 l 257
 543 1198 592 1237 592 1221 c 258
 590 -145 l 258
 590 -164 535 -188 444 -207 c 257
 444 -250 l 257
791 1204 m 257
 791 -145 l 257
 791 -160 766 -172 750 -176 c 257
 737 -172 711 -160 711 -145 c 258
 711 1223 l 257
 791 1204 l 257
EndSplineSet
EndChar
StartChar: MiddleDot
Encoding: 3713 183 3697
GlifName: M_iddleD_ot
Width: 300
VWidth: 0
Flags: W
LayerCount: 2
Fore
SplineSet
250 721 m 257
 250 783 222 816 165 816 c 256
 102 816 50 756 50 680 c 256
 50 619 75 584 134 584 c 256
 200 584 250 646 250 721 c 257
  PathStart: -1
EndSplineSet
EndChar
StartChar: Cedilla
Encoding: 34 184 31
GlifName: C_edilla
Width: 469
VWidth: 0
Flags: W
AnchorPoint: "L" 243 -600 basechar 0
LayerCount: 2
Fore
SplineSet
408 -229 m 257
 408 -154 338 -119 268 -104 c 257
 320 50 l 257
 242 52 l 257
 171 -171 156 -209 156 -209 c 257
 238 -217 270 -231 270 -276 c 256
 270 -319 217 -371 78 -395 c 257
 100 -444 l 257
 319 -412 408 -328 408 -229 c 257
  PathStart: -1
EndSplineSet
EndChar
StartChar: SupOne
Encoding: 4101 185 4077
GlifName: S_upO_ne
Width: 673
VWidth: 0
Flags: W
AnchorPoint: "L" 360 550 basechar 0
AnchorPoint: "U" 360 1410 basechar 0
LayerCount: 2
Fore
SplineSet
119 620 m 257
 588 620 l 257
 588 662 l 257
 447 677 423 700 423 716 c 258
 423 1346 l 257
 397 1367 l 257
 336 1338 175 1284 97 1265 c 257
 112 1224 l 257
 235 1247 274 1243 285 1233 c 256
 297 1222 298 1206 298 1174 c 258
 298 716 l 258
 298 699 265 677 119 662 c 257
 119 620 l 257
EndSplineSet
EndChar
StartChar: MascOrdIndicator
Encoding: 3695 186 3679
GlifName: M_ascO_rdI_ndicator
Width: 578
VWidth: 0
Flags: W
LayerCount: 2
Fore
SplineSet
528 983 m 257
 528 1128 434 1235 305 1235 c 256
 164 1235 49 1102 49 963 c 256
 49 817 139 711 272 711 c 256
 397 711 528 846 528 983 c 257
  PathStart: -1
61 586 m 257
 516 586 l 257
 516 659 l 257
 61 659 l 257
 61 586 l 257
434 967 m 257
 434 854 377 768 305 768 c 256
 223 768 143 864 143 977 c 256
 143 1090 193 1176 272 1176 c 256
 360 1176 434 1079 434 967 c 257
  PathStart: -1
EndSplineSet
EndChar
StartChar: RtPtngDblAngQuotMrk
Encoding: 4023 187 4002
GlifName: R_tP_tngD_blA_ngQ_uotM_rk
Width: 994
VWidth: 0
Flags: W
LayerCount: 2
Fore
SplineSet
544 430 m 257
 542 503 l 257
 183 913 l 257
 141 883 l 257
 371 467 l 257
 140 47 l 257
 183 17 l 257
 544 430 l 257
914 430 m 257
 912 503 l 257
 553 913 l 257
 511 883 l 257
 741 467 l 257
 510 47 l 257
 553 17 l 257
 914 430 l 257
EndSplineSet
EndChar
StartChar: VulgFracOneQuarter
Encoding: 4301 188 4261
GlifName: V_ulgF_racO_neQ_uarter
Width: 1200
VWidth: 0
Flags: W
LayerCount: 2
Fore
SplineSet
326 3 m 257
 1084 1207 l 257
 1059 1235 l 257
 1030 1229 996 1214 970 1203 c 257
 208 0 l 257
 233 -30 l 257
 269 -21 295 -12 326 3 c 257
1120 210 m 257
 1105 226 l 257
 1044 226 l 257
 1044 581 l 257
 1024 598 l 257
 1001 588 964 575 933 563 c 257
 653 180 l 257
 672 164 l 257
 950 164 l 257
 950 63 l 258
 950 52 937 42 840 29 c 257
 840 0 l 257
 1114 0 l 257
 1114 29 l 257
 1052 41 1044 48 1044 58 c 258
 1044 164 l 257
 1075 164 l 257
 1092 175 1104 190 1120 210 c 257
  PathStart: -1
950 491 m 257
 950 226 l 257
 749 226 l 257
 950 491 l 257
97 637 m 257
 472 637 l 257
 472 671 l 257
 360 683 340 701 340 714 c 258
 340 1218 l 257
 320 1235 l 257
 271 1211 142 1168 80 1153 c 257
 92 1120 l 257
 190 1139 221 1135 230 1127 c 256
 240 1119 240 1106 240 1080 c 258
 240 714 l 258
 240 700 214 683 97 671 c 257
 97 637 l 257
EndSplineSet
EndChar
StartChar: VulgFracOneHalf
Encoding: 4299 189 4259
GlifName: V_ulgF_racO_neH_alf
Width: 1200
VWidth: 0
Flags: W
LayerCount: 2
Fore
SplineSet
317 3 m 257
 1075 1207 l 257
 1050 1235 l 257
 1021 1229 987 1214 961 1203 c 257
 199 0 l 257
 224 -30 l 257
 260 -21 286 -12 317 3 c 257
97 637 m 257
 472 637 l 257
 472 671 l 257
 360 683 340 701 340 714 c 258
 340 1218 l 257
 320 1235 l 257
 271 1211 142 1168 80 1153 c 257
 92 1120 l 257
 190 1139 221 1135 230 1127 c 256
 240 1119 240 1106 240 1080 c 258
 240 714 l 258
 240 700 214 683 97 671 c 257
 97 637 l 257
1112 0 m 257
 1120 138 l 257
 1084 143 l 257
 1084 143 1078 66 1027 66 c 258
 809 66 l 257
 1038 297 1112 371 1112 457 c 256
 1112 550 1042 593 944 593 c 256
 821 593 706 506 706 439 c 257
 721 425 l 257
 755 428 784 435 810 448 c 257
 810 494 849 540 906 540 c 256
 982 540 1010 502 1010 443 c 256
 1010 370 957 300 691 35 c 257
 707 0 l 257
 1112 0 l 257
EndSplineSet
Validated: 41
EndChar
StartChar: VulgFracThreeQuarters
Encoding: 4309 190 4269
GlifName: V_ulgF_racT_hreeQ_uarters
Width: 1200
VWidth: 0
Flags: W
LayerCount: 2
Fore
SplineSet
316 3 m 257
 1074 1207 l 257
 1049 1235 l 257
 1020 1229 986 1214 960 1203 c 257
 198 0 l 257
 223 -30 l 257
 259 -21 285 -12 316 3 c 257
519 821 m 256
 519 898 454 964 369 973 c 257
 442 995 486 1049 486 1097 c 256
 486 1162 435 1230 320 1230 c 256
 203 1230 100 1154 100 1101 c 257
 115 1085 l 257
 147 1088 184 1093 209 1105 c 257
 200 1148 232 1177 288 1177 c 256
 356 1177 382 1133 382 1089 c 256
 382 1049 366 998 234 966 c 257
 241 929 l 257
 264 933 258 933 279 933 c 256
 342 933 414 901 414 805 c 256
 414 723 357 680 270 680 c 256
 214 680 166 692 98 735 c 257
 80 702 l 257
 147 647 218 623 285 623 c 256
 430 623 519 713 519 821 c 256
  PathStart: -1
1120 210 m 257
 1105 226 l 257
 1044 226 l 257
 1044 581 l 257
 1024 598 l 257
 1001 588 964 575 933 563 c 257
 653 180 l 257
 672 164 l 257
 950 164 l 257
 950 63 l 258
 950 52 937 42 840 29 c 257
 840 0 l 257
 1114 0 l 257
 1114 29 l 257
 1052 41 1044 48 1044 58 c 258
 1044 164 l 257
 1075 164 l 257
 1092 175 1104 190 1120 210 c 257
  PathStart: -1
950 491 m 257
 950 226 l 257
 749 226 l 257
 950 491 l 257
EndSplineSet
EndChar
StartChar: InvQstnMrk
Encoding: 1245 191 1235
GlifName: I_nvQ_stnM_rk
Width: 887
VWidth: 0
Flags: W
LayerCount: 2
Fore
SplineSet
586 848 m 256
 586 920 555 960 485 960 c 256
 408 960 348 889 348 799 c 256
 348 725 379 684 446 684 c 256
 522 684 586 758 586 848 c 256
  PathStart: -1
424 530 m 257
 418 434 l 257
 397 154 80 55 80 -246 c 256
 80 -430 188 -559 385 -559 c 256
 608 -559 807 -422 807 -233 c 256
 807 -223 807 -211 805 -201 c 257
 778 -170 l 257
 719 -174 674 -184 629 -209 c 257
 637 -227 643 -246 643 -266 c 256
 643 -371 559 -465 463 -465 c 256
 324 -465 246 -365 246 -201 c 256
 246 -10 545 205 530 434 c 257
 524 551 l 257
 498 571 l 257
 463 561 446 551 424 530 c 257
  PathStart: -1
EndSplineSet
EndChar
StartChar: LtnCapAe
Encoding: 1352 198 1336
GlifName: L_tnC_apA_e
Width: 1595
VWidth: 0
Flags: W
AnchorPoint: "L" 854 -100 basechar 0
AnchorPoint: "U" 924 1370 basechar 0
LayerCount: 2
Fore
SplineSet
1536 244 m 257
 1491 262 l 257
 1434 106 1393 90 1270 90 c 258
 1141 90 l 258
 965 90 934 115 934 154 c 258
 934 651 l 257
 1075 651 l 258
 1188 651 1235 635 1274 596 c 257
 1303 617 1343 670 1366 707 c 257
 1339 735 l 257
 934 735 l 257
 934 1170 l 257
 1300 1170 l 258
 1352 1170 1376 1133 1382 1010 c 257
 1427 1010 l 257
 1446 1061 1464 1167 1468 1235 c 257
 1438 1260 l 257
 1079 1260 l 257
 911 1260 l 257
 381 1260 l 257
 381 1217 l 257
 512 1192 590 1178 571 1133 c 258
 158 111 l 258
 141 72 90 59 0 43 c 257
 0 0 l 257
 416 0 l 257
 416 43 l 257
 307 55 268 72 285 111 c 258
 505 651 l 257
 774 651 l 257
 774 104 l 258
 774 86 721 61 631 43 c 257
 631 0 l 257
 1493 0 l 257
 1503 39 1524 129 1536 244 c 257
  PathStart: -1
774 1148 m 258
 774 735 l 257
 539 735 l 257
 696 1131 l 258
 715 1177 774 1177 774 1148 c 258
EndSplineSet
Validated: 41
EndChar
StartChar: MultSgn
Encoding: 3928 215 3912
GlifName: M_ultS_gn
Width: 840
VWidth: 0
Flags: W
LayerCount: 2
Fore
SplineSet
746 280 m 257
 746 314 l 257
 187 873 l 257
 158 866 120 854 94 842 c 257
 95 808 l 257
 654 249 l 257
 678 255 719 269 746 280 c 257
  PathStart: -1
93 314 m 257
 93 280 l 257
 120 269 161 255 186 249 c 257
 745 808 l 257
 745 842 l 257
 719 854 681 866 652 873 c 257
 93 314 l 257
EndSplineSet
Validated: 5
EndChar
StartChar: LtnCapOStrk
Encoding: 1637 216 1621
GlifName: L_tnC_apO_S_trk
Width: 1229
VWidth: 0
Flags: W
AnchorPoint: "L" 604 -100 basechar 0
AnchorPoint: "U" 604 1370 basechar 0
LayerCount: 2
Fore
SplineSet
1138 647 m 257
 1138 973 963 1290 633 1290 c 256
 319 1290 70 975 70 612 c 256
 70 276 254 -30 575 -30 c 256
 879 -30 1138 285 1138 647 c 257
  PathStart: -1
983 629 m 257
 983 276 825 90 604 90 c 256
 399 90 225 342 225 641 c 256
 225 967 367 1175 604 1175 c 256
 831 1175 983 905 983 629 c 257
  PathStart: -1
233 -2 m 257
 1130 1280 l 257
 1102 1313 l 257
 1061 1303 1012 1286 975 1264 c 257
 76 -20 l 257
 104 -53 l 257
 137 -43 209 -23 233 -2 c 257
EndSplineSet
Validated: 5
EndChar
StartChar: LtnCapThorn
Encoding: 1732 222 1716
GlifName: L_tnC_apT_horn
Width: 1071
VWidth: 0
Flags: W
AnchorPoint: "L" 515 -100 basechar 0
AnchorPoint: "U" 515 1370 basechar 0
LayerCount: 2
Fore
SplineSet
982 666 m 257
 982 895 797 1020 510 1020 c 256
 379 1020 303 1012 233 997 c 257
 244 924 l 257
 315 932 383 936 453 936 c 256
 659 936 827 846 827 625 c 256
 827 436 666 340 543 340 c 256
 496 340 444 344 389 369 c 257
 412 298 l 257
 457 275 512 265 573 265 c 256
 729 265 982 389 982 666 c 257
  PathStart: -1
49 0 m 257
 530 0 l 257
 530 43 l 257
 391 66 355 88 355 104 c 258
 355 1155 l 258
 355 1174 393 1194 530 1217 c 257
 530 1260 l 257
 49 1260 l 257
 49 1217 l 257
 145 1198 195 1171 195 1155 c 258
 195 104 l 258
 195 86 139 61 49 43 c 257
 49 0 l 257
EndSplineSet
Validated: 5
EndChar
StartChar: LtnSmSharpS
Encoding: 3229 223 3213
GlifName: L_tnS_mS_harpS_
Width: 1157
VWidth: 0
Flags: W
AnchorPoint: "L" 561 -100 basechar 0
AnchorPoint: "U" 561 1690 basechar 0
LayerCount: 2
Fore
SplineSet
1067 283 m 257
 1067 614 623 596 623 770 c 256
 623 930 967 862 967 1190 c 256
 967 1337 883 1550 653 1550 c 256
 557 1550 465 1516 393 1458 c 256
 289 1372 195 1282 195 961 c 258
 195 102 l 258
 195 86 145 59 55 43 c 257
 55 0 l 257
 345 0 l 257
 345 1016 l 258
 345 1346 436 1425 565 1425 c 256
 745 1425 815 1257 815 1122 c 256
 815 930 483 999 483 729 c 256
 483 457 937 494 937 217 c 256
 937 129 862 70 768 70 c 256
 666 70 541 127 522 270 c 257
 483 283 l 257
 463 256 457 66 469 47 c 256
 489 14 655 -30 729 -30 c 256
 969 -30 1067 127 1067 283 c 257
  PathStart: -1
EndSplineSet
Validated: 41
EndChar
StartChar: LtnSmAe
Encoding: 2177 230 2161
GlifName: L_tnS_mA_e
Width: 1417
VWidth: 0
Flags: W
AnchorPoint: "H" 738 0 basechar 0
AnchorPoint: "L" 738 -100 basechar 0
AnchorPoint: "O" 1020 0 basechar 0
AnchorPoint: "R" 1484 900 basechar 0
AnchorPoint: "U" 738 1050 basechar 0
LayerCount: 2
Fore
SplineSet
293 -30 m 256
 377 -30 543 41 658 179 c 257
 714 47 826 -30 944 -30 c 256
 1069 -30 1169 4 1329 195 c 257
 1323 205 1309 227 1292 236 c 257
 1151 113 1092 102 1008 102 c 256
 860 102 774 264 774 418 c 256
 774 443 775 467 776 489 c 257
 1225 489 l 257
 1268 506 1311 530 1337 557 c 257
 1337 737 1268 960 1024 960 c 256
 946 960 835 925 749 816 c 257
 718 913 652 960 535 960 c 256
 397 960 128 815 108 657 c 257
 122 621 l 257
 155 612 300 651 292 676 c 257
 253 776 383 860 467 860 c 256
 598 860 623 766 623 662 c 258
 623 576 l 257
 565 572 507 565 463 553 c 256
 203 479 80 344 80 186 c 256
 80 31 197 -30 293 -30 c 256
352 100 m 256
 317 100 244 123 244 229 c 256
 244 356 362 435 508 468 c 256
 545 477 584 482 623 485 c 257
 623 386 l 258
 623 323 626 291 637 244 c 257
 539 147 425 100 352 100 c 256
785 580 m 257
 821 815 936 860 995 860 c 256
 1120 860 1171 743 1171 616 c 256
 1171 588 1161 580 1133 580 c 258
 785 580 l 257
EndSplineSet
EndChar
StartChar: LtnSmEth
Encoding: 2494 240 2478
GlifName: L_tnS_mE_th
Width: 1020
VWidth: 0
Flags: W
AnchorPoint: "L" 507 -100 basechar 0
AnchorPoint: "U" 508 1620 basechar 0
LayerCount: 2
Fore
SplineSet
935 592 m 256
 935 801 858 1019 673 1218 c 257
 911 1321 l 257
 905 1356 l 257
 870 1368 874 1368 811 1378 c 257
 603 1287 l 257
 546 1340 480 1391 406 1440 c 257
 205 1368 l 257
 211 1327 l 257
 323 1343 405 1296 478 1233 c 257
 223 1122 l 257
 233 1085 l 257
 279 1071 274 1073 324 1067 c 257
 550 1165 l 257
 644 1069 712 963 750 829 c 257
 682 902 585 960 506 960 c 256
 289 960 80 709 80 444 c 256
 80 172 236 -30 496 -30 c 256
 647 -30 935 129 935 592 c 256
  PathStart: -1
785 586 m 257
 785 586 785 551 785 551 c 258
 785 223 653 80 506 80 c 256
 391 80 235 262 235 473 c 256
 235 686 317 850 475 850 c 256
 591 850 734 739 785 586 c 257
  PathStart: -1
EndSplineSet
EndChar
StartChar: DivSgn
Encoding: 718 247 714
GlifName: D_ivS_gn
Width: 840
VWidth: 0
Flags: W
LayerCount: 2
Fore
SplineSet
778 593 m 257
 754 617 l 257
 92 617 l 257
 80 591 68 558 61 531 c 257
 86 507 l 257
 748 507 l 257
 758 529 772 566 778 593 c 257
  PathStart: -1
499 820 m 257
 499 870 477 896 432 896 c 256
 381 896 340 848 340 788 c 256
 340 739 360 711 407 711 c 256
 459 711 499 761 499 820 c 257
  PathStart: -1
499 340 m 257
 499 390 477 416 432 416 c 256
 381 416 340 368 340 308 c 256
 340 259 360 231 407 231 c 256
 459 231 499 281 499 340 c 257
  PathStart: -1
EndSplineSet
Validated: 9
EndChar
StartChar: LtnSmOStrk
Encoding: 3029 248 3013
GlifName: L_tnS_mO_S_trk
Width: 1030
VWidth: 0
Flags: W
AnchorPoint: "H" 535 0 basechar 0
AnchorPoint: "L" 525 -100 basechar 0
AnchorPoint: "O" 575 0 basechar 0
AnchorPoint: "R" 1060 900 basechar 0
AnchorPoint: "U" 525 1050 basechar 0
LayerCount: 2
Fore
SplineSet
950 485 m 256
 950 617 912 732 844 815 c 257
 946 950 l 257
 915 983 l 257
 877 973 829 936 793 913 c 257
 772 885 l 257
 707 933 627 960 535 960 c 256
 285 960 80 709 80 444 c 256
 80 312 119 196 188 112 c 257
 88 -20 l 257
 117 -53 l 257
 150 -43 217 -2 242 18 c 257
 261 43 l 257
 325 -4 405 -30 496 -30 c 256
 739 -30 950 219 950 485 c 256
294 253 m 257
 257 317 233 393 233 473 c 256
 233 686 303 850 506 850 c 256
 565 850 627 816 678 761 c 257
 294 253 l 257
524 80 m 256
 471 80 409 114 357 170 c 257
 739 676 l 257
 775 612 797 536 797 455 c 256
 797 227 713 80 524 80 c 256
EndSplineSet
EndChar
StartChar: LtnSmThorn
Encoding: 3274 254 3258
GlifName: L_tnS_mT_horn
Width: 1085
VWidth: 0
Flags: W
AnchorPoint: "L" 679 -100 basechar 0
AnchorPoint: "U" 530 1690 basechar 0
LayerCount: 2
Fore
SplineSet
1005 492 m 257
 1005 784 872 960 690 960 c 256
 614 960 482 895 345 733 c 257
 345 1516 l 257
 308 1550 l 257
 228 1507 150 1489 55 1470 c 257
 55 1430 l 257
 168 1417 195 1417 195 1296 c 258
 195 -375 l 258
 195 -398 143 -416 55 -437 c 257
 55 -480 l 257
 515 -480 l 257
 515 -437 l 257
 390 -418 345 -396 345 -375 c 258
 345 74 l 257
 439 -2 530 -30 573 -30 c 256
 813 -30 1005 260 1005 492 c 257
  PathStart: -1
870 408 m 257
 870 248 782 90 631 90 c 256
 539 90 447 133 345 213 c 257
 345 610 l 257
 462 782 575 835 623 835 c 256
 752 835 870 672 870 408 c 257
  PathStart: -1
EndSplineSet
Validated: 9
EndChar
StartChar: LtnCapDStrk
Encoding: 1401 272 1385
GlifName: L_tnC_apD_S_trk
Width: 1214
VWidth: 0
Flags: W
AnchorPoint: "L" 575 -100 basechar 0
AnchorPoint: "U" 575 1370 basechar 0
LayerCount: 2
Fore
SplineSet
614 615 m 257
 639 682 l 257
 614 705 l 257
 49 705 l 257
 41 684 33 660 27 640 c 257
 49 615 l 257
 614 615 l 257
EndSplineSet
Refer: 1369 68 N 1 0 0 1 0 0 2
EndChar
StartChar: LtnSmDBarredStem
Encoding: 2326 273 2310
GlifName: L_tnS_mD_B_arredS_tem
Width: 1065
VWidth: 0
Flags: W
AnchorPoint: "L" 524 -100 basechar 0
AnchorPoint: "U" 571 1690 basechar 0
LayerCount: 2
Fore
SplineSet
1040 1140 m 257
 1063 1205 l 257
 1040 1230 l 257
 465 1230 l 257
 455 1209 449 1183 442 1162 c 257
 465 1140 l 257
 1040 1140 l 257
1051 84 m 257
 1038 127 l 257
 958 96 930 92 918 106 c 256
 903 125 895 160 895 254 c 258
 895 1520 l 257
 864 1550 l 257
 795 1528 709 1499 600 1485 c 257
 600 1446 l 257
 741 1436 745 1421 745 1274 c 258
 745 272 l 258
 745 49 776 -31 829 -31 c 256
 866 -31 928 2 1051 84 c 257
  PathStart: -1
819 260 m 257
 813 270 799 289 782 297 c 257
 688 207 592 100 487 100 c 256
 377 100 230 248 230 475 c 256
 230 725 350 850 520 850 c 256
 621 850 711 801 752 717 c 257
 795 743 811 760 811 840 c 257
 707 944 631 960 551 960 c 256
 272 960 80 674 80 444 c 256
 80 147 268 -30 416 -30 c 256
 584 -30 684 84 819 260 c 257
  PathStart: -1
EndSplineSet
EndChar
StartChar: LtnSmEOgonek
Encoding: 2456 281 2440
GlifName: L_tnS_mE_O_gonek
Width: 946
VWidth: 0
Flags: W
AnchorPoint: "L" 508 -600 basechar 0
AnchorPoint: "U" 510 1050 basechar 0
LayerCount: 2
Fore
SplineSet
769 -299 m 257
 745 -262 l 257
 689 -313 644 -336 595 -336 c 256
 548 -336 519 -314 519 -254 c 256
 519 -181 569 -70 860 195 c 257
 854 205 840 227 823 236 c 257
 674 113 610 100 526 100 c 256
 342 100 230 287 230 487 c 258
 230 490 l 257
 756 490 l 257
 799 507 842 530 866 557 c 257
 866 727 786 960 524 960 c 256
 453 960 360 922 301 881 c 256
 162 786 80 614 80 434 c 256
 80 152 260 -30 465 -30 c 256
 498 -30 544 -24 573 -19 c 257
 442 -124 390 -226 390 -299 c 256
 390 -407 454 -444 536 -444 c 256
 623 -444 712 -371 769 -299 c 257
  PathStart: -1
496 855 m 257
 670 855 702 688 702 616 c 256
 702 588 694 580 664 580 c 258
 237 580 l 257
 263 745 360 855 496 855 c 257
  PathStart: -1
EndSplineSet
EndChar
StartChar: LtnCapHStrk
Encoding: 1487 294 1471
GlifName: L_tnC_apH_S_trk
Width: 1339
VWidth: 0
Flags: W
AnchorPoint: "L" 660 -100 basechar 0
AnchorPoint: "U" 660 1370 basechar 0
LayerCount: 2
Fore
SplineSet
820 0 m 257
 1270 0 l 257
 1270 43 l 257
 1174 61 1125 88 1125 104 c 258
 1125 1155 l 258
 1125 1174 1180 1198 1270 1217 c 257
 1270 1260 l 257
 820 1260 l 257
 820 1217 l 257
 916 1198 965 1171 965 1155 c 258
 965 104 l 258
 965 86 910 61 820 43 c 257
 820 0 l 257
327 615 m 257
 985 615 l 257
 985 705 l 257
 327 705 l 257
 327 615 l 257
50 0 m 257
 500 0 l 257
 500 43 l 257
 403 61 355 88 355 104 c 258
 355 1155 l 258
 355 1174 410 1198 500 1217 c 257
 500 1260 l 257
 50 1260 l 257
 50 1217 l 257
 146 1198 195 1171 195 1155 c 258
 195 104 l 258
 195 86 140 61 50 43 c 257
 50 0 l 257
1245 890 m 257
 1270 957 l 257
 1245 980 l 257
 72 980 l 257
 64 959 56 935 50 915 c 257
 72 890 l 257
 1245 890 l 257
EndSplineSet
EndChar
StartChar: LtnSmHStrk
Encoding: 2612 295 2596
GlifName: L_tnS_mH_S_trk
Width: 1130
VWidth: 0
Flags: W
AnchorPoint: "L" 566 -100 basechar 0
AnchorPoint: "U" 566 1690 basechar 0
LayerCount: 2
Fore
SplineSet
631 1140 m 257
 653 1205 l 257
 631 1230 l 257
 55 1230 l 257
 45 1209 38 1183 33 1162 c 257
 55 1140 l 257
 631 1140 l 257
670 0 m 257
 1100 0 l 257
 1100 43 l 257
 995 70 960 86 960 104 c 258
 960 741 l 258
 960 891 854 960 739 960 c 256
 635 960 460 854 345 684 c 257
 345 1516 l 257
 308 1550 l 257
 232 1511 168 1491 55 1470 c 257
 55 1430 l 257
 184 1415 195 1409 195 1298 c 258
 195 104 l 258
 195 82 143 66 55 43 c 257
 55 0 l 257
 485 0 l 257
 485 43 l 257
 399 61 345 84 345 104 c 258
 345 549 l 257
 460 735 590 830 682 830 c 256
 770 830 810 795 810 633 c 258
 810 104 l 258
 810 86 766 68 670 43 c 257
 670 0 l 257
EndSplineSet
Validated: 5
EndChar
StartChar: LtnSmDotlessI
Encoding: 2368 305 2352
GlifName: L_tnS_mD_otlessI_
Width: 555
VWidth: 0
Flags: W
AnchorPoint: "H" 285 0 basechar 0
AnchorPoint: "L" 285 -100 basechar 0
AnchorPoint: "O" 335 0 basechar 0
AnchorPoint: "R" 555 900 basechar 0
AnchorPoint: "U" 285 1050 basechar 0
LayerCount: 2
Fore
SplineSet
70 0 m 257
 500 0 l 257
 500 43 l 257
 403 61 360 88 360 104 c 262
 360 960 l 261
 326 960 l 261
 258 927 154 896 70 880 c 261
 70 840 l 261
 211 827 210 807 210 670 c 262
 210 104 l 262
 210 86 160 61 70 43 c 257
 70 0 l 257
EndSplineSet
EndChar
StartChar: LtnCapLStrk
Encoding: 1563 321 1547
GlifName: L_tnC_apL_S_trk
Width: 975
VWidth: 0
Flags: W
AnchorPoint: "L" 492 -100 basechar 0
AnchorPoint: "U" 492 1370 basechar 0
LayerCount: 2
Fore
SplineSet
659 828 m 257
 633 853 l 257
 92 580 l 257
 75 564 50 516 41 491 c 257
 68 469 l 257
 606 741 l 257
 625 764 648 804 659 828 c 257
  PathStart: -1
944 244 m 257
 901 262 l 257
 844 106 807 90 684 90 c 258
 541 90 l 258
 395 90 355 117 355 164 c 258
 355 1155 l 258
 355 1174 410 1198 500 1217 c 257
 500 1260 l 257
 50 1260 l 257
 50 1217 l 257
 146 1198 195 1171 195 1155 c 258
 195 104 l 258
 195 86 140 61 50 43 c 257
 50 0 l 257
 903 0 l 257
 913 39 934 129 944 244 c 257
  PathStart: -1
EndSplineSet
EndChar
StartChar: LtnSmLStrk
Encoding: 2831 322 2815
GlifName: L_tnS_mL_S_trk
Width: 575
VWidth: 0
Flags: W
AnchorPoint: "L" 294 -100 basechar 0
AnchorPoint: "U" 294 1690 basechar 0
LayerCount: 2
Fore
SplineSet
70 0 m 257
 520 0 l 257
 520 43 l 257
 411 61 370 84 370 104 c 258
 370 782 l 257
 511 882 l 257
 529 928 532 928 540 973 c 257
 517 989 l 257
 370 886 l 257
 370 1516 l 257
 334 1550 l 257
 252 1507 176 1489 80 1470 c 257
 80 1430 l 257
 192 1417 220 1417 220 1296 c 258
 220 782 l 257
 82 686 l 257
 61 629 60 629 54 594 c 257
 78 577 l 257
 220 677 l 257
 220 104 l 258
 220 82 185 63 70 43 c 257
 70 0 l 257
EndSplineSet
Validated: 9
EndChar
StartChar: LtnCapEng
Encoding: 1444 330 1428
GlifName: L_tnC_apE_ng
Width: 1235
VWidth: 0
Flags: W
AnchorPoint: "L" 657 -600 basechar 0
AnchorPoint: "U" 656 1370 basechar 0
LayerCount: 2
Fore
SplineSet
1125 277 m 257
 1125 981 l 258
 1125 1231 979 1290 864 1290 c 256
 721 1290 560 1210 355 928 c 257
 355 1255 l 257
 320 1290 l 257
 249 1253 145 1227 55 1210 c 257
 55 1167 l 257
 190 1153 195 1135 195 1030 c 258
 195 104 l 258
 195 86 139 61 49 43 c 257
 49 0 l 257
 500 0 l 257
 500 43 l 257
 403 61 355 88 355 104 c 258
 355 748 l 257
 560 1073 690 1150 797 1150 c 256
 897 1150 965 1090 965 872 c 258
 965 224 l 258
 965 -106 830 -264 704 -264 c 256
 636 -264 539 -233 467 -161 c 257
 428 -177 330 -249 330 -272 c 256
 330 -314 462 -380 578 -380 c 256
 674 -380 793 -344 866 -288 c 256
 1001 -184 1125 1 1125 277 c 257
  PathStart: -1
EndSplineSet
Validated: 9
EndChar
StartChar: LtnSmEng
Encoding: 2474 331 2458
GlifName: L_tnS_mE_ng
Width: 1120
VWidth: 0
Flags: W
AnchorPoint: "L" 576 -600 basechar 0
AnchorPoint: "U" 576 1050 basechar 0
LayerCount: 2
Fore
SplineSet
960 88 m 257
 960 741 l 258
 960 891 854 960 739 960 c 256
 635 960 457 854 340 676 c 257
 330 926 l 257
 295 961 l 257
 221 924 145 895 55 881 c 257
 55 840 l 257
 190 825 195 815 195 711 c 258
 195 104 l 258
 195 82 143 66 55 43 c 257
 55 0 l 257
 485 0 l 257
 485 43 l 257
 399 61 344 84 344 104 c 258
 344 549 l 257
 473 756 600 829 682 829 c 256
 776 829 810 795 810 633 c 258
 810 35 l 258
 810 -295 688 -380 613 -380 c 256
 572 -380 480 -361 403 -290 c 257
 365 -309 274 -378 274 -401 c 256
 274 -440 412 -500 502 -500 c 256
 553 -500 674 -467 745 -407 c 256
 852 -321 960 -225 960 88 c 257
  PathStart: -1
EndSplineSet
EndChar
StartChar: LtnCapLigOe
Encoding: 1566 338 1550
GlifName: L_tnC_apL_igO_e
Width: 1634
VWidth: 0
Flags: W
AnchorPoint: "L" 822 -100 basechar 0
AnchorPoint: "U" 822 1370 basechar 0
LayerCount: 2
Fore
SplineSet
1507 1235 m 257
 1477 1260 l 257
 991 1260 l 257
 963 1169 l 257
 1339 1169 l 258
 1391 1169 1415 1133 1421 1010 c 257
 1468 1010 l 257
 1485 1061 1503 1167 1507 1235 c 257
  PathStart: -1
1407 707 m 257
 1378 735 l 257
 973 735 l 257
 948 655 l 257
 1116 655 l 258
 1229 655 1274 639 1315 600 c 257
 1341 621 1382 670 1407 707 c 257
  PathStart: -1
1575 244 m 257
 1532 262 l 257
 1473 106 1432 90 1309 90 c 258
 1180 90 l 258
 1004 90 1016 115 1016 154 c 258
 1016 1176 l 258
 1016 1194 1069 1198 1159 1217 c 257
 1159 1260 l 257
 991 1260 l 257
 711 1260 l 257
 711 1217 l 257
 807 1198 854 1171 854 1155 c 258
 854 104 l 258
 854 86 801 61 711 43 c 257
 711 0 l 257
 1534 0 l 257
 1544 39 1565 129 1575 244 c 257
  PathStart: -1
913 1040 m 257
 913 1040 889 1219 903 1260 c 257
 784 1260 745 1290 633 1290 c 256
 319 1290 70 975 70 612 c 256
 70 276 254 -30 575 -30 c 256
 698 -30 743 0 903 0 c 257
 903 0 936 88 868 150 c 257
 799 96 719 90 604 90 c 256
 399 90 225 342 225 641 c 256
 225 967 367 1176 604 1176 c 256
 727 1176 836 1137 913 1040 c 257
  PathStart: -1
EndSplineSet
Validated: 37
EndChar
StartChar: LtnSmLigOe
Encoding: 2849 339 2833
GlifName: L_tnS_mL_igO_e
Width: 1624
VWidth: 0
Flags: W
AnchorPoint: "H" 812 0 basechar 0
AnchorPoint: "L" 812 -100 basechar 0
AnchorPoint: "O" 1230 0 basechar 0
AnchorPoint: "R" 1668 900 basechar 0
AnchorPoint: "U" 812 1050 basechar 0
LayerCount: 2
Fore
SplineSet
1544 557 m 257
 1544 727 1460 960 1212 960 c 256
 1151 960 1055 921 995 880 c 256
 856 785 776 614 776 434 c 256
 776 152 954 -30 1153 -30 c 256
 1278 -30 1360 0 1536 195 c 257
 1530 205 1516 227 1499 236 c 257
 1350 113 1288 102 1214 102 c 256
 1040 102 930 287 930 497 c 256
 930 702 1034 856 1184 856 c 256
 1346 856 1378 688 1378 616 c 256
 1378 588 1368 580 1339 580 c 258
 881 580 l 257
 879 489 l 257
 1432 489 l 257
 1475 506 1518 530 1544 557 c 257
  PathStart: -1
930 495 m 257
 930 758 764 960 535 960 c 256
 293 960 80 709 80 444 c 256
 80 172 248 -30 475 -30 c 256
 711 -30 930 227 930 495 c 257
  PathStart: -1
776 455 m 257
 776 242 678 80 535 80 c 256
 391 80 233 262 233 473 c 256
 233 686 332 850 475 850 c 256
 627 850 776 668 776 455 c 257
  PathStart: -1
EndSplineSet
EndChar
StartChar: LtnCapTStrk
Encoding: 1731 358 1715
GlifName: L_tnC_apT_S_trk
Width: 1128
VWidth: 0
Flags: W
AnchorPoint: "L" 545 -100 basechar 0
AnchorPoint: "U" 545 1370 basechar 0
LayerCount: 2
Fore
SplineSet
1082 1235 m 257
 1052 1260 l 257
 546 1260 l 257
 517 1170 l 257
 914 1170 l 258
 974 1170 982 1113 1007 1000 c 257
 1052 1000 l 257
 1068 1084 1080 1167 1082 1235 c 257
  PathStart: -1
171 1170 m 258
 697 1170 l 257
 669 1260 l 257
 42 1260 l 257
 28 1190 15 1092 9 1014 c 257
 52 995 l 257
 112 1151 130 1170 171 1170 c 258
306 0 m 257
 794 0 l 257
 794 43 l 257
 671 68 630 98 630 115 c 258
 630 1177 l 258
 630 1195 683 1198 773 1217 c 257
 773 1260 l 257
 325 1260 l 257
 325 1217 l 257
 421 1198 470 1193 470 1177 c 258
 470 115 l 258
 470 96 429 68 306 43 c 257
 306 0 l 257
905 615 m 257
 930 683 l 257
 905 705 l 257
 192 705 l 257
 184 684 176 660 170 640 c 257
 192 615 l 257
 905 615 l 257
EndSplineSet
Validated: 5
EndChar
StartChar: LtnSmTStrk
Encoding: 3268 359 3252
GlifName: L_tnS_mT_S_trk
Width: 705
VWidth: 0
Flags: W
AnchorPoint: "L" 348 -100 basechar 0
AnchorPoint: "U" 348 1320 basechar 0
LayerCount: 2
Fore
SplineSet
676 117 m 257
 647 168 l 257
 543 115 475 100 428 100 c 256
 348 100 320 147 320 307 c 258
 320 834 l 257
 372 834 l 258
 480 834 543 815 575 799 c 257
 602 811 651 864 676 901 c 257
 647 930 l 257
 320 930 l 257
 320 1255 l 257
 289 1280 l 257
 170 1176 l 257
 170 930 l 257
 98 930 l 257
 20 862 l 257
 41 834 l 257
 170 834 l 257
 170 221 l 258
 170 35 252 -30 344 -30 c 256
 414 -30 545 20 676 117 c 257
  PathStart: -1
510 415 m 257
 532 480 l 257
 510 505 l 257
 53 505 l 257
 42 484 36 458 30 437 c 257
 53 415 l 257
 510 415 l 257
EndSplineSet
Validated: 5
EndChar
StartChar: LtnSmLngS
Encoding: 2854 383 2838
GlifName: L_tnS_mL_ngS_
Width: 637
VWidth: 0
Flags: W
AnchorPoint: "L" 431 -100 basechar 0
AnchorPoint: "U" 431 1690 basechar 0
LayerCount: 2
Fore
SplineSet
817 1454 m 257
 817 1477 711 1550 629 1550 c 256
 578 1550 471 1516 399 1458 c 256
 293 1372 200 1276 200 961 c 258
 200 102 l 258
 200 86 151 59 60 43 c 257
 60 0 l 257
 559 0 l 257
 559 43 l 257
 403 72 350 86 350 102 c 258
 350 1016 l 258
 350 1346 451 1425 520 1425 c 256
 555 1425 627 1399 690 1343 c 257
 729 1362 817 1432 817 1454 c 257
  PathStart: -1
EndSplineSet
EndChar
StartChar: LtnSmBBarredStem
Encoding: 2197 384 2181
GlifName: L_tnS_mB_B_arredS_tem
Width: 1040
VWidth: 0
Flags: W
AnchorPoint: "L" 480 -100 basechar 0
AnchorPoint: "U" 520 1620 basechar 0
LayerCount: 2
Fore
SplineSet
950 492 m 257
 950 784 819 960 637 960 c 256
 561 960 423 887 290 727 c 257
 290 1516 l 257
 290 1516 263 1540 253 1550 c 257
 177 1509 98 1491 10 1470 c 257
 10 1430 l 257
 119 1417 140 1419 140 1296 c 258
 140 96 l 257
 284 16 418 -30 469 -30 c 256
 764 -30 950 260 950 492 c 257
  PathStart: -1
815 408 m 257
 815 254 729 100 567 100 c 256
 520 100 396 123 290 203 c 257
 290 610 l 257
 402 776 520 825 567 825 c 256
 696 825 815 674 815 408 c 257
  PathStart: -1
598 1140 m 257
 620 1205 l 257
 598 1230 l 257
 12 1230 l 257
 2 1209 -4 1183 -10 1162 c 257
 12 1140 l 257
 598 1140 l 257
EndSplineSet
Validated: 5
EndChar
StartChar: LtnCapBHook
Encoding: 1364 385 1348
GlifName: L_tnC_apB_H_ook
Width: 1356
VWidth: 0
Flags: W
AnchorPoint: "L" 638 -100 basechar 0
AnchorPoint: "U" 638 1370 basechar 0
LayerCount: 2
Fore
SplineSet
789 -14 m 256
 1059 -14 1246 129 1246 356 c 256
 1246 541 1115 690 945 723 c 257
 1061 768 1135 877 1135 1020 c 256
 1135 1096 1097 1163 1037 1203 c 256
 942 1266 817 1290 589 1290 c 256
 243 1290 30 1177 30 1003 c 256
 30 930 66 877 115 856 c 257
 170 867 256 914 263 930 c 257
 222 949 194 988 194 1036 c 256
 194 1157 346 1206 553 1206 c 256
 754 1206 835 1190 904 1136 c 256
 952 1098 980 1036 980 971 c 256
 980 856 922 725 619 725 c 258
 521 725 l 257
 531 627 l 257
 595 637 662 650 750 650 c 256
 982 650 1082 469 1082 322 c 256
 1082 172 959 70 767 70 c 256
 707 70 616 76 575 98 c 257
 353 0 l 257
 353 0 672 -14 789 -14 c 256
  PathStart: -1
280 43 m 257
 280 0 l 257
 730 0 l 257
 730 43 l 257
 633 61 585 88 585 104 c 258
 585 1231 l 257
 425 1210 l 257
 425 104 l 258
 425 86 370 61 280 43 c 257
EndSplineSet
EndChar
StartChar: LtnCapBTopbar
Encoding: 1368 386 1352
GlifName: L_tnC_apB_T_opbar
Width: 1126
VWidth: 0
Flags: W
AnchorPoint: "L" 532 -100 basechar 0
AnchorPoint: "U" 532 1370 basechar 0
LayerCount: 2
Fore
SplineSet
1016 356 m 257
 1016 581 851 740 559 740 c 256
 458 740 361 725 291 705 c 257
 301 627 l 257
 365 637 432 650 520 650 c 256
 752 650 852 469 852 322 c 256
 852 172 729 70 537 70 c 256
 477 70 386 76 345 98 c 257
 123 0 l 257
 123 0 442 -14 559 -14 c 256
 829 -14 1016 129 1016 356 c 257
  PathStart: -1
948 1235 m 257
 917 1260 l 257
 332 1260 l 257
 303 1170 l 257
 780 1170 l 258
 831 1170 841 1100 849 930 c 257
 897 930 l 257
 917 1006 944 1167 948 1235 c 257
  PathStart: -1
49 0 m 257
 551 0 l 257
 551 43 l 257
 391 70 355 86 355 104 c 258
 355 1177 l 258
 355 1195 410 1198 500 1217 c 257
 500 1260 l 257
 332 1260 l 257
 49 1260 l 257
 49 1217 l 257
 145 1198 195 1171 195 1155 c 258
 195 104 l 258
 195 86 139 61 49 43 c 257
 49 0 l 257
EndSplineSet
Validated: 5
EndChar
StartChar: LtnSmBTopbar
Encoding: 2219 387 2203
GlifName: L_tnS_mB_T_opbar
Width: 1040
VWidth: 0
Flags: W
AnchorPoint: "L" 524 -100 basechar 0
AnchorPoint: "U" 524 1690 basechar 0
LayerCount: 2
Fore
SplineSet
838 1495 m 257
 807 1520 l 257
 260 1520 l 257
 208 1496 165 1471 100 1450 c 257
 112 1429 140 1302 140 1147 c 258
 140 96 l 257
 284 16 418 -30 469 -30 c 256
 764 -30 950 260 950 492 c 256
 950 784 819 960 637 960 c 256
 561 960 423 887 290 727 c 257
 290 1193 l 258
 290 1275 289 1356 280 1430 c 257
 670 1430 l 258
 721 1430 731 1360 739 1190 c 257
 787 1190 l 257
 807 1266 834 1427 838 1495 c 257
  PathStart: -1
815 408 m 257
 815 254 729 100 567 100 c 256
 520 100 396 123 290 203 c 257
 290 610 l 257
 402 776 520 825 567 825 c 256
 696 825 815 674 815 408 c 257
  PathStart: -1
EndSplineSet
Validated: 9
EndChar
StartChar: LtnCapTnSix
Encoding: 2 388 2
GlifName: L_tnC_apT_nS_ix
Width: 1126
VWidth: 0
Flags: W
AnchorPoint: "L" 533 -100 basechar 0
AnchorPoint: "U" 533 1370 basechar 0
LayerCount: 2
Back
SplineSet
559 -14 m 256
 829 -14 1016 129 1016 356 c 256
 1016 581 851 740 559 740 c 256
 458 740 361 725 291 705 c 257
 301 627 l 257
 363 639 432 650 520 650 c 256
 752 650 852 469 852 322 c 256
 852 172 729 70 537 70 c 256
 477 70 386 76 345 98 c 257
 123 0 l 257
 260 -6 474 -14 559 -14 c 256
50 0 m 257
 500 0 l 257
 500 43 l 257
 404 61 355 88 355 104 c 258
 355 485 l 258
 355 500 195 501 195 485 c 258
 195 104 l 258
 195 86 140 61 50 43 c 257
 50 0 l 257
195 354 m 257
 355 354 l 257
 355 1260 l 257
 319 1290 l 257
 245 1166 156 1035 50 930 c 257
 50 887 l 257
 161 858 195 787 195 726 c 258
 195 354 l 257
319 1290 m 257
 115 1290 l 257
 194 1220 l 257
 -16 897 l 257
 -6 885 -1 879 8 870 c 257
 42 884 106 913 138 945 c 257
 176 1000 327 1234 345 1263 c 257
 319 1290 l 257
EndSplineSet
Fore
SplineSet
559 -14 m 256
 829 -14 1016 129 1016 356 c 256
 1016 581 851 740 559 740 c 256
 458 740 361 725 291 705 c 257
 301 627 l 257
 363 639 432 650 520 650 c 256
 752 650 852 469 852 322 c 256
 852 172 729 70 537 70 c 256
 477 70 386 76 345 98 c 257
 123 0 l 257
 260 -6 474 -14 559 -14 c 256
50 0 m 257
 500 0 l 257
 500 43 l 257
 404 61 355 88 355 104 c 258
 355 485 l 257
 195 485 l 257
 195 104 l 258
 195 86 140 61 50 43 c 257
 50 0 l 257
195 354 m 257
 355 354 l 257
 355 1256 l 257
 346 1269 331 1283 319 1290 c 257
 286 1280 224 1242 194 1220 c 257
 -48 846 l 257
 -38 834 -33 828 -24 819 c 257
 10 833 74 862 106 894 c 257
 195 1030 l 257
 195 354 l 257
EndSplineSet
EndChar
StartChar: LtnSmTnSix
Encoding: 6 389 6
GlifName: L_tnS_mT_nS_ix
Width: 1060
VWidth: 0
Flags: W
AnchorPoint: "L" 489 -100 basechar 0
AnchorPoint: "U" 489 1690 basechar 0
AnchorPoint: "L" 445 -100 basechar 0
AnchorPoint: "U" 445 1690 basechar 0
LayerCount: 2
Back
SplineSet
310 727 m 257
 310 1520 l 257
 298 1530 286 1540 274 1550 c 257
 200 1426 116 1295 10 1190 c 257
 10 1147 l 257
 121 1118 160 1047 160 986 c 258
 160 96 l 1281
EndSplineSet
Fore
SplineSet
587 825 m 256
 716 825 835 674 835 408 c 256
 835 254 749 100 587 100 c 256
 540 100 416 123 310 203 c 257
 310 610 l 257
 422 776 540 825 587 825 c 256
160 1308 m 257
 160 96 l 257
 304 16 438 -30 489 -30 c 256
 784 -30 970 260 970 492 c 256
 970 784 839 960 657 960 c 256
 581 960 443 887 310 727 c 257
 310 1516 l 257
 300 1528 287 1540 273 1550 c 257
 240 1540 178 1502 148 1480 c 257
 -71 1142 l 257
 -61 1130 -56 1124 -47 1115 c 257
 -13 1129 51 1158 83 1190 c 257
 160 1308 l 257
EndSplineSet
EndChar
StartChar: LtnCapOpnO
Encoding: 1648 390 1632
GlifName: L_tnC_apO_pnO_
Width: 1098
VWidth: 0
Flags: W
AnchorPoint: "L" 508 -100 basechar 0
AnchorPoint: "U" 539 1370 basechar 0
LayerCount: 2
Fore
SplineSet
451 -30 m 256
 778 -30 1018 258 1018 678 c 257
 1018 1065 764 1290 514 1290 c 256
 379 1290 250 1260 70 1081 c 257
 76 1073 92 1042 106 1036 c 257
 266 1149 373 1175 444 1175 c 256
 635 1175 863 995 863 641 c 256
 863 225 684 85 496 85 c 256
 338 85 235 203 235 299 c 256
 235 373 250 412 326 457 c 257
 303 506 l 257
 256 489 180 463 121 432 c 257
 76 381 61 330 61 274 c 256
 61 137 190 -30 451 -30 c 256
  PathStart: -1
EndSplineSet
EndChar
StartChar: LtnCapCHook
Encoding: 1379 391 1363
GlifName: L_tnC_apC_H_ook
Width: 1098
VWidth: 0
Flags: W
AnchorPoint: "L" 614 -100 basechar 0
AnchorPoint: "U" 614 1370 basechar 0
LayerCount: 2
Fore
SplineSet
1018 211 m 257
 1010 219 995 250 981 256 c 257
 834 133 715 90 643 90 c 256
 453 90 225 268 225 623 c 256
 225 1038 455 1180 592 1180 c 256
 713 1180 807 1135 874 1073 c 257
 909 1067 l 257
 940 1098 1014 1178 999 1190 c 256
 930 1245 819 1290 676 1290 c 256
 348 1290 70 1012 70 586 c 256
 70 199 324 -30 571 -30 c 256
 709 -30 848 29 1018 211 c 257
  PathStart: -1
1395 1463 m 257
 1395 1488 1313 1590 1197 1590 c 256
 1145 1590 1064 1558 996 1498 c 257
 891 1408 852 1317 848 1131 c 257
 900 1152 932 1163 998 1189 c 257
 998 1378 1035 1467 1119 1467 c 256
 1156 1467 1213 1447 1268 1355 c 257
 1307 1373 1395 1441 1395 1463 c 257
  PathStart: -1
EndSplineSet
EndChar
StartChar: LtnSmCHook
Encoding: 2248 392 2232
GlifName: L_tnS_mC_H_ook
Width: 895
VWidth: 0
Flags: W
AnchorPoint: "L" 488 -100 basechar 0
AnchorPoint: "U" 488 1050 basechar 0
LayerCount: 2
Fore
SplineSet
1222 1423 m 257
 1222 1448 1140 1550 1024 1550 c 256
 972 1550 891 1518 823 1458 c 257
 718 1368 675 1278 675 1051 c 258
 675 951 l 257
 647 957 617 960 590 960 c 256
 303 960 80 731 80 444 c 256
 80 147 270 -30 465 -30 c 256
 590 -30 666 -14 840 190 c 257
 801 231 l 257
 653 104 612 100 537 100 c 256
 377 100 230 248 230 475 c 256
 230 725 360 850 500 850 c 256
 637 850 709 774 731 727 c 257
 768 717 l 257
 792 754 825 830 825 881 c 258
 825 1106 l 258
 825 1348 862 1425 946 1425 c 256
 983 1425 1040 1407 1095 1315 c 257
 1134 1333 1222 1401 1222 1423 c 257
  PathStart: -1
EndSplineSet
EndChar
StartChar: LtnCapDHook
Encoding: 1392 394 1376
GlifName: L_tnC_apD_H_ook
Width: 1444
VWidth: 0
Flags: W
AnchorPoint: "L" 732 -100 basechar 0
AnchorPoint: "U" 732 1370 basechar 0
LayerCount: 2
Fore
SplineSet
30 1003 m 256
 30 930 66 877 115 856 c 257
 170 867 256 914 263 930 c 257
 222 949 194 988 194 1036 c 256
 194 1145 312 1206 573 1206 c 256
 804 1206 905 1183 1003 1103 c 256
 1131 998 1183 818 1183 637 c 256
 1183 262 951 84 767 84 c 256
 625 84 585 104 585 150 c 257
 312 0 l 257
 789 0 l 258
 1025 0 1353 176 1353 676 c 256
 1353 890 1285 1081 1096 1202 c 256
 996 1266 875 1290 658 1290 c 256
 288 1290 30 1206 30 1003 c 256
  PathStart: -1
280 0 m 257
 730 0 l 257
 730 61 l 257
 633 80 585 102 585 154 c 258
 585 1239 l 257
 425 1239 l 257
 425 104 l 258
 425 86 370 61 280 43 c 257
 280 0 l 257
EndSplineSet
Validated: 5
EndChar
StartChar: LtnCapDTopbar
Encoding: 1403 395 1387
GlifName: L_tnC_apD_T_opbar
Width: 1126
VWidth: 0
Flags: W
AnchorPoint: "L" 593 -100 basechar 0
AnchorPoint: "U" 593 1370 basechar 0
LayerCount: 2
Fore
SplineSet
110 346 m 256
 110 99 297 -14 567 -14 c 257
 684 -14 1003 0 1003 0 c 257
 781 98 l 257
 740 76 649 70 589 70 c 257
 397 70 274 202 274 372 c 256
 274 519 374 650 606 650 c 256
 694 650 761 637 825 627 c 257
 835 705 l 257
 765 725 668 740 567 740 c 257
 275 740 110 551 110 346 c 256
  PathStart: -1
575 0 m 257
 1077 0 l 257
 1077 43 l 257
 987 61 931 86 931 104 c 257
 931 1155 l 258
 931 1171 981 1198 1077 1217 c 257
 1077 1260 l 257
 794 1260 l 257
 626 1260 l 257
 626 1217 l 257
 716 1198 771 1195 771 1177 c 257
 771 104 l 258
 771 86 735 70 575 43 c 257
 575 0 l 257
364 1170 m 258
 880 1170 l 257
 852 1260 l 257
 225 1260 l 257
 211 1190 191 1022 192 944 c 257
 235 925 l 257
 295 1081 323 1170 364 1170 c 258
EndSplineSet
Validated: 37
EndChar
StartChar: LtnSmDTopbar
Encoding: 2359 396 2343
GlifName: L_tnS_mD_T_opbar
Width: 1065
VWidth: 0
Flags: W
AnchorPoint: "L" 565 -100 basechar 0
AnchorPoint: "U" 565 1690 basechar 0
LayerCount: 2
Fore
SplineSet
1051 84 m 257
 1038 127 l 257
 958 96 930 92 918 106 c 256
 903 125 895 160 895 254 c 258
 895 1162 l 258
 895 1276 893 1398 915 1510 c 257
 884 1540 l 257
 833 1532 764 1520 688 1520 c 258
 233 1520 l 257
 219 1450 199 1282 200 1204 c 257
 243 1185 l 257
 303 1341 331 1430 372 1430 c 258
 750 1430 l 257
 745 1332 745 1233 745 1135 c 258
 745 272 l 258
 745 49 776 -30 829 -30 c 256
 866 -30 928 2 1051 84 c 257
  PathStart: -1
819 260 m 257
 813 270 799 289 782 297 c 257
 688 207 592 100 487 100 c 256
 377 100 230 248 230 475 c 256
 230 725 350 850 520 850 c 256
 621 850 711 801 752 717 c 257
 795 743 811 760 811 840 c 257
 707 944 631 960 551 960 c 256
 272 960 80 674 80 444 c 256
 80 147 268 -30 416 -30 c 256
 584 -30 684 84 819 260 c 257
  PathStart: -1
EndSplineSet
EndChar
StartChar: LtnSmTrndDelta
Encoding: 3290 397 3274
GlifName: L_tnS_mT_rndD_elta
Width: 995
VWidth: 0
Flags: W
AnchorPoint: "L" 497 -600 basechar 0
AnchorPoint: "U" 497 1050 basechar 0
LayerCount: 2
Fore
SplineSet
95 -459 m 257
 108 -478 112 -489 121 -495 c 257
 149 -475 202 -457 237 -457 c 256
 353 -457 450 -500 631 -500 c 256
 761 -500 888 -377 888 -254 c 256
 888 96 235 18 235 543 c 256
 235 716 339 836 456 836 c 256
 633 836 760 643 760 443 c 256
 760 254 664 101 481 26 c 257
 480 22 479 16 479 10 c 256
 479 -9 501 -33 512 -50 c 257
 742 39 915 227 915 498 c 256
 915 736 781 960 510 960 c 256
 293 960 80 720 80 474 c 256
 80 -45 767 -41 767 -302 c 256
 767 -366 706 -410 657 -410 c 256
 538 -410 346 -289 298 -289 c 256
 272 -289 182 -364 95 -459 c 257
  PathStart: -1
EndSplineSet
Validated: 5
EndChar
StartChar: LtnCapRevE
Encoding: 1684 398 1668
GlifName: L_tnC_apR_evE_
Width: 1016
VWidth: 0
Flags: W
AnchorPoint: "L" 509 -100 basechar 0
AnchorPoint: "U" 509 1370 basechar 0
LayerCount: 2
Fore
SplineSet
65 25 m 257
 98 0 l 257
 954 0 l 257
 954 43 l 257
 858 62 809 89 809 105 c 258
 809 1156 l 258
 809 1174 864 1199 954 1217 c 257
 954 1260 l 257
 181 1260 l 257
 170 1221 150 1131 140 1016 c 257
 183 998 l 257
 240 1154 283 1170 406 1170 c 258
 649 1170 l 257
 649 739 l 257
 508 739 l 258
 396 739 351 735 310 774 c 257
 281 753 240 700 218 663 c 257
 244 635 l 257
 287 646 377 655 439 655 c 258
 649 655 l 257
 649 163 l 258
 649 110 620 90 448 90 c 258
 233 90 l 258
 184 90 167 194 161 317 c 257
 116 317 l 257
 100 266 69 93 65 25 c 257
EndSplineSet
EndChar
StartChar: LtnCapSchwa
Encoding: 1707 399 1691
GlifName: L_tnC_apS_chwa
Width: 1122
VWidth: 0
Flags: W
AnchorPoint: "L" 561 -100 basechar 0
AnchorPoint: "U" 561 1370 basechar 0
LayerCount: 2
Fore
SplineSet
1042 678 m 256
 1042 1065 788 1290 538 1290 c 256
 403 1290 274 1260 94 1081 c 257
 98 1071 118 1044 130 1036 c 257
 290 1149 397 1175 468 1175 c 256
 659 1175 887 995 887 641 c 256
 887 225 728 85 540 85 c 256
 382 85 250 234 250 379 c 256
 250 453 282 500 320 500 c 258
 900 500 l 257
 900 590 l 257
 306 590 l 258
 288 590 177 540 115 502 c 257
 86 461 80 401 80 354 c 256
 80 177 234 -30 495 -30 c 256
 822 -30 1042 258 1042 678 c 256
  PathStart: -1
EndSplineSet
Validated: 5
EndChar
StartChar: LtnCapOpnE
Encoding: 1647 400 1631
GlifName: L_tnC_apO_pnE_
Width: 1042
VWidth: 0
Flags: W
AnchorPoint: "L" 521 -100 basechar 0
AnchorPoint: "U" 521 1370 basechar 0
LayerCount: 2
Fore
SplineSet
963 213 m 261
 920 258 l 261
 748 117 674 95 543 95 c 260
 373 95 240 201 240 344 c 260
 240 465 356 611 631 630 c 261
 631 705 l 261
 326 718 253 829 253 938 c 260
 253 1077 389 1180 535 1180 c 260
 653 1180 727 1145 811 1073 c 261
 854 1065 l 261
 889 1104 922 1141 944 1186 c 261
 858 1257 731 1290 588 1290 c 260
 481 1290 384 1255 299 1202 c 260
 181 1128 113 1020 113 905 c 260
 113 774 190 680 317 635 c 261
 193 580 80 438 80 283 c 260
 80 150 211 -30 457 -30 c 260
 659 -30 801 31 963 213 c 261
  PathStart: -1
EndSplineSet
EndChar
StartChar: LtnCapFHook
Encoding: 1459 401 1443
GlifName: L_tnC_apF_H_ook
Width: 979
VWidth: 0
Flags: W
AnchorPoint: "L" 586 -100 basechar 0
AnchorPoint: "U" 326 1370 basechar 0
LayerCount: 2
Fore
SplineSet
355 178 m 257
 355 651 l 257
 467 651 l 258
 578 651 625 635 664 596 c 257
 692 617 733 670 758 707 c 257
 729 735 l 257
 355 735 l 257
 355 1170 l 257
 729 1170 l 258
 780 1170 807 1133 811 1010 c 257
 858 1010 l 257
 874 1061 895 1167 897 1235 c 257
 866 1260 l 257
 50 1260 l 257
 50 1217 l 257
 146 1198 195 1171 195 1155 c 258
 195 104 l 258
 195 -184 97 -257 29 -257 c 256
 -22 -257 -55 -249 -129 -200 c 257
 -166 -214 -245 -278 -245 -300 c 256
 -245 -323 -161 -380 -80 -380 c 256
 -28 -380 84 -345 156 -288 c 257
 257 -204 355 -116 355 178 c 257
  PathStart: -1
EndSplineSet
Validated: 9
EndChar
StartChar: LtnSmFHook
Encoding: 2518 402 2502
GlifName: L_tnS_mF_H_ook
Width: 592
VWidth: 0
Flags: W
AnchorPoint: "L" 271 -600 basechar 0
AnchorPoint: "U" 271 1690 basechar 0
LayerCount: 2
Fore
SplineSet
793 1454 m 257
 793 1477 684 1550 602 1550 c 256
 551 1550 446 1516 375 1458 c 256
 268 1372 174 1276 174 961 c 258
 174 930 l 257
 98 930 l 257
 20 864 l 257
 41 836 l 257
 174 836 l 257
 174 45 l 258
 174 -285 88 -365 14 -365 c 256
 -37 -365 -70 -361 -124 -320 c 257
 -163 -338 -250 -409 -250 -431 c 256
 -250 -450 -168 -500 -88 -500 c 256
 -37 -500 53 -464 127 -407 c 256
 235 -324 326 -215 326 98 c 258
 326 836 l 257
 430 836 481 817 512 801 c 257
 539 813 588 864 612 901 c 257
 584 930 l 257
 326 930 l 257
 326 1016 l 258
 326 1346 426 1427 496 1427 c 256
 528 1427 600 1399 666 1343 c 257
 705 1362 793 1432 793 1454 c 257
  PathStart: -1
EndSplineSet
EndChar
StartChar: LtnCapGHook
Encoding: 1470 403 1454
GlifName: L_tnC_apG_H_ook
Width: 1194
VWidth: 0
Flags: W
AnchorPoint: "L" 640 -100 basechar 0
AnchorPoint: "U" 640 1370 basechar 0
LayerCount: 2
Fore
SplineSet
1145 567 m 257
 1145 610 l 257
 684 610 l 257
 684 567 l 257
 846 541 890 514 890 485 c 258
 890 98 l 258
 890 80 1040 160 1040 160 c 257
 1040 485 l 258
 1040 516 1069 549 1145 567 c 257
  PathStart: -1
1042 1188 m 257
 956 1253 825 1290 737 1290 c 256
 371 1290 70 1026 70 582 c 256
 70 170 350 -30 618 -30 c 256
 739 -30 842 -8 1040 154 c 257
 1032 164 973 186 956 195 c 257
 887 129 780 90 645 90 c 256
 442 90 225 266 225 637 c 256
 225 1053 498 1180 598 1180 c 256
 729 1180 825 1161 913 1077 c 257
 946 1071 l 257
 981 1102 1061 1174 1042 1188 c 257
  PathStart: -1
1440 1463 m 257
 1440 1488 1358 1590 1242 1590 c 256
 1190 1590 1109 1558 1041 1498 c 257
 936 1408 897 1317 893 1131 c 257
 945 1152 977 1163 1043 1189 c 257
 1043 1378 1080 1467 1164 1467 c 256
 1201 1467 1258 1447 1313 1355 c 257
 1352 1373 1440 1441 1440 1463 c 257
  PathStart: -1
EndSplineSet
EndChar
StartChar: LtnSmHv
Encoding: 2622 405 2606
GlifName: L_tnS_mH_v
Width: 1635
VWidth: 0
Flags: W
AnchorPoint: "L" 805 -100 basechar 0
AnchorPoint: "U" 805 1690 basechar 0
LayerCount: 2
Fore
SplineSet
810 454 m 257
 960 454 l 257
 960 741 l 258
 960 891 854 960 739 960 c 256
 635 960 460 854 345 684 c 257
 345 1516 l 257
 308 1550 l 257
 232 1511 168 1491 55 1470 c 257
 55 1430 l 257
 184 1415 195 1409 195 1298 c 258
 195 104 l 258
 195 82 143 66 55 43 c 257
 55 0 l 257
 485 0 l 257
 485 43 l 257
 399 61 345 84 345 104 c 258
 345 549 l 257
 460 735 590 830 682 830 c 256
 770 830 810 795 810 633 c 258
 810 454 l 257
1555 504 m 257
 1555 770 1445 922 1330 960 c 257
 1285 946 1179 917 1136 897 c 257
 1152 856 l 257
 1330 850 1405 657 1405 451 c 256
 1405 279 1338 90 1144 90 c 256
 1046 90 960 158 960 342 c 258
 960 691 l 257
 850 599 810 648 810 521 c 258
 810 289 l 258
 810 39 945 -30 1097 -30 c 256
 1330 -30 1555 225 1555 504 c 257
  PathStart: -1
EndSplineSet
Validated: 5
EndChar
StartChar: LtnCapIota
Encoding: 1519 406 1503
GlifName: L_tnC_apI_ota
Width: 713
VWidth: 0
Flags: W
AnchorPoint: "L" 361 -100 basechar 0
AnchorPoint: "U" 361 1370 basechar 0
LayerCount: 2
Fore
SplineSet
673 178 m 257
 655 221 l 257
 540 139 485 128 467 128 c 256
 408 128 395 174 395 415 c 258
 395 1290 l 257
 358 1290 l 257
 271 1246 162 1225 50 1203 c 257
 50 1160 l 257
 242 1143 235 1118 235 935 c 258
 235 281 l 258
 235 68 276 -30 360 -30 c 256
 429 -30 493 6 673 178 c 257
  PathStart: -1
EndSplineSet
EndChar
StartChar: LtnCapIStrk
Encoding: 1509 407 1493
GlifName: L_tnC_apI_S_trk
Width: 610
VWidth: 0
Flags: W
AnchorPoint: "L" 296 -100 basechar 0
AnchorPoint: "U" 296 1370 basechar 0
LayerCount: 2
Fore
SplineSet
520 615 m 257
 545 682 l 257
 520 705 l 257
 375 705 l 257
 375 1155 l 258
 375 1174 430 1198 520 1217 c 257
 520 1260 l 257
 70 1260 l 257
 70 1217 l 257
 166 1198 215 1171 215 1155 c 258
 215 705 l 257
 70 705 l 257
 62 684 54 659 48 639 c 257
 70 615 l 257
 215 615 l 257
 215 104 l 258
 215 86 160 61 70 43 c 257
 70 0 l 257
 520 0 l 257
 520 43 l 257
 424 61 375 88 375 104 c 258
 375 615 l 257
 520 615 l 257
EndSplineSet
Validated: 9
EndChar
StartChar: LtnCapKHook
Encoding: 1536 408 1520
GlifName: L_tnC_apK_H_ook
Width: 1263
VWidth: 0
Flags: W
AnchorPoint: "L" 641 -100 basechar 0
AnchorPoint: "U" 641 1370 basechar 0
LayerCount: 2
Fore
SplineSet
1042 856 m 257
 1105 873 1214 921 1221 943 c 257
 1229 981 1233 1015 1233 1046 c 256
 1232 1205 1125 1270 1000 1270 c 256
 896 1270 802 1214 717 1103 c 257
 352 643 l 257
 854 29 l 258
 881 -4 909 -14 948 -14 c 256
 1012 -14 1096 12 1174 37 c 257
 1167 80 l 257
 1098 72 1032 74 985 127 c 258
 500 673 l 257
 804 1042 l 257
 848 1105 908 1151 959 1151 c 256
 1015 1151 1056 1108 1058 1027 c 256
 1059 989 1049 942 1024 885 c 257
 1042 856 l 257
50 0 m 257
 500 0 l 257
 500 43 l 257
 403 61 355 88 355 104 c 258
 355 1155 l 258
 355 1174 410 1198 500 1217 c 257
 500 1260 l 257
 50 1260 l 257
 50 1217 l 257
 146 1198 195 1171 195 1155 c 258
 195 104 l 258
 195 86 140 61 50 43 c 257
 50 0 l 257
EndSplineSet
EndChar
StartChar: LtnSmKHook
Encoding: 2770 409 2754
GlifName: L_tnS_mK_H_ook
Width: 1024
VWidth: 0
Flags: W
AnchorPoint: "L" 539 -100 basechar 0
AnchorPoint: "U" 539 1690 basechar 0
LayerCount: 2
Fore
SplineSet
1024 18 m 257
 1018 61 l 257
 940 55 901 68 864 111 c 258
 488 552 l 257
 829 825 l 258
 885 870 930 881 989 887 c 257
 989 930 l 257
 610 930 l 257
 610 887 l 257
 680 887 741 877 653 799 c 258
 345 530 l 257
 345 936 l 258
 345 1317 482 1425 567 1425 c 256
 649 1425 721 1380 782 1311 c 257
 821 1328 909 1400 909 1421 c 256
 909 1446 786 1550 677 1550 c 256
 623 1550 514 1521 436 1459 c 256
 290 1343 198 1216 195 896 c 257
 195 104 l 258
 195 80 143 66 55 43 c 257
 55 0 l 257
 455 0 l 257
 455 43 l 257
 356 74 345 84 345 104 c 258
 345 522 l 257
 725 43 l 257
 754 4 784 -10 840 -10 c 256
 868 -10 946 0 1024 18 c 257
  PathStart: -1
EndSplineSet
Validated: 41
EndChar
StartChar: LtnSmLBar
Encoding: 2789 410 2773
GlifName: L_tnS_mL_B_ar
Width: 654
VWidth: 0
Flags: W
AnchorPoint: "L" 327 -100 basechar 0
AnchorPoint: "U" 327 1690 basechar 0
LayerCount: 2
Fore
SplineSet
102 0 m 257
 552 0 l 257
 552 43 l 257
 443 61 402 84 402 104 c 258
 402 1516 l 257
 366 1550 l 257
 284 1507 208 1489 112 1470 c 257
 112 1430 l 257
 224 1417 252 1417 252 1296 c 258
 252 104 l 258
 252 82 217 63 102 43 c 257
 102 0 l 257
562 740 m 257
 584 805 l 257
 562 830 l 257
 92 830 l 257
 82 809 76 783 70 762 c 257
 92 740 l 257
 562 740 l 257
EndSplineSet
EndChar
StartChar: LtnSmLambdaStrk
Encoding: 2836 411 2820
GlifName: L_tnS_mL_ambdaS_trk
Width: 1083
VWidth: 0
Flags: W
AnchorPoint: "L" 556 -100 basechar 0
AnchorPoint: "U" 556 1690 basechar 0
LayerCount: 2
Fore
SplineSet
1093 92 m 257
 1083 137 l 257
 1017 107 1000 100 968 100 c 256
 894 100 809 373 702 768 c 256
 517 1453 474 1510 381 1510 c 256
 326 1510 247 1466 113 1330 c 257
 137 1279 l 257
 202 1330 247 1350 294 1350 c 256
 366 1350 426 1285 572 743 c 256
 746 95 781 -30 887 -30 c 256
 932 -30 993 16 1093 92 c 257
  PathStart: -1
586 794 m 257
 581 814 548 938 520 963 c 257
 436 692 233 273 20 2 c 257
 50 -30 l 257
 97 -16 197 12 249 26 c 257
 348 337 460 549 586 794 c 257
  PathStart: -1
855 1423 m 257
 827 1447 l 257
 199 999 l 257
 178 942 182 944 176 909 c 257
 205 884 l 257
 831 1334 l 257
 849 1380 847 1378 855 1423 c 257
  PathStart: -1
EndSplineSet
EndChar
StartChar: LtnCapTrndM
Encoding: 1739 412 1723
GlifName: L_tnC_apT_rndM_
Width: 1962
VWidth: 0
Flags: W
AnchorPoint: "L" 985 -100 basechar 0
AnchorPoint: "U" 985 1370 basechar 0
LayerCount: 2
Fore
SplineSet
500 1260 m 257
 50 1260 l 257
 50 1217 l 257
 147 1197 195 1173 195 1155 c 258
 195 324 l 258
 195 73 304 -30 474 -30 c 256
 596 -30 761 69 911 293 c 257
 919 138 972 -30 1182 -30 c 256
 1301 -30 1455 57 1615 294 c 257
 1615 6 l 257
 1652 -30 l 257
 1749 13 1785 22 1920 50 c 257
 1920 93 l 257
 1794 106 1775 116 1775 234 c 258
 1775 1155 l 258
 1775 1173 1824 1197 1920 1217 c 257
 1920 1260 l 257
 1470 1260 l 257
 1470 1217 l 257
 1562 1198 1615 1173 1615 1155 c 258
 1615 459 l 257
 1464 234 1338 110 1227 110 c 256
 1117 110 1065 199 1065 419 c 258
 1065 1155 l 258
 1065 1173 1114 1197 1210 1217 c 257
 1210 1260 l 257
 760 1260 l 257
 760 1217 l 257
 849 1199 905 1173 905 1155 c 258
 905 459 l 257
 770 237 627 110 519 110 c 256
 412 110 355 179 355 429 c 258
 355 1155 l 258
 355 1173 399 1195 500 1217 c 257
 500 1260 l 257
EndSplineSet
Validated: 9
EndChar
StartChar: LtnCapNLftHook
Encoding: 1586 413 1570
GlifName: L_tnC_apN_L_ftH_ook
Width: 1329
VWidth: 0
Flags: W
AnchorPoint: "L" 665 -600 basechar 0
AnchorPoint: "U" 665 1370 basechar 0
LayerCount: 2
Fore
SplineSet
1280 1217 m 257
 1280 1260 l 257
 870 1260 l 257
 870 1217 l 257
 977 1202 1015 1171 1015 1155 c 258
 1015 71 l 257
 1135 32 l 257
 1135 1155 l 258
 1135 1174 1184 1204 1280 1217 c 257
  PathStart: -1
1135 -30 m 257
 1135 120 l 257
 1135 120 1045 234 1017 273 c 258
 358 1182 l 258
 307 1251 301 1260 262 1260 c 258
 50 1260 l 257
 50 1217 l 257
 120 1206 182 1176 238 1100 c 258
 1016 21 l 258
 1032 -1 1069 -22 1135 -30 c 257
  PathStart: -1
315 1155 m 257
 195 1155 l 257
 195 133 l 258
 195 -180 99 -257 29 -257 c 256
 -22 -257 -55 -249 -129 -200 c 257
 -166 -214 -245 -278 -245 -300 c 256
 -245 -323 -161 -380 -80 -380 c 256
 -28 -380 84 -345 156 -288 c 256
 260 -202 315 -111 315 205 c 258
 315 1155 l 257
EndSplineSet
EndChar
StartChar: LtnSmNLngRtLeg
Encoding: 2907 414 2891
GlifName: L_tnS_mN_L_ngR_tL_eg
Width: 1120
VWidth: 0
Flags: W
AnchorPoint: "L" 577 -600 basechar 0
AnchorPoint: "U" 577 1050 basechar 0
LayerCount: 2
Fore
SplineSet
670 -480 m 257
 1100 -480 l 257
 1100 -437 l 257
 995 -410 960 -394 960 -376 c 258
 960 741 l 258
 960 891 854 960 739 960 c 256
 635 960 458 854 341 676 c 257
 330 925 l 257
 295 960 l 257
 221 923 145 894 55 880 c 257
 55 840 l 257
 190 825 195 815 195 711 c 258
 195 104 l 258
 195 82 143 66 55 43 c 257
 55 0 l 257
 485 0 l 257
 485 43 l 257
 399 61 345 84 345 104 c 258
 345 549 l 257
 474 756 600 830 682 830 c 256
 776 830 810 795 810 633 c 258
 810 -376 l 258
 810 -394 766 -412 670 -437 c 257
 670 -480 l 257
EndSplineSet
EndChar
StartChar: LtnCapOMiddleTilde
Encoding: 1631 415 1615
GlifName: L_tnC_apO_M_iddleT_ilde
Width: 1229
VWidth: 0
Flags: W
AnchorPoint: "L" 604 -100 basechar 0
AnchorPoint: "U" 604 1370 basechar 0
LayerCount: 2
Fore
SplineSet
1138 647 m 256
 1138 973 963 1290 633 1290 c 256
 319 1290 70 975 70 612 c 256
 70 276 254 -30 575 -30 c 256
 879 -30 1138 285 1138 647 c 256
  PathStart: -1
225 615 m 257
 982 615 l 257
 978 271 822 90 604 90 c 256
 405 90 235 327 225 615 c 257
979 705 m 257
 227 705 l 257
 244 994 383 1175 604 1175 c 256
 810 1175 954 952 979 705 c 257
  PathStart: -1
EndSplineSet
EndChar
StartChar: LtnCapOi
Encoding: 1643 418 1627
GlifName: L_tnC_apO_i
Width: 1854
VWidth: 0
Flags: W
AnchorPoint: "L" 776 -100 basechar 0
AnchorPoint: "U" 927 1370 basechar 0
LayerCount: 2
Fore
SplineSet
1335 -350 m 257
 1785 -350 l 257
 1785 -307 l 257
 1689 -289 1640 -262 1640 -246 c 258
 1640 981 l 258
 1640 1231 1491 1290 1376 1290 c 256
 1260 1290 1136 1237 1004 1098 c 257
 919 1214 794 1290 633 1290 c 256
 319 1290 70 975 70 612 c 256
 70 276 254 -30 575 -30 c 256
 879 -30 1138 285 1138 647 c 256
 1138 775 1110 902 1057 1009 c 257
 1168 1132 1240 1150 1309 1150 c 256
 1409 1150 1480 1090 1480 872 c 258
 1480 -246 l 258
 1480 -264 1425 -289 1335 -307 c 257
 1335 -350 l 257
983 629 m 256
 983 276 825 90 604 90 c 256
 399 90 225 342 225 641 c 256
 225 967 367 1175 604 1175 c 256
 831 1175 983 905 983 629 c 256
  PathStart: -1
EndSplineSet
Validated: 9
EndChar
StartChar: LtnSmOi
Encoding: 3046 419 3030
GlifName: L_tnS_mO_i
Width: 1540
VWidth: 0
Flags: W
AnchorPoint: "L" 636 -100 basechar 0
AnchorPoint: "U" 800 1050 basechar 0
LayerCount: 2
Fore
SplineSet
950 485 m 257
 950 758 786 960 535 960 c 256
 285 960 80 709 80 444 c 256
 80 172 244 -30 496 -30 c 256
 739 -30 950 219 950 485 c 257
  PathStart: -1
795 455 m 257
 795 227 713 80 524 80 c 256
 401 80 235 262 235 473 c 256
 235 686 303 850 506 850 c 256
 643 850 795 666 795 455 c 257
  PathStart: -1
1090 -480 m 257
 1520 -480 l 257
 1520 -437 l 257
 1415 -410 1380 -394 1380 -376 c 258
 1380 741 l 258
 1380 891 1274 960 1159 960 c 256
 1055 960 915 865 798 687 c 257
 802 560 l 257
 931 767 1020 830 1102 830 c 256
 1196 830 1230 795 1230 633 c 258
 1230 -376 l 258
 1230 -394 1186 -412 1090 -437 c 257
 1090 -480 l 257
EndSplineSet
Validated: 5
EndChar
StartChar: LtnCapPHook
Encoding: 1657 420 1641
GlifName: L_tnC_apP_H_ook
Width: 1301
VWidth: 0
Flags: W
AnchorPoint: "L" 621 -100 basechar 0
AnchorPoint: "U" 621 1370 basechar 0
LayerCount: 2
Fore
SplineSet
803 535 m 256
 959 535 1212 659 1212 936 c 256
 1212 1112 1114 1216 952 1261 c 256
 886 1279 816 1290 629 1290 c 256
 223 1290 30 1177 30 1003 c 257
 30 930 66 877 115 856 c 257
 170 867 256 914 263 930 c 257
 222 949 194 988 194 1036 c 256
 194 1145 315 1206 573 1206 c 256
 757 1206 798 1198 876 1172 c 256
 987 1135 1057 1035 1057 895 c 256
 1057 707 896 610 773 610 c 256
 726 610 674 615 619 640 c 257
 642 565 l 257
 687 545 742 535 803 535 c 256
  PathStart: -1
280 0 m 257
 760 0 l 257
 760 43 l 257
 621 66 585 88 585 104 c 258
 585 1240 l 257
 425 1240 l 257
 425 104 l 258
 425 86 370 61 280 43 c 257
 280 0 l 257
EndSplineSet
EndChar
StartChar: LtnSmPHook
Encoding: 3079 421 3063
GlifName: L_tnS_mP_H_ook
Width: 1040
VWidth: 0
Flags: W
AnchorPoint: "L" 679 -100 basechar 0
AnchorPoint: "U" 496 1690 basechar 0
LayerCount: 2
Fore
SplineSet
950 492 m 256
 950 784 817 960 635 960 c 256
 559 960 423 894 290 734 c 257
 290 936 l 257
 290 1317 426 1425 512 1425 c 256
 590 1425 672 1380 727 1311 c 257
 766 1329 854 1399 854 1421 c 256
 854 1446 737 1550 618 1550 c 256
 567 1550 451 1516 379 1458 c 256
 238 1345 140 1208 140 898 c 258
 140 -375 l 258
 140 -398 88 -416 0 -437 c 257
 0 -480 l 257
 459 -480 l 257
 459 -437 l 257
 334 -418 290 -396 290 -375 c 258
 290 98 l 257
 384 16 490 -30 568 -30 c 256
 763 -30 950 260 950 492 c 256
815 426 m 257
 815 213 709 100 566 100 c 256
 494 100 409 123 290 213 c 257
 290 610 l 257
 407 782 520 835 568 835 c 256
 697 835 815 659 815 426 c 257
EndSplineSet
Validated: 9
EndChar
StartChar: LtnYr
Encoding: 3684 422 3668
GlifName: L_tnY_r
Width: 1123
VWidth: 0
Flags: W
AnchorPoint: "L" 492 -100 basechar 0
AnchorPoint: "U" 552 1370 basechar 0
LayerCount: 2
Fore
SplineSet
259 1005 m 257
 255 926 l 257
 317 932 375 936 432 936 c 256
 710 936 790 827 792 726 c 256
 795 590 684 504 444 504 c 256
 410 504 384 506 337 514 c 257
 343 432 l 257
 384 422 424 418 461 418 c 256
 749 418 946 541 946 757 c 256
 946 889 818 1020 469 1020 c 256
 390 1020 322 1014 259 1005 c 257
1173 -196 m 257
 1162 -153 l 257
 1072 -161 1023 -151 982 -94 c 257
 573 508 l 257
 469 442 l 257
 851 -192 l 257
 870 -221 911 -247 949 -247 c 256
 1001 -247 1085 -225 1173 -196 c 257
  PathStart: -1
50 0 m 257
 500 0 l 257
 500 43 l 257
 404 61 355 88 355 104 c 258
 355 1155 l 258
 355 1174 410 1198 500 1217 c 257
 500 1260 l 257
 50 1260 l 257
 50 1217 l 257
 146 1198 195 1171 195 1155 c 258
 195 104 l 258
 195 86 140 61 50 43 c 257
 50 0 l 257
EndSplineSet
EndChar
StartChar: LtnCapTnTwo
Encoding: 1736 423 1720
GlifName: L_tnC_apT_nT_wo
Width: 975
VWidth: 0
Flags: W
AnchorPoint: "L" 499 -100 basechar 0
AnchorPoint: "U" 499 1370 basechar 0
LayerCount: 2
Fore
SplineSet
115 337 m 257
 115 159 229 -30 490 -30 c 256
 638 -30 775 28 869 88 c 256
 887 98 889 272 869 344 c 257
 828 339 l 257
 767 182 640 90 504 90 c 256
 374 90 248 187 248 324 c 256
 248 649 873 570 873 997 c 256
 873 1122 817 1290 524 1290 c 256
 403 1290 226 1231 177 1178 c 257
 158 1162 212 1054 245 1025 c 257
 281 1031 l 257
 315 1119 407 1186 533 1186 c 256
 681 1186 746 1090 746 1014 c 256
 746 762 115 792 115 337 c 257
  PathStart: -1
EndSplineSet
EndChar
StartChar: LtnSmTnTwo
Encoding: 3283 424 3267
GlifName: L_tnS_mT_nT_wo
Width: 791
VWidth: 0
Flags: W
AnchorPoint: "L" 396 -100 basechar 0
AnchorPoint: "U" 396 1050 basechar 0
LayerCount: 2
Fore
SplineSet
88 243 m 257
 88 50 232 -30 382 -30 c 256
 475 -30 593 4 682 63 c 257
 700 71 694 243 675 303 c 257
 632 292 l 257
 626 180 520 70 382 70 c 256
 286 70 218 133 218 227 c 256
 218 334 344 385 466 449 c 256
 577 506 684 573 684 730 c 256
 684 896 568 960 417 960 c 256
 333 960 178 910 124 863 c 256
 108 848 152 714 169 693 c 257
 208 701 l 257
 228 818 298 870 413 870 c 256
 501 870 554 815 554 750 c 256
 554 664 444 618 333 559 c 257
 217 500 88 412 88 243 c 257
  PathStart: -1
EndSplineSet
Validated: 41
EndChar
StartChar: LtnCapEsh
Encoding: 1448 425 1432
GlifName: L_tnC_apE_sh
Width: 1064
VWidth: 0
Flags: W
AnchorPoint: "L" 534 -100 basechar 0
AnchorPoint: "U" 556 1370 basechar 0
LayerCount: 2
Fore
SplineSet
1009 345 m 257
 956 357 l 257
 907 182 892 140 808 140 c 258
 256 140 l 257
 653 674 l 257
 311 1160 l 257
 780 1160 l 258
 819 1160 866 1161 915 963 c 257
 971 975 l 257
 967 1276 l 257
 887 1260 829 1260 754 1260 c 258
 80 1260 l 257
 80 1217 l 257
 496 635 l 257
 59 43 l 257
 90 0 l 257
 983 0 l 257
 989 72 1003 238 1009 345 c 257
  PathStart: -1
EndSplineSet
Validated: 41
EndChar
StartChar: LtnRevEshLoop
Encoding: 1876 426 1860
GlifName: L_tnR_evE_shL_oop
Width: 706
VWidth: 0
Flags: W
AnchorPoint: "L" 504 -600 basechar 0
AnchorPoint: "U" 504 1690 basechar 0
LayerCount: 2
Fore
SplineSet
30 1282 m 256
 30 1175 98 1092 213 1092 c 257
 306 1093 400 1144 471 1273 c 257
 427 1335 l 257
 419 1327 369 1213 269 1213 c 256
 211 1213 155 1262 155 1334 c 256
 155 1396 205 1455 263 1455 c 256
 359 1455 410 1349 410 1146 c 256
 410 793 365 356 365 -40 c 256
 365 -324 451 -500 633 -500 c 256
 818 -500 986 -336 978 -235 c 257
 959 -196 l 257
 918 -190 785 -252 793 -264 c 256
 828 -321 775 -405 697 -405 c 256
 591 -405 525 -299 525 21 c 256
 525 355 570 802 570 1207 c 256
 570 1381 499 1550 337 1550 c 256
 162 1550 30 1399 30 1282 c 256
  PathStart: -1
EndSplineSet
Validated: 37
EndChar
StartChar: LtnSmTPalHook
Encoding: 3265 427 3249
GlifName: L_tnS_mT_P_alH_ook
Width: 705
VWidth: 0
Flags: W
AnchorPoint: "L" 348 -600 basechar 0
AnchorPoint: "U" 348 1320 basechar 0
LayerCount: 2
Fore
SplineSet
676 117 m 257
 647 168 l 257
 543 115 475 100 428 100 c 256
 348 100 320 147 320 307 c 258
 320 835 l 257
 372 835 l 258
 480 835 543 816 575 800 c 257
 602 812 651 864 676 901 c 257
 647 930 l 257
 320 930 l 257
 320 1255 l 257
 289 1280 l 257
 170 1176 l 257
 170 930 l 257
 98 930 l 257
 20 863 l 257
 41 835 l 257
 170 835 l 257
 170 221 l 258
 170 35 252 -30 344 -30 c 256
 414 -30 545 20 676 117 c 257
  PathStart: -1
239 -287 m 257
 227 -400 318 -500 433 -500 c 257
 535 -500 676 -452 676 -167 c 258
 676 117 l 257
 645 103 622 95 586 83 c 257
 586 -196 l 257
 586 -359 545 -405 479 -405 c 256
 426 -405 355 -341 399 -221 c 257
 392 -210 381 -200 376 -194 c 257
 334 -210 262 -259 239 -287 c 257
  PathStart: -1
EndSplineSet
Validated: 37
EndChar
StartChar: LtnCapTHook
Encoding: 1727 428 1711
GlifName: L_tnC_apT_H_ook
Width: 1219
VWidth: 0
Flags: W
AnchorPoint: "L" 632 -100 basechar 0
AnchorPoint: "U" 632 1370 basechar 0
LayerCount: 2
Fore
SplineSet
30 1003 m 257
 30 930 66 877 115 856 c 257
 170 867 256 914 263 930 c 257
 222 949 194 988 194 1036 c 256
 194 1145 285 1170 393 1170 c 258
 562 1170 l 257
 562 115 l 258
 562 96 521 68 398 43 c 257
 398 0 l 257
 886 0 l 257
 886 43 l 257
 763 68 722 98 722 115 c 258
 722 1170 l 257
 1006 1170 l 258
 1066 1170 1074 1113 1099 1000 c 257
 1144 1000 l 257
 1160 1084 1172 1167 1174 1235 c 257
 1144 1260 l 257
 359 1260 l 258
 183 1260 30 1177 30 1003 c 257
  PathStart: -1
EndSplineSet
EndChar
StartChar: LtnSmTHook
Encoding: 3256 429 3240
GlifName: L_tnS_mT_H_ook
Width: 705
VWidth: 0
Flags: W
AnchorPoint: "L" 396 -100 basechar 0
AnchorPoint: "U" 416 1690 basechar 0
LayerCount: 2
Fore
SplineSet
717 1423 m 256
 717 1448 635 1550 519 1550 c 256
 467 1550 386 1518 318 1458 c 256
 214 1368 170 1279 170 1056 c 258
 170 930 l 257
 98 930 l 257
 20 862 l 257
 41 834 l 257
 170 834 l 257
 170 221 l 258
 170 35 252 -30 344 -30 c 256
 414 -30 545 20 676 117 c 257
 647 168 l 257
 543 115 475 100 428 100 c 256
 348 100 320 147 320 307 c 258
 320 834 l 257
 372 834 l 258
 480 834 543 815 575 799 c 257
 602 811 651 864 676 901 c 257
 647 930 l 257
 320 930 l 257
 320 1135 l 257
 323 1354 360 1425 441 1425 c 256
 478 1425 535 1407 590 1315 c 257
 629 1333 717 1401 717 1423 c 256
  PathStart: -1
EndSplineSet
Validated: 9
EndChar
StartChar: LtnCapTRetrHook
Encoding: 1730 430 1714
GlifName: L_tnC_apT_R_etrH_ook
Width: 1128
VWidth: 0
Flags: W
AnchorPoint: "L" 552 -600 basechar 0
AnchorPoint: "U" 552 1370 basechar 0
LayerCount: 2
Fore
SplineSet
1078 -115 m 257
 1059 -76 l 257
 1018 -70 885 -132 893 -144 c 256
 928 -201 865 -285 787 -285 c 256
 691 -285 630 -209 630 14 c 258
 630 1170 l 257
 914 1170 l 258
 974 1170 982 1113 1007 1000 c 257
 1052 1000 l 257
 1068 1084 1080 1167 1082 1235 c 257
 1052 1260 l 257
 42 1260 l 257
 28 1190 15 1092 9 1014 c 257
 52 995 l 257
 112 1151 130 1170 171 1170 c 258
 470 1170 l 257
 470 -47 l 258
 470 -271 551 -380 713 -380 c 256
 908 -380 1086 -216 1078 -115 c 257
  PathStart: -1
EndSplineSet
EndChar
StartChar: LtnCapUpsilon
Encoding: 1783 433 1767
GlifName: L_tnC_apU_psilon
Width: 1302
VWidth: 0
Flags: W
AnchorPoint: "L" 641 -100 basechar 0
AnchorPoint: "U" 641 1370 basechar 0
LayerCount: 2
Fore
SplineSet
1212 1217 m 257
 1212 1260 l 257
 780 1260 l 257
 753 1201 l 257
 923 1099 1014 865 1014 595 c 256
 1014 313 871 90 651 90 c 256
 434 90 255 326 255 615 c 256
 255 883 331 1075 530 1201 c 257
 506 1260 l 257
 70 1260 l 257
 70 1217 l 257
 70 1217 338 1174 283 1111 c 256
 178 991 100 798 100 576 c 256
 100 234 316 -30 625 -30 c 256
 954 -30 1169 331 1169 623 c 256
 1169 835 1095 1002 997 1111 c 256
 942 1172 1212 1217 1212 1217 c 257
  PathStart: -1
EndSplineSet
Validated: 41
EndChar
StartChar: LtnCapVHook
Encoding: 1788 434 1772
GlifName: L_tnC_apV_H_ook
Width: 1258
VWidth: 0
Flags: W
AnchorPoint: "L" 609 -100 basechar 0
AnchorPoint: "U" 609 1370 basechar 0
LayerCount: 2
Fore
SplineSet
877 1290 m 257
 647 1233 l 257
 669 1172 l 257
 925 1177 1018 881 1018 686 c 256
 1018 318 825 85 655 85 c 256
 467 85 355 238 355 494 c 258
 355 1155 l 258
 355 1174 410 1198 500 1217 c 257
 500 1260 l 257
 50 1260 l 257
 50 1217 l 257
 146 1198 195 1171 195 1155 c 258
 195 444 l 258
 195 119 381 -30 616 -30 c 256
 904 -30 1168 313 1168 754 c 256
 1168 986 1059 1260 877 1290 c 257
  PathStart: -1
EndSplineSet
EndChar
StartChar: LtnCapYHook.RtHook
Encoding: 1819 435 1803
GlifName: L_tnC_apY_H_ook.R_tH_ook
Width: 1387
VWidth: 0
Flags: W
AnchorPoint: "L" 604 -100 basechar 0
AnchorPoint: "U" 636 1370 basechar 0
LayerCount: 2
Fore
SplineSet
360 0 m 257
 850 0 l 257
 850 43 l 257
 725 68 684 98 684 115 c 258
 684 541 l 257
 989 1095 l 258
 1020 1151 1062 1201 1113 1201 c 256
 1179 1201 1212 1143 1212 1077 c 256
 1212 1029 1197 1001 1178 965 c 257
 1196 936 l 257
 1236 947 1361 989 1375 1023 c 256
 1381 1039 1387 1075 1387 1101 c 256
 1387 1218 1291 1320 1166 1320 c 256
 1007 1320 932 1222 862 1100 c 258
 623 680 l 257
 530 872 397 1102 297 1231 c 256
 276 1257 248 1270 219 1270 c 256
 164 1270 78 1260 0 1249 c 257
 4 1206 l 257
 115 1206 143 1180 168 1151 c 257
 261 1023 426 753 524 537 c 257
 524 115 l 258
 524 96 481 68 360 43 c 257
 360 0 l 257
EndSplineSet
EndChar
StartChar: LtnSmYHook.RtHook
Encoding: 3510 436 3494
GlifName: L_tnS_mY_H_ook.R_tH_ook
Width: 1141
VWidth: 0
Flags: W
AnchorPoint: "L" 770 -100 basechar 0
AnchorPoint: "U" 552 1050 basechar 0
LayerCount: 2
Fore
SplineSet
406 887 m 257
 406 930 l 257
 20 930 l 257
 20 887 l 257
 86 872 119 856 131 819 c 257
 460 -29 l 257
 437 -91 l 258
 377 -250 276 -345 194 -345 c 256
 165 -345 122 -346 70 -313 c 257
 18 -346 -47 -429 -47 -448 c 256
 -47 -472 34 -500 115 -500 c 256
 245 -500 424 -411 541 -93 c 257
 840 732 l 258
 899 891 971 993 1050 993 c 256
 1085 993 1134 976 1164 943 c 257
 1216 976 1281 1059 1281 1078 c 256
 1281 1090 1222 1150 1119 1150 c 256
 989 1150 836 1056 730 734 c 257
 539 182 l 257
 293 819 l 258
 276 862 303 874 406 887 c 257
EndSplineSet
Validated: 41
EndChar
StartChar: LtnSmZStrk
Encoding: 3570 438 3554
GlifName: L_tnS_mZ_S_trk
Width: 905
VWidth: 0
Flags: W
AnchorPoint: "L" 452 -100 basechar 0
AnchorPoint: "U" 480 1050 basechar 0
LayerCount: 2
Fore
SplineSet
829 248 m 257
 782 258 l 257
 752 137 725 90 692 90 c 258
 270 90 l 257
 827 887 l 257
 805 930 l 257
 313 930 l 258
 227 930 195 930 137 946 c 257
 119 702 l 257
 168 690 l 257
 195 813 242 840 285 840 c 258
 631 840 l 257
 76 45 l 257
 102 0 l 257
 817 0 l 257
 825 47 829 164 829 248 c 257
  PathStart: -1
731 415 m 257
 753 480 l 257
 731 505 l 257
 184 505 l 257
 173 484 167 458 161 437 c 257
 184 415 l 257
 731 415 l 257
EndSplineSet
EndChar
StartChar: LtnCapEzh
Encoding: 1451 439 1435
GlifName: L_tnC_apE_zh
Width: 1066
VWidth: 0
Flags: W
AnchorPoint: "L" 520 -100 basechar 0
AnchorPoint: "U" 535 1370 basechar 0
LayerCount: 2
Fore
SplineSet
524 726 m 257
 921 1217 l 257
 896 1260 l 257
 327 1260 l 258
 241 1260 208 1260 151 1276 c 257
 121 975 l 257
 178 963 l 257
 205 1086 265 1160 308 1160 c 258
 690 1160 l 257
 277 661 l 257
 312 617 l 257
 524 726 l 257
976 434 m 257
 976 668 811 793 638 793 c 256
 524 793 375 721 277 662 c 257
 283 651 303 625 312 618 c 257
 401 662 460 692 534 692 c 256
 715 692 826 543 826 383 c 256
 826 180 696 90 527 90 c 256
 416 90 290 166 233 265 c 257
 178 257 94 168 94 153 c 256
 94 108 258 -30 488 -30 c 256
 742 -30 976 152 976 434 c 257
  PathStart: -1
EndSplineSet
EndChar
StartChar: LtnCapEzhRev
Encoding: 1455 440 1439
GlifName: L_tnC_apE_zhR_ev
Width: 1092
VWidth: 0
Flags: W
AnchorPoint: "L" 520 -100 basechar 0
AnchorPoint: "U" 540 1370 basechar 0
LayerCount: 2
Fore
SplineSet
141 1217 m 257
 538 726 l 257
 667 703 l 257
 708 753 l 257
 372 1160 l 257
 754 1160 l 258
 797 1160 857 1086 884 963 c 257
 941 975 l 257
 911 1276 l 257
 854 1260 821 1260 735 1260 c 258
 166 1260 l 257
 141 1217 l 257
90 354 m 257
 90 92 324 -30 518 -30 c 256
 768 -30 992 199 990 330 c 257
 981 340 972 350 963 360 c 257
 916 357 832 333 786 312 c 257
 812 166 698 90 559 90 c 256
 440 90 240 170 240 403 c 256
 240 583 382 687 532 687 c 256
 563 687 615 683 650 664 c 257
 676 693 697 725 708 752 c 257
 655 768 601 783 548 799 c 257
 285 763 91 622 90 354 c 257
  PathStart: -1
EndSplineSet
EndChar
StartChar: LtnSmEzhRev
Encoding: 2509 441 2493
GlifName: L_tnS_mE_zhR_ev
Width: 920
VWidth: 0
Flags: W
AnchorPoint: "L" 460 -600 basechar 0
AnchorPoint: "U" 460 1050 basechar 0
LayerCount: 2
Fore
SplineSet
40 -96 m 257
 40 -358 234 -500 458 -500 c 256
 668 -500 895 -311 880 -170 c 257
 853 -140 l 257
 806 -143 742 -167 696 -188 c 257
 738 -319 608 -395 489 -395 c 256
 350 -395 190 -280 190 -47 c 256
 190 133 312 283 482 283 c 256
 513 283 546 275 567 265 c 257
 601 283 649 335 666 368 c 257
 308 840 l 257
 628 840 l 258
 671 840 718 813 745 690 c 257
 794 702 l 257
 775 946 l 257
 718 930 685 930 599 930 c 258
 110 930 l 257
 85 887 l 257
 468 389 l 257
 185 343 41 142 40 -96 c 257
  PathStart: -1
EndSplineSet
EndChar
StartChar: LtnSmEzhTail
Encoding: 2511 442 2495
GlifName: L_tnS_mE_zhT_ail
Width: 920
VWidth: 0
Flags: W
AnchorPoint: "L" 428 -600 basechar 0
AnchorPoint: "U" 460 1050 basechar 0
LayerCount: 2
Fore
SplineSet
451 464 m 257
 805 887 l 257
 780 930 l 257
 291 930 l 258
 205 930 172 930 115 946 c 257
 96 702 l 257
 145 690 l 257
 172 813 219 840 262 840 c 258
 590 840 l 257
 175 342 l 257
 210 298 l 257
 451 464 l 257
800 280 m 256
 800 434 674 492 561 492 c 257
 427 492 273 411 175 342 c 257
 181 331 201 305 210 298 c 257
 281 348 363 391 457 391 c 256
 608 391 650 309 650 239 c 256
 650 166 620 127 414 75 c 256
 139 6 50 -103 50 -248 c 256
 50 -381 180 -503 396 -500 c 256
 645 -496 846 -295 833 -170 c 257
 806 -140 l 257
 752 -148 707 -162 649 -188 c 257
 684 -275 613 -395 430 -395 c 256
 324 -395 200 -321 200 -213 c 256
 200 -143 219 -66 495 -1 c 256
 729 54 800 147 800 280 c 256
  PathStart: -1
EndSplineSet
EndChar
StartChar: LtnTwoStrk
Encoding: 3680 443 3664
GlifName: L_tnT_woS_trk
Width: 890
VWidth: 0
Flags: W
AnchorPoint: "L" 445 -100 basechar 0
AnchorPoint: "U" 445 1370 basechar 0
LayerCount: 2
Fore
SplineSet
799 0 m 257
 814 287 l 257
 764 299 l 257
 764 299 752 121 662 121 c 258
 244 121 l 257
 654 602 799 774 799 952 c 256
 799 1147 674 1235 513 1235 c 256
 308 1235 103 1053 103 915 c 257
 130 885 l 257
 191 891 214 909 259 934 c 257
 259 1028 336 1141 445 1141 c 256
 590 1141 646 1047 646 924 c 256
 646 772 551 625 76 74 c 257
 105 0 l 257
 799 0 l 257
791 490 m 257
 813 555 l 257
 791 580 l 257
 224 580 l 257
 213 559 207 533 201 512 c 257
 224 490 l 257
 791 490 l 257
EndSplineSet
Validated: 5
EndChar
StartChar: LtnCapTnFive
Encoding: 1735 444 1719
GlifName: L_tnC_apT_nF_ive
Width: 1028
VWidth: 0
Flags: W
AnchorPoint: "L" 483 -100 basechar 0
AnchorPoint: "U" 483 1370 basechar 0
LayerCount: 2
Fore
SplineSet
917 404 m 256
 917 655 736 768 544 768 c 256
 480 768 416 756 356 734 c 257
 356 1170 l 257
 731 1170 l 258
 782 1170 792 1100 800 930 c 257
 848 930 l 257
 868 1006 895 1167 899 1235 c 257
 868 1260 l 257
 50 1260 l 257
 50 1217 l 257
 146 1198 196 1171 196 1155 c 258
 196 632 l 257
 204 621 224 595 233 588 c 257
 321 641 410 661 490 661 c 256
 647 661 767 547 767 353 c 256
 767 208 687 90 528 90 c 256
 417 90 321 166 264 265 c 257
 209 257 125 168 125 153 c 256
 125 108 259 -30 489 -30 c 256
 733 -30 917 155 917 404 c 256
  PathStart: -1
EndSplineSet
EndChar
StartChar: LtnSmTnFive
Encoding: 3280 445 3264
GlifName: L_tnS_mT_nF_ive
Width: 915
VWidth: 0
Flags: W
AnchorPoint: "L" 476 -100 basechar 0
AnchorPoint: "U" 476 1050 basechar 0
LayerCount: 2
Fore
SplineSet
835 293 m 256
 835 479 672 570 504 570 c 256
 443 570 402 562 345 545 c 257
 345 840 l 257
 656 840 l 258
 704 840 713 788 721 662 c 257
 766 662 l 257
 784 718 810 861 813 912 c 257
 784 930 l 257
 55 930 l 257
 55 887 l 257
 145 873 195 853 195 841 c 258
 195 461 l 257
 202 453 221 434 229 428 c 257
 310 467 371 483 445 483 c 256
 584 483 686 401 686 255 c 256
 686 157 635 59 487 59 c 256
 383 59 307 138 261 219 c 257
 209 213 131 127 131 116 c 256
 131 82 235 -30 450 -30 c 256
 678 -30 835 117 835 293 c 256
  PathStart: -1
EndSplineSet
Validated: 9
EndChar
StartChar: LtnInvGlottalStopStrk
Encoding: 1849 446 1833
GlifName: L_tnI_nvG_lottalS_topS_trk
Width: 857
VWidth: 0
Flags: W
AnchorPoint: "L" 400 -100 basechar 0
AnchorPoint: "U" 400 1320 basechar 0
LayerCount: 2
Fore
SplineSet
766 283 m 257
 766 432 637 500 521 559 c 257
 410 618 320 664 320 750 c 256
 320 809 170 788 170 700 c 256
 170 573 277 506 388 449 c 256
 510 385 636 334 636 227 c 256
 636 133 568 70 472 70 c 256
 334 70 228 160 222 272 c 257
 179 283 l 257
 160 223 154 51 172 43 c 257
 261 -6 359 -30 422 -30 c 256
 500 -30 766 0 766 283 c 257
  PathStart: -1
170 701 m 257
 320 737 l 257
 320 835 l 257
 372 835 l 258
 480 835 543 816 575 800 c 257
 602 812 651 864 676 901 c 257
 647 930 l 257
 320 930 l 257
 320 1255 l 257
 289 1280 l 257
 170 1176 l 257
 170 930 l 257
 98 930 l 257
 20 863 l 257
 41 835 l 257
 170 835 l 257
 170 701 l 257
EndSplineSet
EndChar
StartChar: LtnWynn
Encoding: 3682 447 3666
GlifName: L_tnW_ynn
Width: 1025
VWidth: 0
Flags: W
AnchorPoint: "L" 528 -600 basechar 0
AnchorPoint: "U" 528 1050 basechar 0
LayerCount: 2
Fore
SplineSet
945 662 m 256
 945 874 852 960 710 960 c 256
 614 960 472 887 339 727 c 257
 330 925 l 257
 295 960 l 257
 217 923 147 900 55 880 c 257
 55 840 l 257
 182 834 195 811 195 711 c 258
 195 -375 l 258
 195 -398 143 -416 55 -437 c 257
 55 -480 l 257
 514 -480 l 257
 514 -437 l 257
 389 -418 345 -396 345 -375 c 258
 345 -122 l 257
 787 157 945 390 945 662 c 256
  PathStart: -1
800 596 m 256
 800 395 674 204 345 -17 c 257
 345 610 l 257
 462 782 575 835 643 835 c 256
 732 835 800 749 800 596 c 256
  PathStart: -1
EndSplineSet
EndChar
StartChar: LtnDentalClick
Encoding: 1842 448 1826
GlifName: L_tnD_entalC_lick
Width: 450
VWidth: 0
Flags: W
AnchorPoint: "L" 225 -600 basechar 0
AnchorPoint: "U" 225 1690 basechar 0
LayerCount: 2
Fore
SplineSet
295 -448 m 257
 295 1528 l 257
 259 1550 l 257
 220 1540 192 1523 155 1501 c 257
 155 -477 l 257
 190 -500 l 257
 223 -489 271 -469 295 -448 c 257
  PathStart: -1
EndSplineSet
EndChar
StartChar: LtnLateralClick
Encoding: 1850 449 1834
GlifName: L_tnL_ateralC_lick
Width: 790
VWidth: 0
Flags: W
AnchorPoint: "L" 395 -600 basechar 0
AnchorPoint: "U" 395 1690 basechar 0
LayerCount: 2
Fore
SplineSet
630 -448 m 257
 630 1528 l 257
 594 1550 l 257
 555 1540 527 1523 490 1501 c 257
 490 -477 l 257
 525 -500 l 257
 558 -489 606 -469 630 -448 c 257
  PathStart: -1
300 -448 m 257
 300 1528 l 257
 264 1550 l 257
 225 1540 197 1523 160 1501 c 257
 160 -477 l 257
 195 -500 l 257
 228 -489 276 -469 300 -448 c 257
  PathStart: -1
EndSplineSet
Validated: 9
EndChar
StartChar: LtnAlveolarClick
Encoding: 1299 450 1283
GlifName: L_tnA_lveolarC_lick
Width: 670
VWidth: 0
Flags: W
AnchorPoint: "L" 335 -600 basechar 0
AnchorPoint: "U" 335 1690 basechar 0
LayerCount: 2
Fore
SplineSet
300 -500 m 257
 333 -489 381 -469 405 -448 c 257
 405 1528 l 257
 369 1550 l 257
 330 1540 302 1523 265 1501 c 257
 265 -477 l 257
 300 -500 l 257
40 390 m 257
 630 390 l 257
 637 412 645 433 652 455 c 257
 630 480 l 257
 40 480 l 257
 30 459 24 433 18 412 c 257
 40 390 l 257
40 630 m 257
 630 630 l 257
 637 652 645 673 652 695 c 257
 630 720 l 257
 40 720 l 257
 30 699 24 673 18 652 c 257
 40 630 l 257
EndSplineSet
EndChar
StartChar: LtnRetrClick
Encoding: 1873 451 1857
GlifName: L_tnR_etrC_lick
Width: 557
VWidth: 0
Flags: W
AnchorPoint: "L" 272 -100 basechar 0
AnchorPoint: "U" 272 1690 basechar 0
LayerCount: 2
Fore
SplineSet
252 350 m 257
 285 360 301 371 326 389 c 257
 375 1525 l 257
 332 1550 l 257
 287 1531 227 1501 176 1468 c 257
 223 371 l 257
 252 350 l 257
254 -40 m 256
 332 -40 391 31 391 123 c 257
 391 195 360 236 293 236 c 256
 217 236 154 162 154 72 c 256
 154 0 184 -40 254 -40 c 256
EndSplineSet
EndChar
StartChar: LtnCapGStrk
Encoding: 1472 484 1456
GlifName: L_tnC_apG_S_trk
Width: 1194
VWidth: 0
Flags: W
AnchorPoint: "L" 640 -100 basechar 0
AnchorPoint: "U" 640 1370 basechar 0
LayerCount: 2
Fore
SplineSet
1145 587 m 257
 1145 630 l 257
 684 630 l 257
 684 587 l 257
 846 561 890 534 890 505 c 258
 890 98 l 258
 890 80 1040 160 1040 160 c 257
 1040 505 l 258
 1040 536 1069 569 1145 587 c 257
  PathStart: -1
1042 1188 m 257
 956 1253 825 1290 737 1290 c 256
 371 1290 70 1026 70 582 c 256
 70 170 350 -30 618 -30 c 256
 739 -30 842 -8 1040 154 c 257
 1032 164 973 186 956 195 c 257
 887 129 780 90 645 90 c 256
 442 90 225 266 225 637 c 256
 225 1053 498 1180 598 1180 c 256
 729 1180 825 1161 913 1077 c 257
 946 1071 l 257
 981 1102 1061 1174 1042 1188 c 257
  PathStart: -1
1145 305 m 257
 1170 372 l 257
 1145 395 l 257
 564 395 l 257
 556 374 548 349 542 329 c 257
 564 305 l 257
 1145 305 l 257
EndSplineSet
EndChar
StartChar: LtnSmOOgonek
Encoding: 3017 491 3001
GlifName: L_tnS_mO_O_gonek
Width: 1030
VWidth: 0
Flags: W
AnchorPoint: "H" 535 0 basechar 0
AnchorPoint: "L" 535 -600 basechar 0
AnchorPoint: "R" 1044 900 basechar 0
AnchorPoint: "U" 535 1050 basechar 0
LayerCount: 2
Fore
SplineSet
715 -299 m 257
 691 -262 l 257
 635 -313 584 -336 551 -336 c 256
 500 -336 465 -313 465 -264 c 256
 465 -201 496 -96 683 20 c 257
 838 106 950 291 950 485 c 256
 950 758 786 960 535 960 c 256
 285 960 80 709 80 444 c 256
 80 172 244 -30 496 -30 c 256
 506 -30 516 -29 526 -28 c 257
 402 -115 336 -206 336 -299 c 256
 336 -418 414 -444 492 -444 c 256
 558 -444 658 -371 715 -299 c 257
  PathStart: -1
795 455 m 256
 795 227 713 80 524 80 c 256
 401 80 235 262 235 473 c 256
 235 686 303 850 506 850 c 256
 643 850 795 666 795 455 c 256
  PathStart: -1
EndSplineSet
EndChar
StartChar: LtnCapHwair
Encoding: 1491 502 1475
GlifName: L_tnC_apH_wair
Width: 1881
VWidth: 0
Flags: W
AnchorPoint: "L" 920 -100 basechar 0
AnchorPoint: "U" 920 1370 basechar 0
LayerCount: 2
Fore
SplineSet
965 424 m 261
 1125 424 l 261
 1125 1155 l 262
 1125 1174 1180 1198 1270 1217 c 261
 1270 1260 l 261
 820 1260 l 261
 820 1217 l 261
 916 1198 965 1171 965 1155 c 262
 965 424 l 261
327 615 m 261
 985 615 l 261
 985 705 l 261
 327 705 l 261
 327 615 l 261
50 0 m 261
 500 0 l 261
 500 43 l 261
 403 61 355 88 355 104 c 262
 355 1155 l 262
 355 1174 410 1198 500 1217 c 261
 500 1260 l 261
 50 1260 l 261
 50 1217 l 261
 146 1198 195 1171 195 1155 c 262
 195 104 l 262
 195 86 140 61 50 43 c 261
 50 0 l 261
1792 504 m 261
 1792 770 1681 922 1566 960 c 261
 1521 946 1415 917 1372 897 c 261
 1388 856 l 261
 1566 850 1642 657 1642 451 c 260
 1642 279 1544 90 1350 90 c 260
 1252 90 1125 148 1125 372 c 262
 1125 691 l 261
 1063 694 965 648 965 521 c 262
 965 329 l 262
 965 29 1151 -30 1303 -30 c 260
 1536 -30 1792 225 1792 504 c 261
  PathStart: -1
EndSplineSet
Validated: 37
EndChar
StartChar: LtnCapWynn
Encoding: 1805 503 1789
GlifName: L_tnC_apW_ynn
Width: 1103
VWidth: 0
Flags: W
AnchorPoint: "L" 532 -600 basechar 0
AnchorPoint: "U" 534 1370 basechar 0
LayerCount: 2
Fore
SplineSet
1014 962 m 256
 1014 1194 912 1290 740 1290 c 256
 654 1290 498 1227 355 1067 c 257
 355 1255 l 257
 320 1290 l 257
 242 1252 147 1229 55 1210 c 257
 55 1167 l 257
 182 1154 195 1138 195 1038 c 258
 195 -375 l 258
 195 -398 143 -416 55 -437 c 257
 55 -480 l 257
 524 -480 l 257
 524 -437 l 257
 399 -418 355 -396 355 -375 c 258
 355 123 l 257
 797 402 1014 690 1014 962 c 256
  PathStart: -1
861 896 m 256
 861 695 684 464 355 243 c 257
 355 940 l 257
 482 1112 615 1165 673 1165 c 256
 792 1165 861 1069 861 896 c 256
  PathStart: -1
EndSplineSet
Validated: 9
EndChar
StartChar: LtnCapYogh
Encoding: 1826 540 1810
GlifName: L_tnC_apY_ogh
Width: 1032
VWidth: 0
Flags: W
AnchorPoint: "L" 527 -600 basechar 0
AnchorPoint: "U" 527 1370 basechar 0
LayerCount: 2
Fore
SplineSet
915 1015 m 257
 915 1200 749 1290 556 1290 c 256
 379 1290 295 1266 121 1183 c 256
 100 1173 124 1022 154 933 c 257
 199 941 l 257
 215 1102 306 1187 484 1190 c 256
 624 1192 760 1116 760 979 c 256
 760 808 563 673 256 539 c 257
 263 511 277 475 282 459 c 257
 797 665 915 842 915 1015 c 257
  PathStart: -1
943 390 m 256
 943 578 767 697 520 627 c 257
 497 598 441 559 409 512 c 257
 443 520 482 523 520 523 c 256
 631 523 783 482 783 330 c 256
 783 177 628 5 136 -172 c 257
 144 -198 154 -222 167 -254 c 257
 898 -10 943 235 943 390 c 256
  PathStart: -1
EndSplineSet
EndChar
StartChar: LtnSmYogh
Encoding: 3527 541 3511
GlifName: L_tnS_mY_ogh
Width: 876
VWidth: 0
Flags: W
AnchorPoint: "L" 431 -600 basechar 0
AnchorPoint: "U" 431 1050 basechar 0
LayerCount: 2
Fore
SplineSet
781 714 m 257
 781 908 621 960 498 960 c 256
 347 960 214 916 75 836 c 256
 50 822 82 699 126 613 c 257
 165 621 l 257
 178 773 280 858 424 860 c 256
 536 862 611 793 611 673 c 256
 611 520 492 411 232 244 c 257
 238 218 249 189 253 174 c 257
 680 380 781 532 781 714 c 257
  PathStart: -1
796 125 m 256
 796 299 667 380 458 369 c 257
 440 342 389 274 363 229 c 257
 391 237 422 240 453 240 c 256
 542 240 629 196 629 62 c 256
 629 -111 421 -296 105 -440 c 257
 115 -460 125 -484 144 -500 c 257
 700 -275 796 -63 796 125 c 256
  PathStart: -1
EndSplineSet
Validated: 37
EndChar
StartChar: LtnCapNLngRtLeg
Encoding: 1589 544 1573
GlifName: L_tnC_apN_L_ngR_tL_eg
Width: 1235
VWidth: 0
Flags: W
AnchorPoint: "L" 456 -100 basechar 0
AnchorPoint: "U" 676 1370 basechar 0
LayerCount: 2
Fore
SplineSet
819 -350 m 257
 1270 -350 l 257
 1270 -307 l 257
 1173 -289 1125 -263 1125 -246 c 258
 1125 981 l 258
 1125 1231 979 1290 864 1290 c 256
 721 1290 560 1210 355 928 c 257
 355 1255 l 257
 320 1290 l 257
 249 1253 145 1227 55 1210 c 257
 55 1167 l 257
 190 1153 195 1135 195 1030 c 258
 195 104 l 258
 195 86 139 61 49 43 c 257
 49 0 l 257
 500 0 l 257
 500 43 l 257
 403 61 355 88 355 104 c 258
 355 748 l 257
 560 1073 690 1150 797 1150 c 256
 897 1150 965 1090 965 872 c 258
 965 -246 l 258
 965 -265 909 -289 819 -307 c 257
 819 -350 l 257
EndSplineSet
Validated: 9
EndChar
StartChar: LtnSmDCurl
Encoding: 2339 545 2323
GlifName: L_tnS_mD_C_url
Width: 1298
VWidth: 0
Flags: W
AnchorPoint: "L" 525 -100 basechar 0
AnchorPoint: "U" 335 1050 basechar 0
LayerCount: 2
Fore
SplineSet
895 254 m 257
 895 1520 l 257
 864 1550 l 257
 795 1528 709 1499 600 1485 c 257
 600 1446 l 257
 741 1436 745 1421 745 1274 c 258
 745 897 l 257
 673 950 613 960 551 960 c 256
 272 960 80 674 80 444 c 256
 80 147 268 -30 416 -30 c 256
 553 -30 645 46 747 169 c 257
 756 24 893 -30 980 -30 c 256
 1162 -30 1273 65 1273 219 c 256
 1273 326 1189 385 1093 385 c 256
 883 385 747 53 677 -195 c 257
 742 -215 l 257
 813 11 942 265 1059 265 c 256
 1130 265 1166 214 1166 170 c 256
 1166 103 1119 60 1051 60 c 256
 933 60 895 160 895 254 c 257
  PathStart: -1
745 730 m 257
 745 261 l 257
 663 181 578 100 487 100 c 256
 377 100 230 248 230 475 c 256
 230 725 350 850 520 850 c 256
 615 850 701 806 745 730 c 257
EndSplineSet
EndChar
StartChar: LtnCapOu
Encoding: 1650 546 1634
GlifName: L_tnC_apO_u
Width: 1140
VWidth: 0
Flags: W
AnchorPoint: "L" 570 -100 basechar 0
AnchorPoint: "U" 570 1370 basechar 0
LayerCount: 2
Fore
SplineSet
545 1195 m 256
 677 1195 802 1120 802 1041 c 256
 802 972 753 894 585 815 c 257
 695 782 l 257
 888 871 953 965 953 1073 c 256
 953 1215 769 1290 592 1290 c 256
 393 1290 177 1186 177 1004 c 256
 177 659 895 719 895 363 c 256
 895 215 786 85 596 85 c 256
 401 85 245 197 245 369 c 256
 245 489 350 616 519 711 c 257
 428 750 l 257
 215 659 90 495 90 338 c 256
 90 138 241 -30 533 -30 c 256
 824 -30 1050 174 1050 418 c 256
 1050 858 311 829 311 1041 c 256
 311 1129 434 1195 545 1195 c 256
  PathStart: -1
EndSplineSet
EndChar
StartChar: LtnSmOu
Encoding: 3065 547 3049
GlifName: L_tnS_mO_u
Width: 1030
VWidth: 0
Flags: W
AnchorPoint: "L" 515 -100 basechar 0
AnchorPoint: "U" 515 1690 basechar 0
LayerCount: 2
Fore
SplineSet
492 1426 m 256
 596 1426 721 1351 721 1224 c 256
 721 1148 681 1054 532 965 c 257
 623 926 l 257
 794 1031 859 1149 859 1258 c 256
 859 1431 698 1523 534 1523 c 256
 352 1523 157 1374 157 1190 c 256
 157 812 795 914 795 434 c 256
 795 259 706 80 538 80 c 256
 365 80 235 238 235 441 c 256
 235 621 364 784 493 862 c 257
 415 908 l 257
 221 807 80 600 80 404 c 256
 80 169 223 -30 482 -30 c 256
 740 -30 950 199 950 487 c 256
 950 1017 287 968 287 1227 c 256
 287 1336 393 1426 492 1426 c 256
  PathStart: -1
EndSplineSet
EndChar
StartChar: LtnCapZHook
Encoding: 1836 548 1820
GlifName: L_tnC_apZ_H_ook
Width: 1071
VWidth: 0
Flags: W
AnchorPoint: "L" 533 -600 basechar 0
AnchorPoint: "U" 556 1370 basechar 0
LayerCount: 2
Fore
SplineSet
59 45 m 257
 88 0 l 257
 722 0 l 258
 802 0 832 -40 832 -96 c 256
 832 -136 807 -213 648 -314 c 257
 682 -355 l 257
 927 -220 1004 -109 1007 -29 c 256
 1010 59 954 100 842 100 c 258
 276 100 l 257
 981 1217 l 257
 956 1260 l 257
 340 1260 l 258
 262 1260 223 1260 150 1276 c 257
 121 975 l 257
 178 963 l 257
 207 1102 268 1160 311 1160 c 258
 770 1160 l 257
 59 45 l 257
EndSplineSet
Validated: 41
EndChar
StartChar: LtnSmZHook
Encoding: 3559 549 3543
GlifName: L_tnS_mZ_H_ook
Width: 905
VWidth: 0
Flags: W
AnchorPoint: "L" 452 -603 basechar 0
AnchorPoint: "U" 480 1050 basechar 0
LayerCount: 2
Fore
SplineSet
692 90 m 258
 270 90 l 257
 827 887 l 257
 805 930 l 257
 313 930 l 258
 227 930 195 930 137 946 c 257
 119 702 l 257
 168 690 l 257
 195 813 242 840 285 840 c 258
 631 840 l 257
 76 45 l 257
 102 0 l 257
 618 0 l 258
 681 0 705 -49 702 -86 c 256
 699 -126 676 -192 536 -279 c 257
 570 -320 l 257
 776 -204 844 -109 847 -29 c 256
 850 59 794 90 692 90 c 258
EndSplineSet
Validated: 41
EndChar
StartChar: LtnSmLCurl
Encoding: 2805 564 2789
GlifName: L_tnS_mL_C_url
Width: 731
VWidth: 0
Flags: W
AnchorPoint: "L" 388 -100 basechar 0
AnchorPoint: "U" 316 1690 basechar 0
LayerCount: 2
Fore
SplineSet
360 314 m 258
 360 1516 l 257
 324 1550 l 257
 242 1507 166 1489 70 1470 c 257
 70 1430 l 257
 182 1417 210 1417 210 1296 c 258
 210 240 l 258
 210 34 337 -30 444 -30 c 256
 570 -30 705 61 705 194 c 256
 705 308 632 387 497 387 c 256
 403 387 129 317 -43 -152 c 257
 18 -180 l 257
 162 161 334 277 458 277 c 256
 548 277 590 203 590 150 c 256
 590 99 547 60 494 60 c 256
 376 60 360 163 360 314 c 258
EndSplineSet
Validated: 5
EndChar
StartChar: LtnSmNCurl
Encoding: 2888 565 2872
GlifName: L_tnS_mN_C_url
Width: 1331
VWidth: 0
Flags: W
AnchorPoint: "L" 636 -100 basechar 0
AnchorPoint: "U" 616 1050 basechar 0
LayerCount: 2
Fore
SplineSet
960 314 m 258
 960 741 l 257
 960 891 854 960 739 960 c 256
 635 960 458 854 341 676 c 257
 330 925 l 257
 295 960 l 257
 221 923 145 894 55 880 c 257
 55 840 l 257
 190 825 195 815 195 711 c 258
 195 104 l 258
 195 82 143 66 55 43 c 257
 55 0 l 257
 485 0 l 257
 485 43 l 257
 399 61 345 84 345 104 c 258
 345 549 l 257
 474 756 600 830 682 830 c 256
 776 830 810 795 810 633 c 258
 810 239 l 258
 810 38 926 -30 1043 -30 c 256
 1187 -30 1306 78 1306 194 c 256
 1306 293 1243 385 1097 385 c 256
 975 385 716 287 557 -152 c 257
 618 -180 l 257
 759 161 933 277 1062 277 c 256
 1132 277 1189 218 1189 150 c 256
 1189 88 1136 61 1094 61 c 256
 993 61 960 136 960 314 c 258
EndSplineSet
Validated: 5
EndChar
StartChar: LtnSmTCurl
Encoding: 3245 566 3229
GlifName: L_tnS_mT_C_url
Width: 725
VWidth: 0
Flags: W
AnchorPoint: "L" 376 -100 basechar 0
AnchorPoint: "U" 378 1320 basechar 0
LayerCount: 2
Fore
SplineSet
605 800 m 257
 632 812 681 864 706 901 c 257
 677 930 l 257
 350 930 l 257
 350 1255 l 257
 319 1280 l 257
 200 1176 l 257
 200 930 l 257
 127 930 l 257
 49 863 l 257
 70 835 l 257
 200 835 l 261
 200 221 l 262
 200 34 336 -30 445 -30 c 260
 542 -30 705 53 705 203 c 261
 705 307 627 385 488 385 c 260
 279 385 60 170 -53 -152 c 261
 8 -180 l 261
 108 61 269 275 461 275 c 260
 535 275 590 214 590 160 c 260
 590 103 547 60 495 60 c 260
 394 60 350 129 350 307 c 262
 350 835 l 261
 402 835 l 258
 510 835 573 816 605 800 c 257
  PathStart: -1
EndSplineSet
Validated: 5
EndChar
StartChar: LtnSmDBDigraph
Encoding: 2324 568 2308
GlifName: L_tnS_mD_B_D_igraph
Width: 1645
VWidth: 0
Flags: W
AnchorPoint: "L" 793 -100 basechar 0
AnchorPoint: "U" 793 1690 basechar 0
LayerCount: 2
Fore
SplineSet
1555 492 m 256
 1555 784 1424 960 1242 960 c 256
 1166 960 1028 907 895 750 c 257
 895 1520 l 257
 864 1550 l 257
 795 1528 709 1499 600 1485 c 257
 600 1446 l 257
 741 1436 745 1421 745 1274 c 258
 745 140 l 257
 735 115 l 257
 875 25 1023 -30 1074 -30 c 256
 1369 -30 1555 260 1555 492 c 256
  PathStart: -1
819 190 m 257
 813 200 799 232 782 240 c 257
 682 132 592 100 487 100 c 256
 377 100 230 248 230 475 c 256
 230 725 350 850 520 850 c 256
 621 850 711 781 752 697 c 257
 795 723 811 740 811 820 c 257
 707 924 631 960 551 960 c 256
 272 960 80 674 80 444 c 256
 80 147 268 -30 416 -30 c 256
 584 -30 684 26 819 190 c 257
  PathStart: -1
1420 408 m 256
 1420 254 1334 100 1172 100 c 256
 1125 100 1001 134 895 214 c 257
 895 630 l 257
 1007 796 1125 825 1172 825 c 256
 1301 825 1420 674 1420 408 c 256
  PathStart: -1
EndSplineSet
EndChar
StartChar: LtnSmQPDigraph
Encoding: 3102 569 3086
GlifName: L_tnS_mQ_P_D_igraph
Width: 1635
VWidth: 0
Flags: W
AnchorPoint: "L" 824 -600 basechar 0
AnchorPoint: "U" 824 1050 basechar 0
LayerCount: 2
Fore
SplineSet
885 221 m 257
 874 116 l 257
 971 22 1095 -30 1173 -30 c 256
 1368 -30 1555 260 1555 492 c 256
 1555 784 1422 960 1240 960 c 256
 1164 960 1007 890 868 712 c 257
 887 608 l 257
 1005 787 1125 835 1173 835 c 256
 1302 835 1420 659 1420 426 c 256
 1420 213 1314 100 1171 100 c 256
 1099 100 1009 125 885 221 c 257
575 -480 m 257
 1064 -480 l 257
 1064 -437 l 257
 962 -418 895 -396 895 -375 c 258
 895 727 l 258
 895 804 908 877 926 930 c 257
 895 960 l 257
 862 927 788 862 745 848 c 257
 745 -375 l 258
 745 -398 700 -418 575 -437 c 257
 575 -480 l 257
819 260 m 257
 813 270 799 289 782 297 c 257
 688 207 592 100 487 100 c 256
 377 100 230 248 230 475 c 256
 230 725 371 850 520 850 c 256
 621 850 711 801 752 717 c 257
 795 743 811 760 811 840 c 257
 707 944 631 960 551 960 c 256
 500 960 420 937 344 895 c 256
 250 843 80 678 80 444 c 256
 80 147 268 -30 416 -30 c 256
 584 -30 684 84 819 260 c 257
  PathStart: -1
EndSplineSet
EndChar
StartChar: LtnCapAStrk
Encoding: 1346 570 1330
GlifName: L_tnC_apA_S_trk
Width: 1219
VWidth: 0
Flags: W
AnchorPoint: "H" 599 0 basechar 0
AnchorPoint: "L" 599 -100 basechar 0
AnchorPoint: "O" 960 0 basechar 0
AnchorPoint: "U" 599 1370 basechar 0
LayerCount: 2
Fore
SplineSet
381 445 m 257
 789 445 l 257
 903 111 l 258
 918 67 879 49 776 43 c 257
 776 0 l 257
 1198 0 l 257
 1198 43 l 257
 1112 53 1080 74 1067 111 c 258
 647 1317 l 257
 612 1298 561 1270 530 1237 c 257
 158 111 l 258
 145 71 90 59 0 43 c 257
 0 0 l 257
 416 0 l 257
 416 43 l 257
 307 55 257 70 270 111 c 258
 381 445 l 257
758 535 m 257
 411 535 l 257
 582 1049 l 257
 758 535 l 257
1098 1387 m 257
 1077 1420 l 257
 1039 1405 993 1378 955 1350 c 257
 137 -124 l 257
 156 -157 l 257
 189 -147 256 -106 281 -86 c 257
 1098 1387 l 257
EndSplineSet
Validated: 37
EndChar
StartChar: LtnCapCStrk
Encoding: 1381 571 1365
GlifName: L_tnC_apC_S_trk
Width: 1098
VWidth: 0
Flags: W
AnchorPoint: "H" 584 0 basechar 0
AnchorPoint: "L" 614 -100 basechar 0
AnchorPoint: "U" 614 1370 basechar 0
LayerCount: 2
Fore
SplineSet
1038 1387 m 257
 1017 1420 l 257
 979 1405 933 1378 895 1350 c 257
 77 -124 l 257
 96 -157 l 257
 129 -147 196 -106 221 -86 c 257
 1038 1387 l 257
1018 211 m 257
 1010 219 995 250 981 256 c 257
 834 133 715 90 643 90 c 256
 453 90 225 268 225 623 c 256
 225 1038 455 1180 592 1180 c 256
 713 1180 807 1135 874 1073 c 257
 909 1067 l 257
 940 1098 1014 1178 999 1190 c 256
 930 1245 819 1290 676 1290 c 256
 348 1290 70 1012 70 586 c 256
 70 199 324 -30 571 -30 c 256
 709 -30 848 29 1018 211 c 257
  PathStart: -1
EndSplineSet
Validated: 37
EndChar
StartChar: LtnSmCStrk
Encoding: 2254 572 2238
GlifName: L_tnS_mC_S_trk
Width: 895
VWidth: 0
Flags: W
AnchorPoint: "L" 506 -600 basechar 0
AnchorPoint: "U" 506 1050 basechar 0
LayerCount: 2
Fore
SplineSet
840 190 m 257
 801 231 l 257
 653 104 612 100 537 100 c 256
 377 100 230 248 230 475 c 256
 230 725 360 850 500 850 c 256
 637 850 709 774 731 727 c 257
 768 717 l 257
 793 754 831 848 825 881 c 257
 780 928 678 960 590 960 c 256
 303 960 80 731 80 444 c 256
 80 147 270 -30 465 -30 c 256
 590 -30 666 -14 840 190 c 257
828 1082 m 257
 804 1113 l 257
 768 1094 724 1064 689 1032 c 257
 174 -124 l 257
 196 -155 l 257
 228 -142 291 -95 314 -73 c 257
 828 1082 l 257
EndSplineSet
Validated: 37
EndChar
StartChar: LtnCapLBar
Encoding: 1544 573 1528
GlifName: L_tnC_apL_B_ar
Width: 975
VWidth: 0
Flags: W
AnchorPoint: "L" 497 -100 basechar 0
AnchorPoint: "U" 467 1370 basechar 0
LayerCount: 2
Fore
SplineSet
595 537 m 257
 620 604 l 257
 595 627 l 257
 66 627 l 257
 58 606 50 582 44 562 c 257
 66 537 l 257
 595 537 l 257
EndSplineSet
Refer: 1525 76 N 1 0 0 1 0 0 2
EndChar
StartChar: LtnCapTDiagStrk
Encoding: 1724 574 1708
GlifName: L_tnC_apT_D_iagS_trk
Width: 1128
VWidth: 0
Flags: W
AnchorPoint: "H" 550 0 basechar 0
AnchorPoint: "L" 544 -100 basechar 0
AnchorPoint: "U" 544 1370 basechar 0
LayerCount: 2
Fore
SplineSet
1038 1387 m 257
 1017 1420 l 257
 979 1405 933 1378 895 1350 c 257
 77 -124 l 257
 96 -157 l 257
 129 -147 196 -106 221 -86 c 257
 1038 1387 l 257
1083 1235 m 257
 1053 1260 l 257
 547 1260 l 257
 518 1170 l 257
 915 1170 l 258
 972 1170 982 1124 1008 1000 c 257
 1053 1000 l 257
 1069 1084 1081 1167 1083 1235 c 257
  PathStart: -1
172 1170 m 258
 698 1170 l 257
 670 1260 l 257
 43 1260 l 257
 29 1190 16 1092 10 1014 c 257
 53 995 l 257
 113 1151 131 1170 172 1170 c 258
307 0 m 257
 795 0 l 257
 795 43 l 257
 672 68 631 98 631 115 c 258
 631 1177 l 258
 631 1195 684 1198 774 1217 c 257
 774 1260 l 257
 326 1260 l 257
 326 1217 l 257
 422 1198 471 1193 471 1177 c 258
 471 115 l 258
 471 96 430 68 307 43 c 257
 307 0 l 257
EndSplineSet
EndChar
StartChar: LtnSmSSwashTail
Encoding: 3206 575 3190
GlifName: L_tnS_mS_S_washT_ail
Width: 791
VWidth: 0
Flags: W
AnchorPoint: "L" 424 -600 basechar 0
AnchorPoint: "U" 412 1050 basechar 0
LayerCount: 2
Fore
SplineSet
176 133 m 257
 106 43 l 257
 354 -67 345 -400 527 -400 c 256
 692 -400 780 -266 772 -165 c 257
 753 -126 l 257
 712 -120 579 -182 587 -194 c 256
 622 -251 619 -305 571 -305 c 256
 427 -305 415 40 176 133 c 257
700 283 m 256
 700 432 570 499 455 559 c 256
 343 617 234 664 234 750 c 256
 234 805 287 870 375 870 c 256
 440 870 512 836 575 741 c 257
 614 733 l 257
 631 754 680 868 664 883 c 256
 610 930 485 960 401 960 c 256
 250 960 104 866 104 700 c 256
 104 573 211 506 322 449 c 256
 444 385 570 334 570 227 c 256
 570 133 502 70 406 70 c 256
 268 70 162 160 156 272 c 257
 113 283 l 257
 94 223 88 51 106 43 c 257
 195 -6 293 -30 356 -30 c 256
 434 -30 700 0 700 283 c 256
  PathStart: -1
EndSplineSet
EndChar
StartChar: LtnSmZSwashTail
Encoding: 3572 576 3556
GlifName: L_tnS_mZ_S_washT_ail
Width: 905
VWidth: 0
Flags: W
AnchorPoint: "L" 452 -600 basechar 0
AnchorPoint: "U" 481 1050 basechar 0
LayerCount: 2
Fore
SplineSet
263 80 m 257
 827 887 l 257
 805 930 l 257
 313 930 l 258
 227 930 195 930 137 946 c 257
 119 702 l 257
 168 690 l 257
 195 813 242 840 285 840 c 258
 631 840 l 257
 76 45 l 257
 102 0 l 257
 403 0 407 -400 637 -400 c 256
 792 -400 880 -266 872 -165 c 257
 853 -126 l 257
 812 -120 679 -182 687 -194 c 256
 722 -251 719 -305 671 -305 c 256
 527 -305 503 5 263 80 c 257
EndSplineSet
EndChar
StartChar: LtnCapGlottalStop
Encoding: 1474 577 1458
GlifName: L_tnC_apG_lottalS_top
Width: 950
VWidth: 0
Flags: W
AnchorPoint: "L" 475 -100 basechar 0
AnchorPoint: "U" 475 1370 basechar 0
LayerCount: 2
Fore
SplineSet
230 0 m 257
 720 0 l 257
 720 43 l 257
 611 61 555 84 555 104 c 258
 555 455 l 258
 555 690 890 688 890 985 c 256
 890 1172 758 1290 522 1290 c 256
 259 1290 40 1131 40 943 c 256
 40 923 45 900 47 890 c 257
 74 860 l 257
 133 866 188 876 231 898 c 257
 218 922 214 946 214 976 c 256
 214 1080 308 1190 444 1190 c 256
 623 1190 730 1104 730 940 c 256
 730 740 395 685 395 396 c 258
 395 104 l 258
 395 82 345 63 230 43 c 257
 230 0 l 257
EndSplineSet
EndChar
StartChar: LtnSmGlottalStop
Encoding: 2586 578 2570
GlifName: L_tnS_mG_lottalS_top
Width: 820
VWidth: 0
Flags: W
AnchorPoint: "L" 395 -100 basechar 0
AnchorPoint: "U" 395 1050 basechar 0
LayerCount: 2
Fore
SplineSet
150 0 m 257
 640 0 l 257
 640 43 l 257
 531 61 470 84 470 104 c 258
 470 305 l 258
 470 500 740 498 740 715 c 256
 740 852 628 960 462 960 c 256
 269 960 70 841 70 673 c 256
 70 663 70 650 72 640 c 257
 99 610 l 257
 158 616 203 626 246 648 c 257
 240 667 234 687 234 706 c 256
 234 790 288 865 384 865 c 256
 493 865 590 794 590 670 c 256
 590 510 320 495 320 266 c 258
 320 104 l 258
 320 82 265 63 150 43 c 257
 150 0 l 257
EndSplineSet
Validated: 9
EndChar
StartChar: LtnCapBBarredLowStem
Encoding: 1360 579 1344
GlifName: L_tnC_apB_B_arredL_owS_tem
Width: 1126
VWidth: 0
Flags: W
AnchorPoint: "L" 528 -100 basechar 0
AnchorPoint: "U" 528 1370 basechar 0
LayerCount: 2
Fore
SplineSet
1016 356 m 257
 1016 541 885 690 715 723 c 257
 831 768 905 877 905 1020 c 256
 905 1188 737 1290 469 1290 c 256
 324 1290 145 1259 41 1230 c 257
 50 1168 l 257
 163 1189 308 1206 413 1206 c 256
 671 1206 750 1104 750 971 c 256
 750 856 692 725 389 725 c 258
 291 725 l 257
 301 627 l 257
 365 637 432 650 520 650 c 256
 752 650 852 469 852 322 c 256
 852 172 729 70 537 70 c 256
 477 70 386 76 345 98 c 257
 123 0 l 257
 123 0 442 -14 559 -14 c 256
 829 -14 1016 129 1016 356 c 257
  PathStart: -1
50 0 m 257
 500 0 l 257
 500 43 l 257
 403 61 355 88 355 104 c 258
 355 1231 l 257
 195 1210 l 257
 195 104 l 258
 195 86 140 61 50 43 c 257
 50 0 l 257
594 347 m 257
 619 414 l 257
 594 437 l 257
 49 437 l 257
 41 416 33 392 27 372 c 257
 49 347 l 257
 594 347 l 257
EndSplineSet
EndChar
StartChar: LtnCapUBar
Encoding: 1750 580 1734
GlifName: L_tnC_apU_B_ar
Width: 1339
VWidth: 0
Flags: W
AnchorPoint: "L" 677 -100 basechar 0
AnchorPoint: "U" 677 1370 basechar 0
LayerCount: 2
Fore
SplineSet
1260 615 m 257
 1285 682 l 257
 1260 705 l 257
 66 705 l 257
 58 684 50 660 44 640 c 257
 66 615 l 257
 1260 615 l 257
1275 1217 m 257
 1275 1260 l 257
 855 1260 l 257
 855 1217 l 257
 951 1198 1000 1171 1000 1155 c 258
 1000 483 l 258
 1000 285 895 85 705 85 c 256
 477 85 355 238 355 494 c 258
 355 1155 l 258
 355 1174 410 1198 500 1217 c 257
 500 1260 l 257
 50 1260 l 257
 50 1217 l 257
 146 1198 195 1171 195 1155 c 258
 195 444 l 258
 195 119 391 -30 666 -30 c 256
 954 -30 1130 174 1130 524 c 258
 1130 1155 l 258
 1130 1174 1185 1198 1275 1217 c 257
  PathStart: -1
EndSplineSet
Validated: 5
EndChar
StartChar: LtnCapTurnedV
Encoding: 1745 581 1729
GlifName: L_tnC_apT_urnedV_
Width: 1219
VWidth: 0
Flags: W
AnchorPoint: "L" 655 -100 basechar 0
AnchorPoint: "U" 656 1370 basechar 0
LayerCount: 2
Fore
SplineSet
776 0 m 257
 1198 0 l 257
 1198 43 l 257
 1112 53 1079 74 1067 111 c 257
 647 1317 l 257
 612 1298 561 1270 530 1237 c 257
 158 111 l 257
 143 72 90 59 0 43 c 257
 0 0 l 257
 416 0 l 257
 416 43 l 257
 307 55 258 70 270 111 c 257
 582 1049 l 257
 903 111 l 257
 920 68 879 49 776 43 c 257
 776 0 l 257
EndSplineSet
EndChar
StartChar: LtnCapEStrk
Encoding: 1438 582 1422
GlifName: L_tnC_apE_S_trk
Width: 1016
VWidth: 0
Flags: W
AnchorPoint: "L" 560 -100 basechar 0
AnchorPoint: "U" 588 1370 basechar 0
LayerCount: 2
Fore
SplineSet
1038 1387 m 257
 1017 1420 l 257
 979 1405 933 1378 895 1350 c 257
 77 -124 l 257
 96 -157 l 257
 129 -147 196 -106 221 -86 c 257
 1038 1387 l 257
889 1235 m 257
 856 1260 l 257
 332 1260 l 257
 303 1170 l 257
 721 1170 l 258
 770 1170 797 1173 803 1050 c 257
 848 1050 l 257
 864 1101 885 1167 889 1235 c 257
  PathStart: -1
786 707 m 257
 760 735 l 257
 311 735 l 257
 289 651 l 257
 496 651 l 258
 608 651 653 635 694 596 c 257
 723 617 764 670 786 707 c 257
  PathStart: -1
954 244 m 257
 911 262 l 257
 854 106 811 90 688 90 c 258
 559 90 l 258
 383 90 355 115 355 154 c 258
 355 1177 l 258
 355 1195 410 1198 500 1217 c 257
 500 1260 l 257
 332 1260 l 257
 50 1260 l 257
 50 1217 l 257
 146 1198 195 1171 195 1155 c 258
 195 104 l 258
 195 86 140 61 50 43 c 257
 50 0 l 257
 913 0 l 257
 924 39 944 129 954 244 c 257
  PathStart: -1
EndSplineSet
Validated: 37
EndChar
StartChar: LtnSmEStrk
Encoding: 2462 583 2446
GlifName: L_tnS_mE_S_trk
Width: 946
VWidth: 0
Flags: W
AnchorPoint: "L" 488 -100 basechar 0
AnchorPoint: "U" 488 1050 basechar 0
LayerCount: 2
Fore
SplineSet
866 557 m 257
 866 727 786 960 524 960 c 256
 453 960 360 922 301 881 c 256
 162 786 80 614 80 434 c 256
 80 152 260 -30 465 -30 c 256
 602 -30 682 0 860 195 c 257
 854 205 840 227 823 236 c 257
 674 113 610 100 526 100 c 256
 342 100 230 287 230 497 c 256
 230 702 336 855 496 855 c 256
 670 855 702 688 702 616 c 256
 702 588 694 580 664 580 c 258
 184 580 l 257
 182 490 l 257
 756 490 l 257
 799 507 842 530 866 557 c 257
  PathStart: -1
861 1050 m 257
 840 1083 l 257
 802 1068 756 1041 718 1013 c 257
 87 -124 l 257
 106 -157 l 257
 139 -147 206 -106 231 -86 c 257
 861 1050 l 257
EndSplineSet
Validated: 5
EndChar
StartChar: LtnCapJStrk
Encoding: 1526 584 1510
GlifName: L_tnC_apJ_S_trk
Width: 625
VWidth: 0
Flags: W
AnchorPoint: "L" 328 -600 basechar 0
AnchorPoint: "U" 328 1370 basechar 0
LayerCount: 2
Fore
SplineSet
548 615 m 257
 570 680 l 257
 548 705 l 257
 22 705 l 257
 12 684 6 658 0 637 c 257
 22 615 l 257
 548 615 l 257
555 1217 m 257
 555 1260 l 257
 55 1260 l 257
 55 1217 l 257
 215 1194 250 1171 250 1155 c 258
 250 133 l 258
 250 -180 154 -257 84 -257 c 256
 33 -257 0 -249 -74 -200 c 257
 -111 -214 -190 -278 -190 -300 c 256
 -190 -323 -106 -380 -25 -380 c 256
 27 -380 140 -346 211 -288 c 256
 316 -203 410 -111 410 205 c 258
 410 1155 l 258
 410 1174 465 1198 555 1217 c 257
  PathStart: -1
EndSplineSet
EndChar
StartChar: LtnCapSmQHookTail
Encoding: 1714 586 1698
GlifName: L_tnC_apS_mQ_H_ookT_ail
Width: 1229
VWidth: 0
Flags: W
AnchorPoint: "L" 537 -100 basechar 0
AnchorPoint: "U" 604 1370 basechar 0
LayerCount: 2
Fore
SplineSet
489 -30 m 256
 691 -30 821 113 983 349 c 257
 977 363 969 378 948 389 c 257
 836 268 670 105 544 105 c 256
 383 105 216 333 216 638 c 256
 216 974 455 1155 634 1155 c 256
 755 1155 853 1087 902 974 c 257
 954 1009 973 1021 973 1129 c 257
 848 1269 767 1290 671 1290 c 256
 610 1290 504 1259 413 1203 c 256
 299 1133 66 911 66 597 c 256
 66 198 312 -30 489 -30 c 256
  PathStart: -1
894 1155 m 257
 894 -168 l 257
 894 -374 925 -500 1097 -500 c 256
 1265 -500 1452 -364 1452 -235 c 257
 1433 -196 l 257
 1378 -196 1267 -243 1267 -264 c 257
 1274 -278 1278 -292 1278 -306 c 256
 1278 -358 1229 -405 1171 -405 c 256
 1063 -405 1054 -312 1054 -106 c 258
 1054 964 l 258
 1054 1126 1091 1250 1091 1250 c 257
 1049 1288 l 257
 1009 1244 946 1174 894 1155 c 257
EndSplineSet
EndChar
StartChar: LtnSmQHookTail
Encoding: 3099 587 3083
GlifName: L_tnS_mQ_H_ookT_ail
Width: 1054
VWidth: 0
Flags: W
AnchorPoint: "L" 407 -100 basechar 0
AnchorPoint: "U" 557 1050 basechar 0
LayerCount: 2
Fore
SplineSet
819 260 m 257
 813 270 799 289 782 297 c 257
 688 207 592 100 487 100 c 256
 377 100 230 248 230 475 c 256
 230 725 371 850 520 850 c 256
 621 850 711 801 752 717 c 257
 795 743 811 760 811 840 c 257
 707 944 631 960 551 960 c 256
 500 960 420 937 344 895 c 256
 250 843 80 678 80 444 c 256
 80 147 268 -30 416 -30 c 256
 584 -30 684 84 819 260 c 257
  PathStart: -1
745 848 m 257
 745 -227 l 257
 745 -371 786 -500 948 -500 c 256
 1140 -500 1304 -346 1304 -237 c 257
 1284 -196 l 257
 1246 -193 1140 -234 1117 -262 c 257
 1125 -274 1129 -289 1129 -303 c 256
 1129 -353 1083 -405 1022 -405 c 256
 926 -405 895 -319 895 -166 c 257
 895 717 l 258
 895 838 926 930 926 930 c 257
 895 960 l 257
 862 927 788 862 745 848 c 257
EndSplineSet
EndChar
StartChar: LtnCapRBarredStem
Encoding: 1668 588 1652
GlifName: L_tnC_apR_B_arredS_tem
Width: 1149
VWidth: 0
Flags: W
AnchorPoint: "L" 512 -100 basechar 0
AnchorPoint: "U" 512 1370 basechar 0
LayerCount: 2
Fore
SplineSet
927 987 m 256
 927 1159 778 1290 469 1290 c 256
 293 1290 166 1261 41 1230 c 257
 50 1168 l 257
 187 1189 315 1206 432 1206 c 256
 670 1206 772 1102 772 956 c 256
 772 780 654 687 444 687 c 257
 337 687 l 257
 343 597 l 257
 461 597 l 257
 719 597 927 731 927 987 c 256
  PathStart: -1
1139 37 m 257
 1128 80 l 257
 1038 72 988 81 948 139 c 257
 613 678 l 257
 509 612 l 257
 817 41 l 257
 835 11 877 -14 915 -14 c 256
 967 -14 1051 8 1139 37 c 257
  PathStart: -1
50 0 m 257
 500 0 l 257
 500 43 l 257
 403 61 355 88 355 104 c 258
 355 1221 l 257
 195 1221 l 257
 195 104 l 258
 195 86 140 61 50 43 c 257
 50 0 l 257
294 597 m 257
 319 664 l 257
 294 687 l 257
 49 687 l 257
 41 666 33 642 27 622 c 257
 49 597 l 257
 294 597 l 257
EndSplineSet
Validated: 37
EndChar
StartChar: LtnSmRBar
Encoding: 3111 589 3095
GlifName: L_tnS_mR_B_ar
Width: 811
VWidth: 0
Flags: W
AnchorPoint: "L" 312 -100 basechar 0
AnchorPoint: "U" 408 1050 basechar 0
LayerCount: 2
Fore
SplineSet
770 923 m 257
 721 951 670 960 627 960 c 256
 512 960 415 846 343 698 c 257
 330 925 l 257
 295 960 l 257
 229 923 141 902 55 880 c 257
 55 840 l 257
 129 836 154 831 172 813 c 256
 184 801 195 774 195 686 c 258
 195 104 l 258
 195 82 143 63 55 43 c 257
 55 0 l 257
 514 0 l 257
 514 43 l 257
 389 61 345 84 345 104 c 258
 345 496 l 257
 409 723 514 820 573 820 c 256
 623 820 668 784 684 676 c 257
 727 676 l 257
 760 748 795 908 770 923 c 257
  PathStart: -1
558 415 m 257
 580 480 l 257
 558 505 l 257
 52 505 l 257
 42 484 36 458 30 437 c 257
 52 415 l 257
 558 415 l 257
EndSplineSet
Validated: 37
EndChar
StartChar: LtnCapYStrk
Encoding: 1823 590 1807
GlifName: L_tnC_apY_S_trk
Width: 1217
VWidth: 0
Flags: W
AnchorPoint: "L" 604 -100 basechar 0
AnchorPoint: "U" 604 1370 basechar 0
LayerCount: 2
Fore
SplineSet
1094 925 m 257
 1119 992 l 257
 1094 1015 l 257
 99 1015 l 257
 91 994 83 970 77 950 c 257
 99 925 l 257
 1094 925 l 257
1176 1217 m 257
 1176 1260 l 257
 780 1260 l 257
 780 1217 l 257
 883 1204 911 1186 891 1151 c 258
 623 680 l 257
 530 872 397 1102 297 1231 c 256
 276 1257 248 1270 219 1270 c 256
 164 1270 78 1260 0 1249 c 257
 4 1206 l 257
 115 1206 143 1180 168 1151 c 257
 268 1014 451 711 545 489 c 257
 655 489 l 257
 1020 1151 l 258
 1039 1185 1085 1200 1176 1217 c 257
  PathStart: -1
360 0 m 257
 850 0 l 257
 850 43 l 257
 725 68 684 98 684 115 c 258
 684 637 l 257
 524 637 l 257
 524 115 l 258
 524 96 481 68 360 43 c 257
 360 0 l 257
EndSplineSet
Validated: 37
EndChar
StartChar: LtnSmYStrk
Encoding: 3521 591 3505
GlifName: L_tnS_mY_S_trk
Width: 1010
VWidth: 0
Flags: W
AnchorPoint: "L" 768 -100 basechar 0
AnchorPoint: "U" 528 1050 basechar 0
LayerCount: 2
Fore
SplineSet
958 555 m 257
 980 620 l 257
 958 645 l 257
 52 645 l 257
 42 624 36 598 30 577 c 257
 52 555 l 257
 958 555 l 257
989 930 m 257
 655 930 l 257
 655 887 l 257
 754 872 785 860 770 819 c 258
 539 182 l 257
 293 819 l 258
 276 862 303 874 406 887 c 257
 406 930 l 257
 20 930 l 257
 20 887 l 257
 86 872 117 855 131 819 c 258
 459 -23 l 257
 430 -92 l 258
 383 -207 299 -313 250 -330 c 256
 201 -348 133 -349 70 -312 c 257
 27 -338 -47 -431 -47 -447 c 256
 -47 -472 25 -500 127 -500 c 256
 260 -500 434 -377 545 -82 c 258
 879 819 l 258
 893 858 909 868 989 887 c 257
 989 930 l 257
EndSplineSet
Validated: 37
EndChar
StartChar: LtnSmTurnedA
Encoding: 3298 592 3282
GlifName: L_tnS_mT_urnedA_
Width: 968
VWidth: 0
Flags: W
AnchorPoint: "L" 498 -100 basechar 0
AnchorPoint: "R" 1056 900 basechar 0
AnchorPoint: "U" 516 1050 basechar 0
LayerCount: 2
Fore
SplineSet
424 -30 m 256
 608 -30 813 65 878 214 c 257
 864 253 l 257
 831 261 696 221 694 196 c 256
 688 105 599 72 513 70 c 256
 382 66 345 138 345 228 c 258
 345 706 l 257
 337 747 330 925 330 925 c 257
 295 960 l 257
 220 924 140 898 55 880 c 257
 55 840 l 257
 143 837 195 825 195 741 c 258
 195 188 l 258
 195 51 278 -30 424 -30 c 256
235 344 m 257
 550 408 l 258
 773 453 888 586 888 744 c 256
 888 899 771 960 675 960 c 256
 585 960 452 873 327 738 c 257
 335 664 l 257
 440 757 534 830 616 830 c 256
 651 830 724 807 724 701 c 256
 724 592 646 497 464 465 c 258
 225 418 l 257
 235 344 l 257
EndSplineSet
EndChar
StartChar: LtnSmAlpha
Encoding: 2190 593 2174
GlifName: L_tnS_mA_lpha
Width: 1023
VWidth: 0
Flags: W
AnchorPoint: "H" 532 0 basechar 0
AnchorPoint: "L" 544 -100 basechar 0
AnchorPoint: "O" 790 0 basechar 0
AnchorPoint: "R" 1023 900 basechar 0
AnchorPoint: "U" 544 1050 basechar 0
LayerCount: 2
Fore
SplineSet
1009 84 m 257
 1009 84 997 131 997 129 c 257
 930 98 884 92 872 109 c 256
 862 121 855 174 855 254 c 258
 855 723 l 258
 855 834 884 930 884 930 c 257
 856 960 l 257
 803 902 754 870 705 848 c 257
 705 272 l 258
 705 49 719 -30 788 -30 c 256
 807 -30 893 6 1009 84 c 257
  PathStart: -1
780 260 m 257
 774 270 760 289 743 297 c 257
 620 162 549 100 477 100 c 256
 366 100 230 248 230 475 c 256
 230 725 340 850 510 850 c 256
 610 850 669 801 712 717 c 257
 753 743 770 760 770 840 c 257
 665 944 620 960 540 960 c 256
 264 960 80 674 80 444 c 256
 80 147 258 -30 405 -30 c 256
 545 -30 624 43 780 260 c 257
  PathStart: -1
EndSplineSet
EndChar
StartChar: LtnSmTurnedAlpha
Encoding: 3301 594 3285
GlifName: L_tnS_mT_urnedA_lpha
Width: 1051
VWidth: 0
Flags: W
AnchorPoint: "H" 512 -6 basechar 0
AnchorPoint: "L" 533 -100 basechar 0
AnchorPoint: "O" 604 0 basechar 0
AnchorPoint: "R" 1095 900 basechar 0
AnchorPoint: "U" 533 1050 basechar 0
LayerCount: 2
Fore
SplineSet
330 925 m 257
 321 936 308 949 295 960 c 257
 221 923 129 898 55 880 c 257
 55 880 55 840 55 840 c 257
 174 835 195 815 195 713 c 258
 195 207 l 258
 195 96 166 0 166 0 c 257
 194 -30 l 257
 247 28 296 71 345 93 c 257
 345 686 l 258
 345 744 335 874 330 925 c 257
971 486 m 256
 971 814 812 960 665 960 c 256
 545 960 414 861 270 650 c 257
 276 640 290 601 307 593 c 257
 426 739 511 830 593 830 c 256
 704 830 821 711 821 455 c 256
 821 205 711 100 586 100 c 256
 510 100 397 156 338 222 c 257
 318 220 280 171 280 153 c 257
 385 49 498 -30 571 -30 c 256
 774 -30 971 256 971 486 c 256
EndSplineSet
EndChar
StartChar: LtnSmBHook
Encoding: 2206 595 2190
GlifName: L_tnS_mB_H_ook
Width: 1040
VWidth: 0
Flags: W
AnchorPoint: "L" 520 -100 basechar 0
AnchorPoint: "U" 544 1690 basechar 0
LayerCount: 2
Fore
SplineSet
950 492 m 257
 950 784 819 960 637 960 c 256
 561 960 423 887 290 727 c 257
 290 936 l 258
 290 1317 426 1425 512 1425 c 256
 590 1425 672 1380 727 1311 c 257
 766 1329 854 1399 854 1421 c 256
 854 1446 737 1550 618 1550 c 256
 567 1550 451 1516 379 1458 c 256
 236 1343 140 1212 140 881 c 258
 140 96 l 257
 284 16 418 -30 469 -30 c 256
 764 -30 950 260 950 492 c 257
  PathStart: -1
815 408 m 257
 815 254 729 100 567 100 c 256
 520 100 396 123 290 203 c 257
 290 610 l 257
 402 776 520 825 567 825 c 256
 696 825 815 674 815 408 c 257
  PathStart: -1
EndSplineSet
EndChar
StartChar: LtnSmOpnO
Encoding: 3058 596 3042
GlifName: L_tnS_mO_pnO_
Width: 925
VWidth: 0
Flags: W
AnchorPoint: "H" 420 0 basechar 0
AnchorPoint: "L" 432 -100 basechar 0
AnchorPoint: "O" 470 0 basechar 0
AnchorPoint: "R" 942 900 basechar 0
AnchorPoint: "U" 455 1050 basechar 0
LayerCount: 2
Fore
SplineSet
845 485 m 256
 845 782 659 960 465 960 c 256
 342 960 236 926 74 754 c 257
 80 743 96 719 113 711 c 257
 250 809 317 825 393 825 c 256
 553 825 695 682 695 455 c 256
 695 205 590 75 440 75 c 256
 336 75 236 170 236 262 c 256
 236 319 252 344 289 379 c 257
 268 426 l 257
 217 416 156 395 106 379 c 257
 78 350 66 311 66 268 c 256
 66 94 209 -30 399 -30 c 256
 647 -30 845 199 845 485 c 256
  PathStart: -1
EndSplineSet
Validated: 9
EndChar
StartChar: LtnSmCCurl
Encoding: 2244 597 2228
GlifName: L_tnS_mC_C_url
Width: 895
VWidth: 0
Flags: W
AnchorPoint: "L" 489 -100 basechar 0
AnchorPoint: "U" 488 1050 basechar 0
LayerCount: 2
Fore
SplineSet
637 445 m 260
 399 445 218 225 86 -30 c 261
 140 -73 l 261
 276 166 400 330 582 330 c 260
 684 330 725 261 725 208 c 260
 725 157 683 100 557 100 c 260
 358 100 230 248 230 475 c 260
 230 725 360 850 500 850 c 260
 637 850 709 774 731 727 c 261
 768 717 l 261
 793 754 831 848 825 881 c 261
 780 928 678 960 590 960 c 260
 303 960 80 731 80 444 c 260
 80 147 260 -30 485 -30 c 260
 660 -30 834 97 836 249 c 260
 838 377 740 445 637 445 c 260
  PathStart: -1
EndSplineSet
Validated: 37
EndChar
StartChar: LtnSmDTail
Encoding: 2355 598 2339
GlifName: L_tnS_mD_T_ail
Width: 1030
VWidth: 0
Flags: W
AnchorPoint: "L" 472 -100 basechar 0
AnchorPoint: "R" 1065 900 basechar 0
AnchorPoint: "U" 335 1050 basechar 0
LayerCount: 2
Fore
SplineSet
895 -166 m 258
 895 1520 l 257
 864 1550 l 257
 795 1528 711 1499 602 1485 c 257
 602 1446 l 257
 743 1436 745 1421 745 1274 c 258
 745 897 l 257
 673 950 613 960 551 960 c 256
 272 960 80 674 80 444 c 256
 80 147 268 -30 416 -30 c 256
 552 -30 643 44 745 166 c 257
 745 -227 l 258
 745 -371 786 -500 948 -500 c 256
 1143 -500 1311 -336 1303 -235 c 257
 1284 -196 l 257
 1243 -190 1110 -252 1118 -264 c 256
 1153 -321 1100 -405 1022 -405 c 256
 926 -405 895 -319 895 -166 c 258
487 100 m 256
 377 100 230 248 230 475 c 256
 230 725 350 850 520 850 c 256
 615 850 701 806 745 730 c 257
 745 261 l 257
 662 180 578 100 487 100 c 256
  PathStart: -1
EndSplineSet
EndChar
StartChar: LtnSmDHook
Encoding: 2345 599 2329
GlifName: L_tnS_mD_H_ook
Width: 1065
VWidth: 0
Flags: W
AnchorPoint: "L" 525 -100 basechar 0
AnchorPoint: "U" 335 1050 basechar 0
LayerCount: 2
Fore
SplineSet
1292 1423 m 257
 1292 1448 1210 1550 1094 1550 c 256
 1042 1550 961 1518 893 1458 c 256
 788 1368 745 1278 745 1051 c 258
 745 272 l 258
 745 49 776 -31 829 -31 c 256
 866 -31 928 2 1051 84 c 257
 1038 127 l 257
 958 96 930 92 918 106 c 256
 903 125 895 160 895 254 c 258
 895 1106 l 258
 895 1348 932 1425 1016 1425 c 256
 1053 1425 1110 1407 1165 1315 c 257
 1204 1333 1292 1401 1292 1423 c 257
  PathStart: -1
819 260 m 257
 813 270 799 289 782 297 c 257
 688 207 592 100 487 100 c 256
 377 100 230 248 230 475 c 256
 230 725 350 850 520 850 c 256
 621 850 711 801 752 717 c 257
 795 743 811 760 811 840 c 257
 707 944 631 960 551 960 c 256
 272 960 80 674 80 444 c 256
 80 147 268 -30 416 -30 c 256
 584 -30 684 84 819 260 c 257
  PathStart: -1
EndSplineSet
EndChar
StartChar: LtnSmRevE
Encoding: 3155 600 3139
GlifName: L_tnS_mR_evE_
Width: 946
VWidth: 0
Flags: W
AnchorPoint: "L" 473 -100 basechar 0
AnchorPoint: "R" 976 900 basechar 0
AnchorPoint: "U" 473 1050 basechar 0
LayerCount: 2
Fore
SplineSet
80 557 m 257
 104 530 147 507 190 490 c 257
 764 490 l 257
 762 580 l 257
 282 580 l 258
 252 580 244 588 244 616 c 256
 244 688 276 855 450 855 c 256
 610 855 716 632 716 437 c 256
 716 270 644 102 430 102 c 256
 366 102 235 120 123 236 c 257
 106 227 92 205 86 195 c 257
 190 11 334 -30 461 -30 c 256
 581 -30 704 53 773 154 c 256
 845 260 866 354 866 494 c 256
 866 712 749 960 502 960 c 256
 240 960 80 727 80 557 c 257
  PathStart: -1
EndSplineSet
Validated: 5
EndChar
StartChar: LtnSmSchwa
Encoding: 3214 601 3198
GlifName: L_tnS_mS_chwa
Width: 930
VWidth: 0
Flags: W
AnchorPoint: "H" 460 0 basechar 0
AnchorPoint: "L" 460 -100 basechar 0
AnchorPoint: "O" 490 0 basechar 0
AnchorPoint: "U" 460 1050 basechar 0
LayerCount: 2
Fore
SplineSet
850 485 m 257
 850 782 664 960 469 960 c 256
 346 960 240 926 78 754 c 257
 86 743 100 719 117 711 c 257
 254 809 324 825 397 825 c 256
 565 825 700 685 700 456 c 256
 700 208 614 74 444 74 c 256
 342 74 230 168 230 293 c 256
 230 346 256 380 297 380 c 258
 782 380 l 257
 784 470 l 257
 240 470 l 257
 193 452 145 428 106 408 c 257
 84 377 70 332 70 279 c 256
 70 104 225 -30 416 -30 c 256
 535 -30 627 8 702 90 c 256
 793 188 850 328 850 485 c 257
  PathStart: -1
EndSplineSet
Validated: 5
EndChar
StartChar: LtnSmSchwaHook
Encoding: 3216 602 3200
GlifName: L_tnS_mS_chwaH_ook
Width: 1232
VWidth: 0
Flags: W
AnchorPoint: "H" 460 0 basechar 0
AnchorPoint: "L" 665 -100 basechar 0
AnchorPoint: "O" 490 0 basechar 0
AnchorPoint: "U" 665 1050 basechar 0
LayerCount: 2
Fore
SplineSet
981 753 m 257
 976 730 975 719 975 704 c 256
 975 614 1020 586 1054 586 c 256
 1106 586 1156 612 1252 685 c 257
 1240 728 l 257
 1179 699 1147 692 1121 691 c 256
 1085 690 1067 718 1068 767 c 256
 1069 804 1081 865 1134 938 c 257
 1106 960 l 257
 939 823 764 700 514 555 c 256
 80 304 80 301 80 227 c 256
 80 102 217 -30 416 -30 c 256
 535 -30 627 8 702 90 c 256
 793 188 850 328 850 485 c 256
 850 782 664 960 469 960 c 256
 346 960 240 926 78 754 c 257
 86 743 100 719 117 711 c 257
 254 809 324 825 397 825 c 256
 565 825 700 683 700 454 c 256
 700 206 614 74 444 74 c 256
 320 74 239 184 239 235 c 256
 239 281 244 284 547 468 c 256
 703 563 859 663 981 753 c 257
  PathStart: -1
EndSplineSet
EndChar
StartChar: LtnSmOpnE
Encoding: 3054 603 3038
GlifName: L_tnS_mO_pnE_
Width: 874
VWidth: 0
Flags: W
AnchorPoint: "H" 454 0 basechar 0
AnchorPoint: "L" 454 -100 basechar 0
AnchorPoint: "O" 520 0 basechar 0
AnchorPoint: "R" 920 900 basechar 0
AnchorPoint: "U" 454 1050 basechar 0
LayerCount: 2
Fore
SplineSet
829 190 m 261
 791 231 l 261
 631 102 553 95 477 95 c 260
 332 95 246 180 244 264 c 260
 242 354 334 455 543 469 c 261
 532 522 l 261
 289 539 253 625 253 707 c 260
 253 786 326 855 440 855 c 260
 582 855 659 782 682 727 c 261
 719 717 l 261
 741 754 780 848 774 881 c 261
 721 930 614 960 520 960 c 260
 432 960 332 936 268 895 c 260
 180 842 113 760 113 676 c 260
 113 567 170 506 270 467 c 261
 178 426 80 338 80 221 c 260
 80 78 203 -30 426 -30 c 260
 541 -30 655 -14 829 190 c 261
  PathStart: -1
EndSplineSet
Validated: 41
EndChar
StartChar: LtnSmRevOpnE
Encoding: 3159 604 3143
GlifName: L_tnS_mR_evO_pnE_
Width: 874
VWidth: 0
Flags: W
AnchorPoint: "L" 419 -100 basechar 0
AnchorPoint: "U" 419 1050 basechar 0
LayerCount: 2
Fore
SplineSet
83 231 m 261
 45 190 l 261
 147 22 303 -30 418 -30 c 260
 661 -30 795 128 795 271 c 260
 795 388 729 483 604 507 c 261
 704 546 762 627 762 736 c 260
 762 896 589 960 454 960 c 260
 310 960 166 907 100 841 c 261
 94 808 133 714 155 677 c 261
 192 687 l 261
 207 786 292 855 434 855 c 260
 540 855 622 786 622 707 c 260
 622 625 585 539 342 522 c 261
 331 469 l 261
 550 462 633 354 631 264 c 260
 629 180 562 95 397 95 c 260
 321 95 213 102 83 231 c 261
EndSplineSet
EndChar
StartChar: LtnSmRevOpnEHook
Encoding: 3161 605 3145
GlifName: L_tnS_mR_evO_pnE_H_ook
Width: 1142
VWidth: 0
Flags: W
AnchorPoint: "L" 460 -100 basechar 0
AnchorPoint: "U" 460 1050 basechar 0
LayerCount: 2
Fore
SplineSet
83 231 m 257
 45 190 l 257
 147 22 303 -30 418 -30 c 256
 661 -30 796 128 796 271 c 256
 796 388 729 483 604 507 c 257
 704 546 762 627 762 736 c 256
 762 896 589 960 454 960 c 256
 310 960 166 907 100 841 c 257
 94 808 133 714 155 677 c 257
 192 687 l 257
 207 786 292 855 434 855 c 256
 540 855 622 786 622 707 c 256
 622 625 585 539 342 522 c 257
 331 469 l 257
 550 462 634 354 632 264 c 256
 630 180 562 95 397 95 c 256
 321 95 213 102 83 231 c 257
1044 938 m 257
 1016 960 l 257
 938 897 829 840 669 780 c 257
 697 702 l 257
 773 746 856 777 902 786 c 257
 892 763 885 736 885 706 c 256
 885 618 930 586 964 586 c 256
 1016 586 1066 612 1162 685 c 257
 1150 728 l 257
 1089 699 1057 692 1031 691 c 256
 995 690 977 718 978 767 c 256
 979 804 991 865 1044 938 c 257
  PathStart: -1
EndSplineSet
EndChar
StartChar: LtnSmClosedRevOpnE
Encoding: 2316 606 2300
GlifName: L_tnS_mC_losedR_evO_pnE_
Width: 958
VWidth: 0
Flags: W
AnchorPoint: "L" 512 -100 basechar 0
AnchorPoint: "R" 1008 900 basechar 0
AnchorPoint: "U" 512 1050 basechar 0
LayerCount: 2
Fore
SplineSet
521 85 m 256
 363 85 230 269 230 478 c 256
 230 698 333 855 498 855 c 256
 624 855 706 786 706 707 c 256
 706 625 669 539 426 522 c 257
 415 469 l 257
 634 462 718 354 716 254 c 256
 714 170 666 85 521 85 c 256
  PathStart: -1
538 960 m 256
 301 960 80 746 80 435 c 256
 80 172 249 -30 482 -30 c 256
 705 -30 880 128 880 271 c 256
 880 388 813 483 688 507 c 257
 788 546 846 627 846 736 c 256
 846 896 673 960 538 960 c 256
  PathStart: -1
EndSplineSet
EndChar
StartChar: LtnSmDotlessJStrk
Encoding: 2372 607 2356
GlifName: L_tnS_mD_otlessJ_S_trk
Width: 595
VWidth: 0
Flags: W
AnchorPoint: "L" 189 -600 basechar 0
AnchorPoint: "R" 596 900 basechar 0
AnchorPoint: "U" 189 1050 basechar 0
LayerCount: 2
Fore
SplineSet
400 95 m 257
 400 100 l 257
 400 960 l 257
 400 960 362 960 362 960 c 257
 273 921 201 897 109 880 c 257
 109 840 l 257
 244 827 250 804 250 688 c 258
 250 95 l 257
 207 95 158 101 118 130 c 257
 94 118 45 66 20 29 c 257
 49 0 l 257
 249 0 l 257
 242 -287 162 -365 89 -365 c 256
 39 -365 -6 -357 -49 -320 c 257
 -88 -338 -176 -408 -176 -431 c 256
 -176 -453 -92 -500 -10 -500 c 256
 41 -500 139 -457 210 -400 c 256
 304 -324 380 -232 396 0 c 257
 477 0 l 257
 555 67 l 257
 534 95 l 257
 400 95 l 257
EndSplineSet
EndChar
StartChar: LtnSmGHook
Encoding: 2572 608 2556
GlifName: L_tnS_mG_H_ook
Width: 1034
VWidth: 0
Flags: W
AnchorPoint: "L" 540 -600 basechar 0
AnchorPoint: "U" 676 1690 basechar 0
LayerCount: 2
Fore
SplineSet
890 80 m 258
 876 1106 l 258
 876 1348 912 1427 996 1427 c 256
 1033 1427 1090 1407 1145 1315 c 257
 1184 1333 1272 1401 1272 1423 c 256
 1272 1448 1190 1550 1074 1550 c 256
 1022 1550 941 1518 873 1458 c 256
 768 1368 725 1278 725 1051 c 258
 727 898 l 257
 660 950 613 960 551 960 c 256
 274 960 80 635 80 406 c 256
 80 129 268 -30 416 -30 c 256
 534 -30 616 22 733 170 c 257
 735 47 l 258
 739 -280 624 -390 492 -390 c 256
 437 -390 345 -372 248 -261 c 257
 205 -272 100 -337 100 -364 c 256
 100 -417 256 -500 426 -500 c 256
 559 -500 900 -376 890 80 c 258
732 263 m 257
 627 152 553 100 487 100 c 256
 377 100 230 223 230 436 c 256
 230 684 350 850 520 850 c 256
 617 850 685 804 727 726 c 257
 732 263 l 257
EndSplineSet
Validated: 41
EndChar
StartChar: LtnSmCapG
Encoding: 2267 610 2251
GlifName: L_tnS_mC_apG_
Width: 1006
VWidth: 0
Flags: W
AnchorPoint: "L" 523 -100 basechar 0
AnchorPoint: "R" 1028 900 basechar 0
AnchorPoint: "U" 523 1050 basechar 0
LayerCount: 2
Fore
SplineSet
966 417 m 257
 966 460 l 257
 576 460 l 257
 576 417 l 257
 710 398 736 357 736 326 c 258
 736 73 l 258
 736 64 822 91 886 115 c 257
 886 326 l 258
 886 359 904 403 966 417 c 257
  PathStart: -1
881 884 m 257
 810 932 702 960 630 960 c 256
 318 960 80 763 80 433 c 256
 80 126 311 -22 532 -22 c 256
 631 -22 723 -6 886 115 c 257
 880 122 832 148 817 155 c 257
 760 106 675 78 564 78 c 256
 401 78 230 198 230 474 c 256
 230 783 448 870 525 870 c 256
 633 870 702 844 774 781 c 257
 802 777 l 257
 831 800 897 873 881 884 c 257
  PathStart: -1
EndSplineSet
Validated: 37
EndChar
StartChar: LtnSmGamma
Encoding: 2584 611 2568
GlifName: L_tnS_mG_amma
Width: 1010
VWidth: 0
Flags: W
AnchorPoint: "L" 504 -600 basechar 0
AnchorPoint: "U" 524 1050 basechar 0
LayerCount: 2
Fore
SplineSet
989 887 m 257
 989 930 l 257
 655 930 l 257
 655 887 l 257
 754 872 778 858 760 819 c 258
 364 9 l 258
 287 -149 269 -217 269 -284 c 256
 269 -414 365 -500 483 -500 c 256
 662 -500 742 -333 742 -235 c 256
 742 -126 711 -54 635 107 c 258
 301 819 l 258
 283 860 303 874 406 887 c 257
 406 930 l 257
 20 930 l 257
 20 887 l 257
 86 872 117 854 131 819 c 257
 517 -9 l 257
 587 -166 602 -207 602 -282 c 256
 602 -343 547 -395 496 -395 c 256
 444 -395 379 -363 379 -251 c 256
 379 -206 405 -137 501 58 c 258
 879 819 l 258
 897 856 909 868 989 887 c 257
  PathStart: -1
EndSplineSet
EndChar
StartChar: LtnSmRamsHorn
Encoding: 3148 612 3132
GlifName: L_tnS_mR_amsH_orn
Width: 1104
VWidth: 0
Flags: W
AnchorPoint: "L" 548 -100 basechar 0
AnchorPoint: "R" 1264 900 basechar 0
AnchorPoint: "U" 572 1050 basechar 0
LayerCount: 2
Fore
SplineSet
546 372 m 257
 490 450 l 257
 401 329 l 258
 358 271 331 221 331 154 c 256
 331 64 399 -30 537 -30 c 256
 716 -30 774 107 774 175 c 256
 774 230 761 273 690 387 c 258
 503 687 l 258
 387 874 306 960 207 960 c 256
 136 960 70 889 43 820 c 257
 32 774 28 681 32 636 c 257
 77 636 l 257
 88 687 127 771 197 771 c 256
 264 771 322 699 412 556 c 258
 600 256 l 258
 628 211 637 179 637 148 c 256
 637 108 592 72 540 72 c 256
 487 72 438 105 438 177 c 256
 438 232 490 295 546 372 c 257
668 675 m 258
 559 522 l 257
 619 446 l 257
 695 555 l 258
 790 691 866 771 926 771 c 256
 986 771 1025 687 1036 636 c 257
 1081 636 l 257
 1085 681 1081 774 1070 820 c 257
 1043 889 1008 960 937 960 c 256
 868 960 797 857 668 675 c 258
EndSplineSet
EndChar
StartChar: LtnSmTurnedH
Encoding: 3305 613 3289
GlifName: L_tnS_mT_urnedH_
Width: 1085
VWidth: 0
Flags: W
AnchorPoint: "L" 446 -100 basechar 0
AnchorPoint: "U" 546 1050 basechar 0
LayerCount: 2
Fore
SplineSet
1053 -420 m 257
 1053 -380 l 257
 909 -363 913 -348 913 -233 c 258
 913 921 l 257
 883 960 l 257
 809 935 719 906 623 894 c 257
 623 854 l 257
 746 848 763 831 763 711 c 258
 763 322 l 257
 654 180 537 100 451 100 c 256
 365 100 318 147 318 334 c 258
 318 921 l 257
 290 960 l 257
 202 925 135 906 39 894 c 257
 39 854 l 257
 162 842 168 838 168 711 c 258
 168 279 l 258
 168 29 272 -30 396 -30 c 256
 481 -30 616 32 763 216 c 257
 763 -466 l 257
 763 -466 800 -500 800 -500 c 257
 872 -460 959 -436 1053 -420 c 257
EndSplineSet
Validated: 41
EndChar
StartChar: LtnSmHHook
Encoding: 2608 614 2592
GlifName: L_tnS_mH_H_ook
Width: 1130
VWidth: 0
Flags: W
AnchorPoint: "L" 577 -100 basechar 0
AnchorPoint: "U" 577 1690 basechar 0
LayerCount: 2
Fore
SplineSet
670 0 m 257
 1100 0 l 257
 1100 43 l 257
 995 70 960 86 960 104 c 258
 960 741 l 258
 960 891 854 960 739 960 c 256
 635 960 460 854 345 684 c 257
 345 936 l 258
 345 1317 482 1425 567 1425 c 256
 649 1425 721 1380 782 1311 c 257
 821 1328 909 1400 909 1421 c 256
 909 1446 786 1550 677 1550 c 256
 623 1550 514 1521 436 1459 c 256
 288 1341 195 1212 195 881 c 258
 195 104 l 258
 195 82 143 66 55 43 c 257
 55 0 l 257
 485 0 l 257
 485 43 l 257
 399 61 345 84 345 104 c 258
 345 549 l 257
 460 735 590 830 682 830 c 256
 770 830 810 795 810 633 c 258
 810 104 l 258
 810 86 766 68 670 43 c 257
 670 0 l 257
EndSplineSet
Validated: 9
EndChar
StartChar: LtnSmHengHook
Encoding: 2621 615 2605
GlifName: L_tnS_mH_engH_ook
Width: 1120
VWidth: 0
Flags: W
AnchorPoint: "L" 540 -600 basechar 0
AnchorPoint: "U" 544 1690 basechar 0
LayerCount: 2
Fore
SplineSet
274 -401 m 257
 274 -440 412 -500 502 -500 c 256
 552 -500 677 -462 744 -407 c 256
 861 -311 960 -225 960 88 c 258
 960 741 l 258
 960 891 854 960 739 960 c 256
 635 960 460 854 345 684 c 257
 345 936 l 258
 345 1317 482 1425 567 1425 c 256
 649 1425 721 1380 782 1311 c 257
 821 1328 909 1400 909 1421 c 256
 909 1446 786 1550 677 1550 c 256
 623 1550 514 1521 436 1459 c 256
 288 1341 195 1212 195 881 c 258
 195 104 l 258
 195 82 143 66 55 43 c 257
 55 0 l 257
 485 0 l 257
 485 43 l 257
 399 61 345 84 345 104 c 258
 345 549 l 257
 460 735 590 830 682 830 c 256
 770 830 810 795 810 633 c 258
 810 35 l 258
 810 -295 694 -380 601 -380 c 256
 570 -380 477 -359 403 -290 c 257
 354 -316 274 -379 274 -401 c 257
  PathStart: -1
EndSplineSet
EndChar
StartChar: LtnSmIStrk
Encoding: 2700 616 2684
GlifName: L_tnS_mI_S_trk
Width: 555
VWidth: 0
Flags: W
AnchorPoint: "H" 285 0 basechar 0
AnchorPoint: "L" 284 -100 basechar 0
AnchorPoint: "O" 335 0 basechar 0
AnchorPoint: "R" 555 900 basechar 0
AnchorPoint: "U" 284 1050 basechar 0
LayerCount: 2
Fore
SplineSet
70 0 m 257
 500 0 l 257
 500 43 l 257
 403 61 360 88 360 104 c 258
 360 415 l 257
 500 415 l 257
 522 480 l 257
 500 505 l 257
 360 505 l 257
 360 960 l 257
 326 960 l 257
 258 927 154 896 70 880 c 257
 70 840 l 257
 209 827 210 807 210 670 c 258
 210 505 l 257
 70 505 l 257
 61 484 53 458 47 437 c 257
 70 415 l 257
 210 415 l 257
 210 104 l 258
 210 86 160 61 70 43 c 257
 70 0 l 257
390 1261 m 256
 390 1323 362 1356 305 1356 c 256
 242 1356 190 1296 190 1220 c 256
 190 1159 215 1124 274 1124 c 256
 340 1124 390 1186 390 1261 c 256
  PathStart: -1
EndSplineSet
EndChar
StartChar: LtnSmIota
Encoding: 2729 617 2713
GlifName: L_tnS_mI_ota
Width: 578
VWidth: 0
Flags: W
AnchorPoint: "H" 275 0 basechar 0
AnchorPoint: "L" 296 -100 basechar 0
AnchorPoint: "O" 340 0 basechar 0
AnchorPoint: "R" 532 900 basechar 0
AnchorPoint: "U" 265 1050 basechar 0
LayerCount: 2
Fore
SplineSet
598 135 m 257
 582 186 l 257
 496 125 428 106 414 106 c 256
 354 106 340 123 340 303 c 258
 340 960 l 257
 305 960 l 257
 240 927 133 896 49 880 c 257
 49 840 l 257
 193 827 190 807 190 670 c 258
 190 203 l 258
 190 43 213 -30 313 -30 c 256
 365 -30 463 6 598 135 c 257
  PathStart: -1
EndSplineSet
EndChar
StartChar: LtnSmCapI
Encoding: 2270 618 2254
GlifName: L_tnS_mC_apI_
Width: 570
VWidth: 0
Flags: W
AnchorPoint: "H" 285 0 basechar 0
AnchorPoint: "L" 285 -100 basechar 0
AnchorPoint: "O" 335 0 basechar 0
AnchorPoint: "R" 570 900 basechar 0
AnchorPoint: "U" 285 1050 basechar 0
LayerCount: 2
Fore
SplineSet
70 0 m 257
 500 0 l 257
 500 43 l 257
 403 61 360 88 360 104 c 258
 360 826 l 258
 360 844 410 869 500 887 c 257
 500 930 l 257
 70 930 l 257
 70 887 l 257
 167 869 210 842 210 826 c 258
 210 104 l 258
 210 86 160 61 70 43 c 257
 70 0 l 257
EndSplineSet
Validated: 9
EndChar
StartChar: LtnSmLMiddleTilde
Encoding: 2823 619 2807
GlifName: L_tnS_mL_M_iddleT_ilde
Width: 682
VWidth: 0
Flags: W
AnchorPoint: "L" 341 -100 basechar 0
AnchorPoint: "U" 341 1690 basechar 0
LayerCount: 2
Fore
SplineSet
116 0 m 257
 566 0 l 257
 566 43 l 257
 457 61 416 84 416 104 c 258
 416 1516 l 257
 380 1550 l 257
 298 1507 222 1489 126 1470 c 257
 126 1430 l 257
 238 1417 266 1417 266 1296 c 258
 266 104 l 258
 266 82 231 63 116 43 c 257
 116 0 l 257
682 891 m 257
 628 914 l 257
 583 836 534 791 483 791 c 256
 419 791 340 904 239 904 c 256
 135 904 47 787 0 678 c 257
 53 658 l 257
 102 732 143 779 196 779 c 256
 274 779 350 666 442 666 c 256
 546 666 635 783 682 891 c 257
  PathStart: -1
EndSplineSet
EndChar
StartChar: LtnSmLBelt
Encoding: 2791 620 2775
GlifName: L_tnS_mL_B_elt
Width: 739
VWidth: 0
Flags: W
AnchorPoint: "L" 379 -100 basechar 0
AnchorPoint: "U" 379 1690 basechar 0
LayerCount: 2
Fore
SplineSet
154 0 m 257
 604 0 l 257
 604 43 l 257
 495 61 454 84 454 104 c 258
 454 1516 l 257
 418 1550 l 257
 336 1507 260 1489 164 1470 c 257
 164 1430 l 257
 276 1417 304 1413 304 1296 c 258
 304 104 l 258
 304 82 269 63 154 43 c 257
 154 0 l 257
220 1026 m 260
 112 1026 0 946 0 812 c 260
 0 662 152 576 358 576 c 260
 519 576 653 661 759 789 c 261
 715 835 l 261
 602 716 510 666 385 666 c 260
 245 666 123 730 123 853 c 260
 123 917 152 940 196 940 c 260
 240 940 304 901 304 771 c 262
 304 749 l 261
 371 756 l 261
 371 846 l 262
 371 990 305 1026 220 1026 c 260
  PathStart: -1
EndSplineSet
Validated: 5
EndChar
StartChar: LtnSmLRetrHook
Encoding: 2827 621 2811
GlifName: L_tnS_mL_R_etrH_ook
Width: 556
VWidth: 0
Flags: W
AnchorPoint: "L" 409 -600 basechar 0
AnchorPoint: "U" 344 1690 basechar 0
LayerCount: 2
Fore
SplineSet
758 -235 m 261
 739 -196 l 261
 698 -190 565 -252 573 -264 c 260
 608 -321 555 -405 477 -405 c 260
 381 -405 350 -319 350 -166 c 262
 350 1519 l 261
 318 1550 l 261
 249 1516 160 1486 60 1470 c 261
 60 1430 l 261
 193 1420 200 1404 200 1258 c 262
 200 -227 l 262
 200 -371 241 -500 403 -500 c 260
 598 -500 766 -336 758 -235 c 261
  PathStart: -1
EndSplineSet
Validated: 41
EndChar
